<svg xmlns="http://www.w3.org/2000/svg" fill="none" viewBox="0 0 1105 483">
  <g fill="#fff" clip-path="url(#a)">
    <path d="m109 171-15-22 132 19 115-32-3 6-103 38-86 2-40-11Z"/>
    <path d="m76 122 16 24 135 19 106-30-102 19-155-32Z"/>
    <path d="M73 119 40 70l190 69 102-7-100 18-159-31Zm87 66 49 15 48-8 81-45v-3l-103 39-75 2Z"/>
    <path d="m216 201 35 10 28-15 59-42v-4l-81 45-41 6Zm39 11 18 4 32-16 33-43-53 39-30 16Z"/>
    <path d="m276 218 17 5 29-24 15-35-30 38-31 16Z"/>
    <path d="m296 224 15 4 27-13 1-46-14 32-29 23Zm69-42 20 14v8l-23-16v20l21 19 2 2v79l-3-4h-7l-3 3-2-7h5v-32l-32-37v-90l22 24v17ZM190 347l33 21 142-68-175 47Zm72 8 20 14 86-64-106 50Zm-3 36 24 15 87-98-111 83Zm38 6 20 9 55-95-75 86Zm15 25 23 13 42-123-65 110Zm68-107-19 53 11 4 8-57Zm9-5v122l14-6-14-116Zm-5 0-17 145 16 9 1-154Z"/>
    <path d="m343 236 20 45-3 15 12-2v-25l-29-33Zm2-99 22 24 16-15v-11l-12-16-26 18ZM0 15l36 51 194 69 107-7-106-2L19 20 0 15Z"/>
    <path d="m40 27 192 95 108 3L40 27Z"/>
    <path fill-rule="evenodd" d="m385 51-13-9-29-22-11 6h8l13 18-4 75 36-19V51Zm-12 4 5 1 4 2-9-7v4Z" clip-rule="evenodd"/>
    <path d="M491 95c-4-5-8-7-14-7l-8 1-5 4a18 18 0 0 0-5 13l1 7 4 6a18 18 0 0 0 6 4l7 1c5 0 10-2 14-7v20l-1 1-8 2a34 34 0 0 1-6 1c-5 0-9-1-14-3a36 36 0 0 1-11-7l-7-11a34 34 0 0 1 32-49l7 1 8 2v21Zm27 12-24-34h21l12 18 12-18h21l-25 34v32h-17v-32Zm65 19h4l9-2c2-1 3-3 3-6 0-2-1-4-3-5l-9-2h-4v15Zm0-27h3c5 0 8-2 8-7s-3-6-8-6h-3v13Zm-17-26h25c6 0 11 1 14 4s5 7 5 13l-2 8-5 6 6 2 4 3a13 13 0 0 1 2 5 22 22 0 0 1-1 14l-4 6-7 4-10 1h-27V73Zm98 14h-21v11h20v15h-20v11h21v15h-38V73h38v14Zm29 15h4c3 0 6 0 8-2l2-6-2-6-8-2h-4v16Zm38 37h-21l-17-26v26h-17V73h27l10 1 6 5a18 18 0 0 1 4 6l2 8c0 5-1 9-4 12-2 4-6 6-11 7l21 27Zm-255 62h34v9a34 34 0 0 1-7 18 30 30 0 0 1-8 6c-2 2-5 3-9 4a40 40 0 0 1-25-1 32 32 0 0 1-18-18l-2-14 2-14 7-11c3-4 7-6 12-8l14-2c7 0 13 1 18 4s9 8 12 14l-16 7c-1-4-3-6-6-8l-8-2a16 16 0 0 0-16 12l-1 8 1 8 3 6 6 4 7 2 5-1 4-2a11 11 0 0 0 3-3l2-5h-14v-13Zm62-29v42l2 5c0 2 2 3 3 4l7 2 6-2 4-4 1-5v-42h18v38c0 10-3 18-8 23-4 4-11 7-21 7s-17-3-22-7c-5-5-7-13-7-23v-38h17Zm88 41-8-22-7 22h15Zm5 13h-25l-4 12h-18l25-66h19l25 66h-18l-4-12Zm47-25h3c3 0 6 0 8-2l2-6-2-6-8-2h-3v16Zm37 37h-21l-16-26v26h-18v-66h27l10 1 7 5a18 18 0 0 1 4 6l1 8c0 5-1 9-4 12-2 4-6 6-10 7l20 27Zm25-15h4l8-1a17 17 0 0 0 9-10l2-7-2-8a17 17 0 0 0-9-9l-8-2h-4v37Zm-17-51h25l13 2a33 33 0 0 1 17 18 32 32 0 0 1 0 25 33 33 0 0 1-7 11l-10 7c-4 2-8 3-13 3h-25v-66Zm86 0v66h-17v-66h17Zm49 41-7-22-8 22h15Zm5 13h-25l-3 12h-19l25-66h19l25 66h-18l-4-12Zm30 12v-66h17l32 40v-40h17v66h-17l-32-41v41h-17Zm-402 55c-4-5-8-7-14-7l-8 1-5 4a18 18 0 0 0-5 13l1 7 4 6a18 18 0 0 0 6 4l7 1c5 0 10-2 14-7v20l-1 1-8 2a34 34 0 0 1-6 1c-5 0-9-1-14-3a36 36 0 0 1-11-7l-7-11a34 34 0 0 1 32-49l7 1 8 2v21Zm27 11a18 18 0 0 0 6 13 19 19 0 0 0 6 4 20 20 0 0 0 7 1l7-1 6-4a18 18 0 0 0 4-6l1-7-1-7a18 18 0 0 0-4-6l-6-4-7-1-7 1a18 18 0 0 0-6 4 18 18 0 0 0-6 13Zm-18 0a34 34 0 0 1 22-32c4-2 9-3 15-3l15 3a34 34 0 0 1 21 32c0 5 0 9-2 14a34 34 0 0 1-8 11l-11 7-15 3c-6 0-11-1-15-3a35 35 0 0 1-19-18c-2-5-3-9-3-14Zm84 33v-66h17l32 40v-40h17v66h-17l-32-41v41h-17Zm116-49-5-4-6-1-5 2-2 4 1 3 3 2a30 30 0 0 0 3 1 94 94 0 0 1 5 2c5 1 9 4 12 7s4 7 4 12l-2 9a19 19 0 0 1-5 8l-8 4-11 2c-8 0-16-3-23-8l8-14c2 3 5 4 7 5 3 2 5 2 8 2l6-2a6 6 0 0 0 1-7l-1-2-4-2a89 89 0 0 0-4-1 126 126 0 0 1-7-3 22 22 0 0 1-6-3l-4-5-1-8 1-9a20 20 0 0 1 12-12l10-1 10 1a44 44 0 0 1 10 4l-7 14Zm38-17v42l1 5 4 4 7 2 6-2 4-4 1-5v-42h17v38c0 10-2 18-7 23-4 4-12 7-21 7-10 0-17-3-22-7-5-5-7-13-7-23v-38h17Zm71 0v51h21v15h-38v-66h17Zm51 14v52h-17v-52h-14v-14h46v14h-15Zm39-14v66h-17v-66h17Zm14 66v-66h17l32 40v-40h17v66h-17l-32-41v41h-17Zm113-37h35l-1 9a34 34 0 0 1-7 18 30 30 0 0 1-7 6l-9 4a40 40 0 0 1-25-1 32 32 0 0 1-18-18c-2-4-3-9-3-14s1-10 3-14c1-5 4-8 7-11 3-4 7-6 11-8l14-2c7 0 13 1 19 4 5 3 9 8 12 14l-16 7-6-8-9-2a16 16 0 0 0-16 12l-1 8 1 8 4 6 5 4 8 2 5-1 4-2a11 11 0 0 0 3-3l2-5h-15v-13Zm-550 98h34v9a34 34 0 0 1-7 18 30 30 0 0 1-8 6c-2 2-5 3-9 4a40 40 0 0 1-25-1 32 32 0 0 1-18-18l-2-14 2-14 7-11c3-4 7-6 12-8l14-2c7 0 13 1 18 4s9 8 12 14l-16 7c-1-4-3-6-6-8l-8-2a16 16 0 0 0-16 12l-1 8 1 8 3 6 6 4 7 2 5-1 4-2a11 11 0 0 0 3-3l2-5h-14v-13Zm62 0h3c4 0 6 0 8-2 2-1 3-3 3-6s-1-5-3-6l-8-2h-3v16Zm38 37h-21l-17-26v26h-17v-66h27l9 1 7 5a18 18 0 0 1 4 6l1 8c0 5-1 9-3 12-3 4-6 6-11 7l21 27Zm21-33a18 18 0 0 0 5 13 19 19 0 0 0 6 4 20 20 0 0 0 7 1l8-1 6-4a18 18 0 0 0 4-6l1-7-1-7a18 18 0 0 0-4-6l-6-4-8-1-7 1a18 18 0 0 0-6 4 18 18 0 0 0-5 13Zm-18 0a34 34 0 0 1 22-32c4-2 9-3 14-3 6 0 11 1 15 3a34 34 0 0 1 22 32c0 5-1 9-3 14a34 34 0 0 1-7 11c-3 3-7 5-12 7-4 2-9 3-15 3-5 0-10-1-14-3a35 35 0 0 1-19-18c-2-5-3-9-3-14Zm101-33v42l2 5c0 2 2 3 3 4l7 2 6-2 4-4 1-5v-42h18v38c0 10-3 18-8 23-4 4-11 7-21 7s-17-3-22-7c-5-5-7-13-7-23v-38h17Zm72 30h5c7 0 10-3 10-8s-3-8-10-8h-5v16Zm0 36h-18v-66h28c7 0 13 2 17 6 4 3 6 9 6 16s-2 12-6 16-10 6-17 6h-10v22Z"/>
  </g>
  <defs>
    <clipPath id="a">
      <path fill="#fff" d="M0 0h1104v483H0z"/>
    </clipPath>
  </defs>
</svg>
