<svg width="125" height="74" viewBox="0 0 125 74" fill="none" xmlns="http://www.w3.org/2000/svg">
<g clip-path="url(#clip0_0_188)">
<path d="M17.7039 25.4664L15.2003 21.9046L36.6595 24.9321L55.2575 19.7676L54.721 20.658L38.0901 26.891L24.1416 27.2472L17.7039 25.4664Z" fill="white"/>
<path d="M12.3391 17.4526L14.8426 21.3705L36.8383 24.398L54.0057 19.5897L37.3748 22.6172L12.3391 17.4526Z" fill="white"/>
<path d="M11.8026 16.9183L6.43777 9.08252L37.196 20.302L53.8269 19.0554L37.5537 22.0828L11.8026 16.9183Z" fill="white"/>
<path d="M25.9299 27.7815L33.7983 30.0966L41.6667 28.85L54.721 21.5484V21.0142L38.0901 27.4253L25.9299 27.7815Z" fill="white"/>
<path d="M35.0501 30.2745L40.5937 31.8773L45.2432 29.5622L54.721 22.6168V22.0825L41.6667 29.3841L35.0501 30.2745Z" fill="white"/>
<path d="M41.309 32.0557L44.1703 32.768L49.3562 30.0967L54.721 23.1514L46.1373 29.5625L41.309 32.0557Z" fill="white"/>
<path d="M44.7067 33.1241L47.3891 33.8364L52.2175 29.9185L54.5422 24.2197L49.7139 30.4528L44.7067 33.1241Z" fill="white"/>
<path d="M47.9256 34.0147L50.4292 34.727L54.721 32.59L54.8999 25.1104L52.5751 30.2749L47.9256 34.0147Z" fill="white"/>
<path d="M107.296 25.6446L109.8 22.0828L88.3405 25.1103L69.7425 19.9458L70.279 20.8362L86.9099 27.0693L100.858 27.4254L107.296 25.6446Z" fill="white"/>
<path d="M112.661 17.6304L110.157 21.5483L88.1617 24.5758L70.9943 19.7674L87.6252 22.7949L112.661 17.6304Z" fill="white"/>
<path d="M113.197 17.0966L118.562 9.26074L87.804 20.4802L71.1731 19.2336L87.4464 22.2611L113.197 17.0966Z" fill="white"/>
<path d="M99.0701 27.9597L91.2017 30.2748L83.3334 29.0282L70.279 21.7266V21.1924L86.9099 27.6035L99.0701 27.9597Z" fill="white"/>
<path d="M89.9499 30.4527L84.4063 32.0555L79.7568 29.7404L70.279 22.795V22.2607L83.3334 29.5623L89.9499 30.4527Z" fill="white"/>
<path d="M83.691 32.2339L80.8298 32.9463L75.6438 30.275L70.279 23.3296L78.8627 29.7407L83.691 32.2339Z" fill="white"/>
<path d="M80.2933 33.3023L77.6109 34.0146L72.7826 30.0967L70.4578 24.3979L75.2861 30.631L80.2933 33.3023Z" fill="white"/>
<path d="M77.0744 34.1924L74.5708 34.9048L70.279 32.7677L70.1002 25.2881L72.4249 30.4526L77.0744 34.1924Z" fill="white"/>
<path d="M69.206 35.2612V20.48L65.6295 24.3979V27.2473L62.4106 29.5624L59.1917 27.2473V24.3979L55.6152 20.48V35.2612L60.8012 41.138V46.4806H59.907L60.2647 47.5492L60.8012 47.0149H61.8741L62.4106 47.7272L62.9471 47.0149H64.02L64.5565 47.5492L64.9142 46.4806H64.02V40.9599L69.206 35.2612ZM62.9471 34.5488V46.4806H62.0529V34.5488L58.6552 31.5214V28.1377L62.4106 30.809L66.2554 27.9596V31.2542L62.9471 34.5488Z" fill="white"/>
<path d="M30.7582 54.1382L36.123 57.5218L59.1917 46.4805L30.7582 54.1382Z" fill="white"/>
<path d="M42.382 55.3849L45.6009 57.7L59.5494 47.1929L42.382 55.3849Z" fill="white"/>
<path d="M42.0243 61.2616L45.7797 63.5768L59.907 47.7271L42.0243 61.2616Z" fill="white"/>
<path d="M48.1044 62.1525L51.3233 63.5772L60.2647 48.2617L48.1044 62.1525Z" fill="white"/>
<path d="M50.608 66.2481L54.1846 68.3852L60.98 48.4395L50.608 66.2481Z" fill="white"/>
<path d="M61.5165 48.7959L58.4764 57.5221L60.2647 58.0564L61.5165 48.7959Z" fill="white"/>
<path d="M62.9471 48.0835V67.8511L65.2718 66.9607L62.9471 48.0835Z" fill="white"/>
<path d="M63.6624 48.7959L66.5236 71.0567L70.4578 68.7416L63.6624 48.7959Z" fill="white"/>
<path d="M64.3777 48.6177L67.4177 57.7001L68.8484 56.2754L64.3777 48.6177Z" fill="white"/>
<path d="M64.9142 48.0835L75.1073 65.8922L78.6839 63.7551L64.9142 48.0835Z" fill="white"/>
<path d="M62.2318 48.0835L59.3705 71.5909L62.053 73.0156L62.2318 48.0835Z" fill="white"/>
<path d="M65.4507 47.7271L74.0343 57.5218L76.0014 55.741L65.4507 47.7271Z" fill="white"/>
<path d="M65.8083 47.0146L83.691 60.7273L88.3405 57.8779L65.8083 47.0146Z" fill="white"/>
<path d="M65.9871 46.4805L84.764 55.3848L88.5193 52.5354L65.9871 46.4805Z" fill="white"/>
<path d="M69.206 35.9736L65.9871 43.2752L66.5236 45.7684L64.5565 45.4122V41.3162L69.206 35.9736Z" fill="white"/>
<path d="M55.6152 35.9736L58.8341 43.2752L58.2976 45.7684L60.2647 45.4122V41.3162L55.6152 35.9736Z" fill="white"/>
<path d="M69.0272 19.9459L65.4507 23.8638L62.7682 21.3706V19.5898L64.7353 16.9185L69.0272 19.9459Z" fill="white"/>
<path d="M55.794 19.9459L59.3705 23.8638L62.0529 21.3706V19.5898L60.0859 16.9185L55.794 19.9459Z" fill="white"/>
<path d="M0 0L5.90129 8.37008L37.196 19.5895L54.5422 18.521L37.3748 18.1648L3.04006 0.890434L0 0Z" fill="white"/>
<path d="M6.43777 1.95898L37.5537 17.4525L55.0787 17.9868L6.43777 1.95898Z" fill="white"/>
<path d="M125 0.178223L119.099 8.5483L87.804 19.7678L70.4578 18.6992L87.6252 18.3431L121.96 1.06866L125 0.178223Z" fill="white"/>
<path d="M118.562 2.13721L87.4464 17.6307L69.9213 18.165L118.562 2.13721Z" fill="white"/>
<path d="M65.6295 9.43879L67.9542 11.5758L64.3777 6.5894L60.2647 4.45236L55.6152 0.890625L53.8269 1.78106H55.0787L57.2246 4.80853L56.5093 16.9184L62.4106 13.891L68.4907 17.6308L65.6295 9.43879ZM61.1588 6.76749L60.4435 6.5894V5.87705L61.8741 7.12366L61.1588 6.76749Z" fill="white"/>
</g>
<defs>
<clipPath id="clip0_0_188">
<rect width="125" height="73.0155" fill="white"/>
</clipPath>
</defs>
</svg>
