<svg width="108" height="106" viewBox="0 0 108 106" fill="none" xmlns="http://www.w3.org/2000/svg">
<g clip-path="url(#clip0_3731_943)">
<path d="M52.207 105.75C23.8585 105.75 0.877441 82.1429 0.877441 53.0226C0.877441 23.9024 23.8585 0.29532 52.207 0.29532C80.5547 0.29532 103.536 23.9024 103.536 53.0226C103.536 82.1429 80.5547 105.75 52.207 105.75ZM52.2065 8.41007C28.2214 8.41007 8.7768 28.384 8.7768 53.0221C8.7768 77.6608 28.2214 97.6347 52.2065 97.6347C76.1913 97.6347 95.6359 77.6608 95.6359 53.0221C95.6359 28.384 76.1913 8.41007 52.2065 8.41007Z" fill="#F2F2F2"/>
<path d="M69.1636 89.9629C67.494 89.9618 61.4098 78.9333 60.592 75.789C58.8825 69.2057 59.2504 66.4245 59.3526 65.5353C59.6657 62.8204 62.252 61.4637 62.4086 57.7922C62.457 56.6584 63.0192 50.9899 63.468 46.5621C62.3607 46.3414 61.2575 45.8328 60.2769 45.0438C63.221 49.0656 58.8878 53.8854 52.5916 60.2986C45.9088 67.1046 31.0757 73.4216 31.0757 73.4216C31.0757 73.4216 37.2786 58.3143 43.961 51.5083C48.8734 46.5057 52.8326 42.7198 56.2115 42.7198C57.1639 42.7198 58.0706 43.0208 58.9389 43.6796C58.1638 42.6813 57.6649 41.5584 57.4477 40.4305C53.1001 40.8887 47.5341 41.4602 46.4215 41.5101C42.8161 41.6695 41.4839 44.3037 38.8198 44.622C38.5131 44.6588 37.9771 44.7293 37.1309 44.7293C35.5674 44.7293 32.9448 44.4897 28.7517 43.3591C25.3939 42.4547 12.8821 35.2056 15.0951 34.2946C16.2236 33.8294 19.8201 33.5149 24.5566 33.5149C29.1117 33.5149 34.7212 33.8055 40.2007 34.5326C47.0329 35.4393 53.2977 36.5861 57.567 37.439C57.6362 37.2053 57.7192 36.9781 57.8188 36.7574L53.4542 34.627C53.4542 34.627 49.9681 30.5527 50.3404 30.2718C50.3548 30.2609 50.373 30.2555 50.3948 30.2555C50.9416 30.2555 53.7305 33.5029 53.9988 33.8727C54.2054 33.9427 55.3879 34.3445 56.6315 34.7658L55.3969 33.6662C55.3969 33.6662 53.7071 27.2922 54.1474 27.142C54.1527 27.1404 54.1586 27.1393 54.1649 27.1393C54.6287 27.1393 56.162 32.682 56.2935 33.08C56.5948 33.349 57.6127 33.7529 58.8846 34.5001L57.5473 30.9962C57.5473 30.9962 58.1526 25.2155 58.6057 25.2155C58.6094 25.2155 58.6126 25.216 58.6163 25.2166C59.0726 25.3093 58.5269 30.0381 58.4113 30.6269C58.5769 30.8856 59.6028 32.4884 60.6314 34.0956C61.2645 33.8527 61.9454 33.7329 62.6444 33.7329C63.4467 33.7329 64.272 33.8912 65.0727 34.203C64.0473 31.9793 64.125 29.6618 65.4848 28.278C65.9149 27.8388 66.4377 27.5324 67.0202 27.3508C67.0905 26.9463 67.2747 26.5624 67.5765 26.2544C67.97 25.8542 68.488 25.6552 69.0124 25.6552C69.5613 25.6552 70.1177 25.8737 70.5436 26.3081C70.9519 26.7229 71.1638 27.2591 71.1819 27.7932C71.8384 26.4154 72.613 24.5561 72.5587 23.9537C72.4325 22.5905 70.8801 20.1776 70.8657 20.1532C70.7645 19.9976 70.8066 19.7872 70.9605 19.6836C71.0164 19.6462 71.0797 19.6283 71.1425 19.6283C71.2506 19.6283 71.3566 19.682 71.4199 19.7812C71.4886 19.8853 73.0794 22.359 73.221 23.8908C73.2998 24.767 72.3122 26.975 71.774 28.1029C72.53 28.5242 73.2668 29.0805 73.9397 29.7659C74.6122 30.4507 75.1584 31.2012 75.5726 31.9717C76.6379 31.4441 78.6818 30.4936 79.6034 30.4936C79.6401 30.4936 79.6753 30.4946 79.7083 30.4979C81.2117 30.6421 83.6411 32.2623 83.7428 32.3312C83.8961 32.4337 83.9387 32.6441 83.8375 32.8002C83.7736 32.8989 83.6677 32.9526 83.5596 32.9526C83.4973 32.9526 83.434 32.9347 83.3781 32.8967C83.3541 32.881 80.9855 31.3004 79.6465 31.173C79.6263 31.1708 79.6044 31.1703 79.5815 31.1703C78.9304 31.1703 77.182 31.9278 75.8755 32.5741C76.401 32.592 76.9275 32.8089 77.3343 33.2248C78.1686 34.0734 78.1915 35.4257 77.387 36.245C77.0851 36.553 76.7087 36.7422 76.3116 36.8127C76.1322 37.4065 75.8308 37.939 75.4006 38.3771C74.651 39.1411 73.6235 39.5071 72.4852 39.5071C71.5599 39.5071 70.5617 39.2647 69.5826 38.7968C70.156 40.3215 70.1997 41.9357 69.6886 43.3195C71.2655 44.3671 72.8414 45.4125 73.0938 45.5812C73.508 45.4971 75.9953 45.1897 77.4152 45.1897C77.9828 45.1897 78.3805 45.2385 78.406 45.3708C78.4981 45.8349 72.7323 46.4618 72.7323 46.4618L69.2914 45.098C70.0256 46.3945 70.4206 47.4307 70.6852 47.7382C71.0829 47.8737 76.6619 49.4755 76.5149 49.9239C76.4984 49.976 76.4005 49.9982 76.2402 49.9982C75.0104 49.9982 70.1102 48.6508 70.1102 48.6508L69.0295 47.3933C69.4442 48.6605 69.8376 49.8637 69.9074 50.0747C70.2854 50.3593 73.7177 53.4202 73.4425 53.8002C73.4281 53.8199 73.4047 53.8286 73.3722 53.8286C72.7701 53.8286 69.1668 50.6299 69.1668 50.6299L67.0745 46.1841C66.8583 46.2861 66.6347 46.3696 66.4047 46.4406C67.2422 50.7888 68.3688 57.1693 69.26 64.1272C70.7156 75.5113 70.3881 87.4415 69.4937 89.6973C69.4218 89.8788 69.3095 89.9629 69.1636 89.9629" fill="#F2F2F2"/>
<path d="M91.5915 98.7535H89.1542V105.454H87.5147V98.7535H85.1101V97.4111H91.5915V98.7535Z" fill="#F2F2F2"/>
<path d="M94.6737 97.4111L96.7176 103.245L98.7506 97.4111H100.904V105.454H99.2588V103.256L99.4227 99.4606L97.275 105.454H96.1493L94.007 99.4661L94.171 103.256V105.454H92.5315V97.4111H94.6737Z" fill="#F2F2F2"/>
</g>
<defs>
<clipPath id="clip0_3731_943">
<rect width="107.046" height="105.455" fill="white"/>
</clipPath>
</defs>
</svg>
