<svg width="133" height="54" viewBox="0 0 133 54" fill="none" xmlns="http://www.w3.org/2000/svg">
<path d="M25.8387 49.28V52.9678H0V49.28H25.8387ZM66.2185 49.28C63.6265 51.6605 60.2315 52.9772 56.7107 52.9675L29.5299 52.9312V49.28H66.2185ZM104.638 49.28L103.349 52.9675L102.071 49.28H104.638V49.28ZM92.2809 49.28V52.9678H73.8248V49.28H92.2807H92.2809ZM132.884 49.28V52.9678H114.428V49.28H132.884V49.28ZM70.3994 42.2404C70.0826 43.5339 69.5825 44.7756 68.9143 45.9279H29.5299V42.2404H70.3994ZM107.111 42.2404L105.816 45.9282H100.893L99.5976 42.2404H107.111ZM92.2809 42.2404V45.9279H73.8248V42.2404H92.2807H92.2809ZM132.884 42.2404V45.9279H114.428V42.2404H132.884ZM25.8387 42.2404V45.9279H0V42.2404H25.8387V42.2404ZM18.4559 35.1999V38.8878H7.38235V35.1999H18.4561H18.4559ZM47.9858 35.1999V38.8878H36.912V35.1999H47.9858ZM70.3106 35.1999C70.6377 36.402 70.8037 37.6421 70.8043 38.8878H58.3887V35.1999H70.3106ZM109.585 35.1999L108.289 38.8878H98.4193L97.1232 35.1999H109.585ZM92.2807 35.1999V38.8878H81.2069V35.1999H92.2807ZM125.502 35.1999V38.8878H114.428V35.1999H125.502ZM18.4559 28.1601V31.8476H7.38235V28.1601H18.4561H18.4559ZM92.2807 28.1601V31.8476H81.2069V28.1601H92.2807V28.1601ZM125.502 28.1601V31.8476H114.428V28.1601H125.502V28.1601ZM65.831 28.1601C67.0603 29.2048 68.1016 30.4519 68.9099 31.8474H36.9123V28.1598L65.831 28.1601ZM112.059 28.1601L110.764 31.8476H95.9451L94.6495 28.1598H112.059V28.1601ZM102.317 21.1202L103.354 24.1009L104.392 21.1202H125.502V24.8078H114.429V21.4197L113.237 24.808H93.4717L92.2807 21.4191V24.808H81.2074V21.1202H102.317H102.317ZM36.912 21.1202H68.9104C68.102 22.5158 67.0606 23.763 65.8312 24.8078H36.9123V21.1199L36.912 21.1202ZM18.4559 21.1202V24.8078H7.38235V21.1199H18.4561L18.4559 21.1202ZM18.4559 14.08V17.7676H7.38235V14.08H18.4561H18.4559ZM47.9858 14.08V17.7676H36.912V14.08H47.9858ZM70.8045 14.08C70.8039 15.3256 70.6378 16.5656 70.3106 17.7676H58.3887V14.08H70.8045ZM99.866 14.08L101.15 17.7676H81.2074V14.08H99.8663H99.866ZM125.502 14.08V17.7676H105.559L106.842 14.08H125.502V14.08ZM25.8382 7.0399V10.7277H0V7.03964H25.8387L25.8382 7.0399ZM68.914 7.0399C69.5823 8.19219 70.0824 9.43392 70.3991 10.7275H29.5294V7.0399H68.914ZM132.884 7.0399V10.7275H108.009L109.293 7.0399H132.884H132.884ZM97.4154 7.0399L98.6991 10.7275H73.8245V7.0399H97.4157H97.4154ZM25.839 0.000272155V3.68758H0V1.28691e-05H25.8387L25.839 0.000272155ZM56.7107 1.28691e-05C60.2306 -0.00474754 63.6239 1.31134 66.2185 3.68758H29.5299V1.28691e-05H56.7107ZM132.884 1.28691e-05V3.68784H110.46L111.744 0.000272155H132.884V1.28691e-05ZM94.9656 1.28691e-05L96.249 3.68784H73.8248V0.000272155H94.9654L94.9656 1.28691e-05Z" fill="#F2F2F2"/>
</svg>
