<svg width="117" height="67" viewBox="0 0 117 67" fill="none" xmlns="http://www.w3.org/2000/svg">
<path d="M37.9158 59.3719H33.1443V40.4629H37.9158V59.3719V59.3719Z" fill="#F2F2F2"/>
<path d="M76.3898 45.8803C76.1933 45.7806 74.6577 44.8708 72.3755 44.8708C69.2908 44.8708 67.1507 47.0169 67.1507 49.9142C67.1507 52.7239 69.1986 54.9623 72.3755 54.9623C74.6185 54.9623 76.1797 54.0706 76.3898 53.9587V59.034C75.7913 59.2002 74.1605 59.7065 72.0415 59.7065C66.6746 59.7065 61.9636 56.0067 61.9636 49.9128C61.9636 44.2677 66.2257 40.1264 72.0415 40.1264C74.2784 40.1264 75.9379 40.6706 76.3898 40.8051V45.8803ZM26.585 45.8803C26.393 45.7806 24.859 44.8708 22.5768 44.8708C19.486 44.8708 17.3474 47.0169 17.3474 49.9142C17.3474 52.7239 19.3968 54.9623 22.5768 54.9623C24.8197 54.9623 26.3794 54.0706 26.585 53.9587V59.034C25.9925 59.2002 24.3632 59.7065 22.2322 59.7065C16.8698 59.7065 12.1648 56.0067 12.1648 49.9128C12.1648 44.2677 16.4269 40.1264 22.2337 40.1264C24.4796 40.1264 26.1361 40.6706 26.585 40.8051V45.8803V45.8803ZM91.3994 44.9418C88.5686 44.9418 86.4662 47.1695 86.4662 49.9142C86.4662 52.665 88.5686 54.8913 91.3994 54.8913C94.2272 54.8913 96.3356 52.665 96.3356 49.9142C96.3356 47.1695 94.2272 44.9418 91.3994 44.9418ZM101.391 49.9142C101.391 55.3235 97.2152 59.7065 91.4009 59.7065C85.5836 59.7065 81.4137 55.3235 81.4137 49.9128C81.4137 44.5141 85.5851 40.1264 91.3994 40.1264C97.2153 40.1264 101.391 44.514 101.391 49.9142V49.9142ZM56.0102 44.7604C55.9392 44.7378 53.9305 44.183 52.2801 44.183C50.3682 44.183 49.3284 44.8239 49.3284 45.7323C49.3284 46.8839 50.7309 47.2859 51.5154 47.5338L52.8318 47.9525C55.9301 48.9379 57.3402 51.0584 57.3402 53.3617C57.3402 58.112 53.1628 59.708 49.5112 59.708C46.9736 59.708 44.5962 59.2395 44.3619 59.1911V54.8383C44.7821 54.9441 46.7832 55.5426 48.8674 55.5426C51.2418 55.5426 52.333 54.8475 52.333 53.7774C52.333 52.8192 51.3884 52.2659 50.205 51.8941C49.9178 51.7974 49.4825 51.6614 49.1863 51.5646C46.5293 50.7243 44.3136 49.1616 44.3136 46.033C44.3136 42.4963 46.9615 40.1219 51.3597 40.1219C53.6827 40.1219 55.8682 40.6857 56.0102 40.7235V44.7589V44.7604Z" fill="#F2F2F2"/>
<path d="M7.10467 20.1413C7.10467 18.8385 6.04065 17.782 4.73632 17.782C3.43199 17.782 2.36646 18.8384 2.36646 20.1397V25.1047C2.38206 25.7227 2.63852 26.3101 3.08111 26.7416C3.5237 27.1732 4.1174 27.4147 4.73557 27.4147C5.35373 27.4147 5.94742 27.1732 6.39001 26.7416C6.8326 26.3101 7.08906 25.7227 7.10467 25.1047V20.1413V20.1413ZM20.1162 13.6272C20.1162 12.9989 19.8666 12.3963 19.4223 11.952C18.978 11.5077 18.3754 11.2581 17.7471 11.2581C17.1188 11.2581 16.5162 11.5077 16.0719 11.952C15.6276 12.3963 15.378 12.9989 15.378 13.6272V25.1047C15.378 25.733 15.6276 26.3356 16.0719 26.7799C16.5162 27.2242 17.1188 27.4738 17.7471 27.4738C18.3754 27.4738 18.978 27.2242 19.4223 26.7799C19.8666 26.3356 20.1162 25.733 20.1162 25.1047V13.6256V13.6272ZM33.1293 4.71301C33.1293 3.41019 32.0653 2.3522 30.7609 2.3522C29.4551 2.3522 28.3911 3.41019 28.3911 4.71301V29.8217C28.4067 30.4397 28.6631 31.0271 29.1057 31.4586C29.5483 31.8902 30.142 32.1318 30.7602 32.1318C31.3783 32.1318 31.972 31.8902 32.4146 31.4586C32.8572 31.0271 33.1137 30.4397 33.1293 29.8217V4.71301V4.71301ZM46.1409 13.6272C46.1409 12.9989 45.8912 12.3963 45.447 11.952C45.0027 11.5077 44.4001 11.2581 43.7717 11.2581C43.1434 11.2581 42.5408 11.5077 42.0965 11.952C41.6522 12.3963 41.4026 12.9989 41.4026 13.6272V25.1047C41.4026 25.733 41.6522 26.3356 42.0965 26.7799C42.5408 27.2242 43.1434 27.4738 43.7717 27.4738C44.4001 27.4738 45.0027 27.2242 45.447 26.7799C45.8912 26.3356 46.1409 25.733 46.1409 25.1047V13.6256V13.6272ZM59.1388 20.1413C59.1392 19.5162 58.8914 18.9166 58.4498 18.4742C58.0083 18.0318 57.4091 17.7828 56.7841 17.782C56.1576 17.7816 55.5566 18.0296 55.1127 18.4715C54.6687 18.9135 54.4181 19.5133 54.4157 20.1397V25.1047C54.4157 25.731 54.6645 26.3317 55.1074 26.7746C55.5503 27.2174 56.1509 27.4662 56.7773 27.4662C57.4036 27.4662 58.0042 27.2174 58.4471 26.7746C58.89 26.3317 59.1388 25.731 59.1388 25.1047V20.1413V20.1413ZM72.1564 13.6272C72.1408 13.0112 71.8852 12.4257 71.444 11.9955C71.0028 11.5654 70.411 11.3246 69.7949 11.3246C69.1787 11.3246 68.5869 11.5654 68.1457 11.9955C67.7045 12.4257 67.4489 13.0112 67.4333 13.6272V25.1047C67.4333 25.731 67.6821 26.3317 68.125 26.7746C68.5679 27.2174 69.1685 27.4662 69.7949 27.4662C70.4212 27.4662 71.0218 27.2174 71.4647 26.7746C71.9076 26.3317 72.1564 25.731 72.1564 25.1047V13.6256V13.6272ZM85.177 4.71301C85.177 4.08669 84.9282 3.48602 84.4853 3.04314C84.0425 2.60026 83.4418 2.35147 82.8155 2.35147C82.1892 2.35147 81.5885 2.60026 81.1456 3.04314C80.7027 3.48602 80.4539 4.08669 80.4539 4.71301V29.8217C80.44 30.1405 80.4907 30.4589 80.6031 30.7576C80.7154 31.0563 80.8871 31.3291 81.1078 31.5597C81.3285 31.7902 81.5935 31.9737 81.887 32.099C82.1805 32.2244 82.4963 32.2891 82.8155 32.2891C83.1346 32.2891 83.4504 32.2244 83.7439 32.099C84.0374 31.9737 84.3025 31.7902 84.5231 31.5597C84.7438 31.3291 84.9155 31.0563 85.0279 30.7576C85.1403 30.4589 85.191 30.1405 85.177 29.8217V4.71301V4.71301ZM98.1946 13.6272C98.1946 12.3229 97.1382 11.2634 95.8036 11.2634C95.1774 11.2638 94.5769 11.5128 94.1342 11.9558C93.6915 12.3987 93.4428 12.9994 93.4428 13.6256V25.1047C93.4428 26.4151 94.5008 27.4715 95.8036 27.4715C97.1382 27.4715 98.1946 26.4151 98.1946 25.1047V13.6256V13.6272ZM111.188 20.1413C111.188 19.5144 110.939 18.9131 110.496 18.4698C110.052 18.0265 109.451 17.7774 108.824 17.7774C108.197 17.7774 107.596 18.0265 107.153 18.4698C106.709 18.9131 106.46 19.5144 106.46 20.1413V25.1047C106.46 26.4151 107.52 27.473 108.824 27.473C110.127 27.473 111.187 26.4151 111.187 25.1047V20.1413H111.188Z" fill="#F2F2F2"/>
<path d="M108.457 56.8799V57.1761H107.614V59.3691H107.266V57.1777H106.42V56.8799H108.457V56.8799ZM108.634 56.8799H109.176L109.922 58.9218H109.934L110.655 56.8814H111.187V59.3691H110.831V57.3288H110.819L110.064 59.3691H109.736L108.998 57.3288H108.981V59.3691H108.634V56.8799V56.8799Z" fill="#F2F2F2"/>
</svg>
