<svg width="155" height="67" viewBox="0 0 155 67" fill="none" xmlns="http://www.w3.org/2000/svg">
<path d="M13.6036 15.5861C13.6036 15.5861 33.7389 6.72717 34.5104 6.20117V60.7391C34.5104 60.7391 22.2183 55.2023 17.3838 41.8585C12.5493 28.5147 13.6036 15.5861 13.6036 15.5861Z" fill="#F2F2F2"/>
<path d="M55.3399 15.5861C55.3399 15.5861 35.1789 6.72717 34.4075 6.20117V60.7391C34.4075 60.7391 46.7252 55.2023 51.5598 41.8585C56.3943 28.5147 55.3399 15.5861 55.3399 15.5861Z" fill="black"/>
<path d="M17.3837 41.8585C12.5234 28.5147 13.6035 15.5861 13.6035 15.5861C13.6035 15.5861 33.7388 6.72717 34.5103 6.20117" fill="#F2F2F2"/>
<path d="M22.321 32.6948V25.4139C22.321 20.1262 25.124 15.2537 29.6243 13.1221C31.1806 12.3872 32.8622 12.01 34.5617 12.0147V15.6967C33.022 15.5974 31.4879 15.9719 30.1386 16.7764C28.0299 18.1052 25.6898 20.7629 25.5612 24.9432C25.4326 29.1236 25.5612 29.7049 25.5612 29.7049L22.321 32.6948Z" fill="black"/>
<path d="M46.8024 32.6948V25.4139C46.8024 20.1262 43.9994 15.2537 39.4992 13.1221C37.9428 12.3872 36.2612 12.01 34.5618 12.0147V15.6967C36.1015 15.5958 37.6361 15.9704 38.9849 16.7764C41.0935 18.1052 43.4336 20.7629 43.5622 24.9432C43.6908 29.1236 43.5622 29.7049 43.5622 29.7049L46.8024 32.6948Z" fill="#F2F2F2"/>
<path d="M34.5361 42.0521C34.4078 42.0521 34.2807 42.0249 34.1621 41.972C34.0436 41.9192 33.9358 41.8417 33.8451 41.744C33.7544 41.6463 33.6824 41.5303 33.6333 41.4027C33.5842 41.2751 33.5589 41.1383 33.5589 41.0001V30.2309C33.5589 30.0928 33.5842 29.956 33.6333 29.8283C33.6824 29.7007 33.7544 29.5847 33.8451 29.4871C33.9358 29.3894 34.0436 29.3119 34.1621 29.259C34.2807 29.2061 34.4078 29.1789 34.5361 29.1789H34.5618V23.3652C31.0529 23.5294 27.7383 25.1456 25.3093 27.8767C22.8803 30.6078 21.5244 34.2429 21.5244 38.024C21.5244 41.8052 22.8803 45.4403 25.3093 48.1714C27.7383 50.9025 31.0529 52.5187 34.5618 52.6829V42.0521H34.5361Z" fill="black"/>
<path d="M34.5359 23.3652V29.1789C34.7951 29.1789 35.0436 29.2898 35.2269 29.4871C35.4101 29.6843 35.5131 29.9519 35.5131 30.2309V41.0001C35.5131 41.2791 35.4101 41.5467 35.2269 41.744C35.0436 41.9413 34.7951 42.0521 34.5359 42.0521V52.6829C38.0448 52.5187 41.3594 50.9025 43.7884 48.1714C46.2174 45.4403 47.5733 41.8052 47.5733 38.024C47.5733 34.2429 46.2174 30.6078 43.7884 27.8767C41.3594 25.1456 38.0448 23.5294 34.5359 23.3652Z" fill="#F2F2F2"/>
<path d="M67.2461 14.1737C67.2458 14.4292 67.2022 14.6825 67.1175 14.9212C67.019 15.1362 66.8888 15.3325 66.7318 15.5026C66.5784 15.6897 66.3839 15.8324 66.1661 15.9178C65.948 16.0221 65.7101 16.0695 65.4717 16.0563C65.1752 16.0689 64.8813 15.9922 64.6231 15.8348C64.3763 15.6742 64.1655 15.4567 64.006 15.198C63.8591 15.4729 63.6444 15.6986 63.3857 15.8501C63.1269 16.0015 62.8343 16.0729 62.5402 16.0563C62.3104 16.0662 62.0815 16.0189 61.8716 15.9178C61.6504 15.8396 61.4542 15.6957 61.3058 15.5026C61.1489 15.3325 61.0186 15.1362 60.9201 14.9212C60.8354 14.6825 60.7919 14.4292 60.7915 14.1737V11.959H61.383V14.2291C61.3774 14.3931 61.4129 14.5556 61.4858 14.6997C61.5319 14.8556 61.6112 14.9978 61.7173 15.115C61.8299 15.2238 61.9608 15.3084 62.103 15.3641C62.2368 15.4427 62.3879 15.4809 62.5402 15.4749C62.7007 15.4806 62.8599 15.4425 63.003 15.3641C63.1373 15.3078 63.2597 15.2231 63.3631 15.115C63.4851 15.007 63.5746 14.8625 63.6202 14.6997C63.6931 14.5556 63.7287 14.3931 63.7231 14.2291V11.959H64.3145V14.2291C64.309 14.3931 64.3445 14.5556 64.4174 14.6997C64.4635 14.8556 64.5428 14.9978 64.6488 15.115C64.7614 15.2238 64.8924 15.3084 65.0346 15.3641C65.1684 15.4427 65.3194 15.4809 65.4717 15.4749C65.6323 15.4806 65.7915 15.4425 65.9346 15.3641C66.0689 15.3078 66.1913 15.2231 66.2946 15.115C66.4167 15.007 66.5062 14.8625 66.5518 14.6997C66.6131 14.5511 66.648 14.3915 66.6547 14.2291V11.959H67.2461V14.1737Z" fill="#F2F2F2"/>
<path d="M71.4635 14.1749C71.4631 14.4304 71.4195 14.6837 71.3349 14.9224C71.2364 15.1457 71.1063 15.3512 70.9491 15.5314C70.7921 15.7076 70.5981 15.8405 70.3834 15.919C70.1653 16.0233 69.9274 16.0707 69.6891 16.0574C69.4593 16.0674 69.2305 16.02 69.0205 15.919C68.8058 15.8405 68.6117 15.7076 68.4547 15.5314C68.2976 15.3512 68.1674 15.1457 68.069 14.9224C67.9843 14.6837 67.9408 14.4304 67.9404 14.1749V13.7873C67.9435 13.5321 67.9869 13.2793 68.069 13.0399C68.1735 12.8203 68.3031 12.6157 68.4547 12.4308C68.6117 12.2546 68.8058 12.1217 69.0205 12.0432C69.2283 11.9327 69.4573 11.8758 69.6891 11.8771C69.9294 11.8735 70.1671 11.9304 70.3834 12.0432C70.5981 12.1217 70.7921 12.2546 70.9491 12.4308C71.1008 12.6157 71.2304 12.8203 71.3349 13.0399C71.4169 13.2793 71.4604 13.5321 71.4635 13.7873V14.1749ZM70.872 14.1749V13.7873C70.8773 13.6057 70.8421 13.4253 70.7691 13.2613C70.7249 13.1045 70.6455 12.9618 70.5378 12.8459C70.4302 12.73 70.2976 12.6445 70.152 12.5969C70.0101 12.5148 69.8499 12.4765 69.6891 12.4862C69.5368 12.4801 69.3858 12.5184 69.2519 12.5969C69.1062 12.6445 68.9737 12.73 68.866 12.8459C68.7584 12.9618 68.6789 13.1045 68.6347 13.2613C68.5618 13.4253 68.5266 13.6057 68.5319 13.7873V14.1749C68.5266 14.3566 68.5618 14.537 68.6347 14.7009C68.6789 14.8577 68.7584 15.0004 68.866 15.1163C68.9737 15.2322 69.1062 15.3178 69.2519 15.3653C69.3858 15.4438 69.5368 15.4821 69.6891 15.4761C69.8499 15.4858 70.0101 15.4474 70.152 15.3653C70.2976 15.3178 70.4302 15.2322 70.5378 15.1163C70.6455 15.0004 70.7249 14.8577 70.7691 14.7009C70.8421 14.537 70.8773 14.3566 70.872 14.1749V14.1749Z" fill="#F2F2F2"/>
<path d="M78.6126 16.0022H78.0211V13.7321C78.0267 13.5682 77.9912 13.4056 77.9182 13.2615C77.8741 13.1047 77.7946 12.962 77.687 12.8461C77.5793 12.7302 77.4468 12.6447 77.3011 12.5971C77.1672 12.5186 77.0162 12.4803 76.8639 12.4863C76.7034 12.4806 76.5442 12.5187 76.401 12.5971C76.2637 12.6467 76.14 12.7324 76.041 12.8462C75.924 12.9589 75.8355 13.1018 75.7839 13.2615C75.7109 13.4056 75.6754 13.5682 75.681 13.7321V16.0022H75.0895V13.7321C75.0951 13.5682 75.0596 13.4056 74.9867 13.2615C74.9425 13.1047 74.863 12.962 74.7554 12.8461C74.6477 12.7302 74.5152 12.6447 74.3695 12.5971C74.2357 12.5186 74.0846 12.4803 73.9323 12.4863C73.7718 12.4806 73.6126 12.5187 73.4695 12.5971C73.3352 12.6535 73.2128 12.7382 73.1094 12.8462C72.9924 12.9589 72.9039 13.1018 72.8523 13.2615C72.7794 13.4056 72.7438 13.5682 72.7494 13.7321V16.0022H72.158V13.7875C72.161 13.5323 72.2045 13.2795 72.2865 13.04C72.3911 12.8205 72.5206 12.6159 72.6723 12.431C72.8341 12.2614 73.0267 12.1294 73.238 12.0434C73.4543 11.9306 73.692 11.8737 73.9323 11.8773C74.2311 11.8745 74.5248 11.9607 74.7809 12.1265C75.0348 12.2891 75.247 12.5175 75.3981 12.7909C75.532 12.5129 75.7373 12.2823 75.9896 12.1265C76.2537 11.9571 76.5566 11.8708 76.8639 11.8773C77.0957 11.876 77.3247 11.9328 77.5325 12.0434C77.7472 12.1219 77.9413 12.2548 78.0983 12.431C78.2499 12.6159 78.3795 12.8205 78.484 13.04C78.5661 13.2795 78.6095 13.5323 78.6126 13.7875V16.0022Z" fill="#F2F2F2"/>
<path d="M82.8299 14.2856H79.8984C79.9137 14.4498 79.9573 14.6093 80.0269 14.7563C80.0823 14.9059 80.1705 15.0389 80.2841 15.1439C80.3781 15.2512 80.492 15.3361 80.6184 15.393C80.7669 15.4499 80.9236 15.478 81.0813 15.4761C81.2305 15.4777 81.3787 15.4495 81.5184 15.393C81.6601 15.3238 81.7903 15.2303 81.9042 15.1162L82.3156 15.5314C82.1586 15.7076 81.9646 15.8405 81.7499 15.919C81.5399 16.02 81.3111 16.0674 81.0813 16.0574C80.8429 16.0707 80.6051 16.0233 80.3869 15.919C80.1757 15.833 79.9831 15.7011 79.8212 15.5314C79.664 15.3512 79.5339 15.1457 79.4355 14.9224C79.3508 14.6837 79.3072 14.4304 79.3069 14.1749V13.7873C79.3099 13.5321 79.3534 13.2793 79.4355 13.0399C79.54 12.8203 79.6696 12.6157 79.8212 12.4308C79.9831 12.2612 80.1757 12.1292 80.3869 12.0432C80.6032 11.9304 80.841 11.8735 81.0813 11.8771C81.2471 11.8777 81.4119 11.9057 81.5699 11.9602C81.738 12.0093 81.8954 12.094 82.0328 12.2093C82.1837 12.2984 82.3152 12.4211 82.4185 12.5692C82.5361 12.7083 82.6317 12.8673 82.7014 13.0399C82.7596 13.1895 82.7944 13.3486 82.8042 13.5105C82.8256 13.6755 82.8342 13.8422 82.8299 14.0088V14.2856ZM82.2128 13.6766C82.2083 13.5367 82.1911 13.3976 82.1613 13.2613C82.0674 13.0358 81.9158 12.8438 81.7242 12.7076C81.5344 12.5682 81.311 12.4912 81.0813 12.4862C80.9236 12.4843 80.7669 12.5124 80.6184 12.5692C80.492 12.6261 80.3781 12.711 80.2841 12.8184C80.176 12.9286 80.0887 13.0602 80.0269 13.206C79.9573 13.3529 79.9137 13.5125 79.8984 13.6766H82.2128Z" fill="#F2F2F2"/>
<path d="M87.0729 16.0021H86.4814V13.732C86.4747 13.5695 86.4398 13.4099 86.3785 13.2613C86.3174 13.107 86.2302 12.9662 86.1214 12.8461C86.018 12.738 85.8956 12.6533 85.7614 12.5969C85.6175 12.5207 85.4588 12.4827 85.2985 12.4862C85.1462 12.4801 84.9952 12.5184 84.8613 12.5969C84.7165 12.6465 84.5844 12.7318 84.4756 12.8461C84.3753 12.9733 84.289 13.1127 84.2185 13.2613C84.166 13.4117 84.1398 13.5713 84.1413 13.732V16.0021H83.5498V13.7873C83.544 13.5352 83.5867 13.2846 83.6752 13.0511C83.7637 12.8177 83.8961 12.6065 84.0642 12.4308C84.2166 12.2618 84.4007 12.1297 84.6042 12.0432C84.8221 11.9357 85.0588 11.8791 85.2985 11.8771C85.5388 11.8735 85.7766 11.9304 85.9928 12.0432C86.2041 12.1292 86.3967 12.2612 86.5586 12.4308C86.7102 12.6157 86.8398 12.8203 86.9443 13.0399C87.0264 13.2793 87.0698 13.5321 87.0729 13.7873V16.0021Z" fill="#F2F2F2"/>
<path d="M91.6503 11.4337H91.0588V10.6309H91.6503V11.4337ZM91.6503 16.0016H91.0588V11.9597H91.6503V16.0016Z" fill="#F2F2F2"/>
<path d="M96.0477 16.0021H95.4306V13.732C95.4321 13.5713 95.4059 13.4117 95.3534 13.2613C95.2829 13.1127 95.1966 12.9733 95.0963 12.8461C94.9874 12.7318 94.8554 12.6465 94.7105 12.5969C94.5767 12.5184 94.4257 12.4801 94.2734 12.4862C94.1131 12.4827 93.9544 12.5207 93.8105 12.5969C93.6763 12.6533 93.5539 12.738 93.4505 12.8461C93.3417 12.9662 93.2545 13.107 93.1933 13.2613C93.1409 13.4117 93.1147 13.5713 93.1162 13.732V16.0021H92.499V13.7873C92.4984 13.5289 92.5511 13.2736 92.6533 13.0399C92.7303 12.8108 92.8531 12.6028 93.0131 12.4306C93.1731 12.2584 93.3663 12.1261 93.5791 12.0432C93.7953 11.9304 94.0331 11.8735 94.2734 11.8771C94.5131 11.8791 94.7498 11.9357 94.9677 12.0432C95.1712 12.1297 95.3553 12.2618 95.5077 12.4308C95.6757 12.6013 95.8074 12.8092 95.8934 13.0399C95.9957 13.2736 96.0484 13.5289 96.0477 13.7873V16.0021Z" fill="#F2F2F2"/>
<path d="M64.5976 20.1821C64.7703 20.3409 64.9117 20.5355 65.0133 20.7542C65.1149 20.973 65.1746 21.2115 65.189 21.4555H64.4947C64.4445 21.124 64.2902 20.8211 64.0575 20.5973C63.7807 20.3613 63.4329 20.2431 63.0803 20.2651C62.8512 20.2574 62.6234 20.3057 62.414 20.4064C62.2047 20.5071 62.0193 20.6576 61.8717 20.8465C61.5631 21.2341 61.4088 21.8431 61.4088 22.6183C61.3929 23.1859 61.5363 23.7454 61.8203 24.224C61.9661 24.431 62.1579 24.5953 62.3781 24.7017C62.5982 24.8082 62.8397 24.8533 63.0803 24.833C63.308 24.8443 63.5344 24.7915 63.7374 24.6798C63.9403 24.5682 64.1127 24.4015 64.2375 24.1963C64.4059 23.9324 64.5118 23.6283 64.5461 23.3104H65.2405C65.2003 23.8567 64.9922 24.373 64.649 24.7776C64.228 25.2118 63.6743 25.4654 63.0918 25.4909C62.5093 25.5164 61.9383 25.312 61.486 24.9161C60.9459 24.3901 60.6888 23.5872 60.6888 22.5075C60.6637 21.7806 60.8727 21.0667 61.2802 20.4866C61.4944 20.1969 61.769 19.9657 62.0818 19.8117C62.3946 19.6578 62.7367 19.5855 63.0803 19.6007C63.3566 19.5828 63.6333 19.625 63.894 19.7249C64.1547 19.8248 64.394 19.9803 64.5976 20.1821V20.1821Z" fill="#F2F2F2"/>
<path d="M65.7546 19.7666H66.5775L68.069 22.452L69.5605 19.7666H70.3834L68.4033 23.0887V25.3588H67.709V23.0887L65.7546 19.7666Z" fill="#F2F2F2"/>
<path d="M70.9492 19.7666H73.1865C73.8037 19.7666 74.2408 19.9604 74.498 20.348C74.6538 20.5816 74.735 20.8633 74.7294 21.1508C74.7391 21.4651 74.6381 21.7716 74.4465 22.009C74.3377 22.1555 74.1962 22.2698 74.0351 22.3412C74.2517 22.4197 74.4524 22.5418 74.6266 22.7011C74.7481 22.8365 74.8428 22.9972 74.9047 23.1733C74.9666 23.3495 74.9944 23.5373 74.9866 23.7254C74.9929 24.0823 74.8735 24.4285 74.6523 24.6944C74.3437 25.1373 73.8551 25.3588 73.1608 25.3588H70.9492V19.7666ZM72.9293 22.1198C73.1682 22.1443 73.4087 22.0963 73.6236 21.9813C73.756 21.9184 73.8668 21.8126 73.9406 21.6786C74.0144 21.5446 74.0474 21.3891 74.0351 21.2339C74.0483 21.0784 74.0123 20.9227 73.933 20.792C73.8536 20.6613 73.7355 20.5634 73.5979 20.5141C73.3766 20.4238 73.1398 20.3861 72.9036 20.4033H71.6435V22.1198H72.9293ZM73.1608 24.6944C73.3365 24.7142 73.514 24.6895 73.6792 24.6222C73.8445 24.5549 73.9928 24.4469 74.1122 24.3068C74.2175 24.1242 74.2711 23.9126 74.2665 23.6978C74.2821 23.5206 74.2426 23.3429 74.1541 23.1926C74.0657 23.0422 73.9334 22.9278 73.7779 22.8672C73.5485 22.7714 73.304 22.7244 73.0579 22.7288H71.6435V24.6944H73.1608Z" fill="#F2F2F2"/>
<path d="M75.8608 19.7666H79.641V20.4587H76.5552V22.1474H79.3839V22.7842H76.5552V24.6944H79.6925V25.3588H75.8608V19.7666Z" fill="#F2F2F2"/>
<path d="M80.6956 19.7668H83.0614C83.3884 19.7479 83.7148 19.8144 84.0129 19.9606C84.5014 20.1821 84.7329 20.625 84.7329 21.2618C84.7537 21.5396 84.6961 21.8178 84.5676 22.0599C84.4392 22.3019 84.2458 22.4965 84.0129 22.6183C84.192 22.6824 84.3518 22.7972 84.4757 22.9505C84.5968 23.1668 84.6508 23.4188 84.63 23.6703V24.4178C84.6557 24.6116 84.6557 24.7777 84.6814 24.8884C84.6971 24.9578 84.7256 25.023 84.7654 25.0801C84.8052 25.1373 84.8554 25.1851 84.9129 25.2206V25.359H84.09L84.0129 25.1653C84.0129 25.0822 83.9871 24.9438 83.9871 24.7223L83.9357 23.781C83.9506 23.6359 83.9241 23.4893 83.8598 23.3608C83.7955 23.2322 83.6964 23.1278 83.5757 23.0612C83.3819 22.9691 83.1696 22.931 82.9585 22.9505H81.4156V25.359H80.6956V19.7668ZM82.9842 22.3138C83.2535 22.3328 83.522 22.2654 83.7557 22.12C83.8565 22.0242 83.9348 21.9039 83.9839 21.7691C84.0331 21.6343 84.0518 21.4889 84.0386 21.3448C84.0543 21.1818 84.0233 21.0175 83.9498 20.8739C83.8762 20.7304 83.7636 20.6146 83.6271 20.542C83.4618 20.4447 83.2754 20.3969 83.0871 20.4036H81.4156V22.3138H82.9842Z" fill="#F2F2F2"/>
<path d="M86.3014 23.5595C86.3108 23.832 86.3814 24.098 86.5071 24.3347C86.7385 24.6946 87.1242 24.8884 87.69 24.8884C87.9273 24.888 88.1626 24.8411 88.3843 24.7499C88.7957 24.5838 89.0015 24.307 89.0015 23.9194C89.0076 23.795 88.9877 23.6707 88.9432 23.5556C88.8987 23.4406 88.8307 23.3379 88.7443 23.255C88.4821 23.1121 88.2062 23.0007 87.9214 22.9228L87.2271 22.7567C86.9014 22.6959 86.588 22.5741 86.3014 22.3968C86.1404 22.284 86.0103 22.1271 85.9244 21.9422C85.8385 21.7573 85.8 21.5511 85.8128 21.3448C85.8068 21.1141 85.8447 20.8845 85.9243 20.6703C86.0039 20.456 86.1235 20.2616 86.2756 20.099C86.6528 19.7712 87.1286 19.6037 87.6128 19.6284C88.0959 19.6137 88.5715 19.7586 88.9758 20.0436C89.1616 20.2052 89.308 20.4133 89.4022 20.6497C89.4963 20.8862 89.5353 21.1438 89.5158 21.4001H88.8729C88.8527 21.1518 88.773 20.9133 88.6415 20.708C88.4357 20.4312 88.1014 20.2928 87.6128 20.2928C87.4573 20.2744 87.3 20.2894 87.1499 20.3369C86.9998 20.3844 86.86 20.4635 86.7385 20.5696C86.6541 20.6483 86.5872 20.7463 86.5427 20.8565C86.4982 20.9667 86.4772 21.0863 86.4814 21.2064C86.4757 21.3286 86.5015 21.4502 86.5559 21.5577C86.6104 21.6652 86.6914 21.7543 86.7899 21.8154C87.0844 21.9613 87.3958 22.0638 87.7157 22.1199L88.41 22.286C88.689 22.3687 88.9569 22.4896 89.2072 22.6459C89.361 22.7834 89.4829 22.9575 89.5632 23.1546C89.6436 23.3516 89.6802 23.5661 89.6701 23.781C89.6701 24.4085 89.4643 24.8514 89.0529 25.1098C88.6301 25.3961 88.1378 25.5406 87.6385 25.5251C87.1019 25.5509 86.5768 25.3525 86.1728 24.9714C85.9921 24.7931 85.8501 24.5742 85.7568 24.3302C85.6634 24.0862 85.6211 23.8231 85.6327 23.5595H86.3014Z" fill="#F2F2F2"/>
<path d="M90.7246 19.7666H94.5048V20.4587H91.4189V22.1474H94.2733V22.7842H91.4189V24.6944H94.5562V25.3588H90.7246V19.7666Z" fill="#F2F2F2"/>
<path d="M99.1591 20.1818C99.3319 20.3406 99.4732 20.5352 99.5748 20.7539C99.6764 20.9727 99.7362 21.2112 99.7506 21.4553H99.082C99.0254 21.1033 98.8494 20.7865 98.588 20.5665C98.3266 20.3465 97.9985 20.239 97.6676 20.2648C97.4344 20.2549 97.2022 20.3021 96.9884 20.4028C96.7746 20.5035 96.5848 20.6551 96.4333 20.8462C96.1247 21.2338 95.9704 21.8428 95.9704 22.618C95.9499 23.1902 96.1033 23.754 96.4076 24.2237C96.5477 24.4305 96.7347 24.5951 96.9509 24.7017C97.167 24.8083 97.4049 24.8535 97.6419 24.8327C97.8696 24.844 98.096 24.7912 98.2989 24.6795C98.5018 24.5679 98.6742 24.4012 98.7991 24.196C98.9651 23.9281 99.0788 23.6267 99.1334 23.3101H99.802C99.7619 23.8564 99.5538 24.3727 99.2106 24.7774C98.9993 25.0161 98.7433 25.2037 98.4596 25.3278C98.1758 25.4519 97.8708 25.5096 97.5648 25.4971C97.0095 25.5128 96.4687 25.3056 96.0475 24.9158C95.5332 24.3898 95.2503 23.5869 95.2503 22.5073C95.2214 21.7753 95.4407 21.057 95.8675 20.4863C96.0791 20.2004 96.3495 19.9715 96.6575 19.8178C96.9655 19.664 97.3026 19.5896 97.6419 19.6004C97.9183 19.5809 98.1954 19.6224 98.4563 19.7223C98.7172 19.8223 98.9564 19.9787 99.1591 20.1818V20.1818Z" fill="#F2F2F2"/>
<path d="M101.474 19.7666V23.2271C101.466 23.5724 101.537 23.9144 101.679 24.2238C101.787 24.4257 101.945 24.5904 102.137 24.6983C102.328 24.8062 102.544 24.8529 102.76 24.8328C103.342 24.8328 103.754 24.6113 103.994 24.1684C104.108 23.8705 104.161 23.5492 104.148 23.2271V19.7666H104.868V22.8949C104.897 23.4442 104.809 23.9933 104.611 24.5006C104.302 25.165 103.685 25.4972 102.811 25.4972C101.937 25.4972 101.345 25.165 101.037 24.5006C100.839 23.9933 100.751 23.4442 100.779 22.8949V19.7666H101.474Z" fill="#F2F2F2"/>
<path d="M106.025 19.7659H108.391C108.718 19.7502 109.044 19.8165 109.343 19.9597C109.831 20.1812 110.063 20.6242 110.063 21.2609C110.064 21.5491 110.003 21.8337 109.883 22.0914C109.748 22.3145 109.562 22.4958 109.343 22.6174C109.511 22.688 109.662 22.802 109.78 22.9496C109.91 23.1626 109.973 23.4149 109.96 23.6694V24.4169C109.96 24.5754 109.977 24.7334 110.011 24.8875C110.063 25.0536 110.114 25.1644 110.243 25.2197V25.3582H109.368C109.348 25.2947 109.331 25.23 109.317 25.1644C109.291 25.0185 109.282 24.8696 109.291 24.7214L109.24 23.7802C109.214 23.4203 109.111 23.1711 108.88 23.0604C108.686 22.9682 108.474 22.9301 108.263 22.9496H106.72V25.3582H106.025V19.7659ZM108.314 22.3129C108.575 22.3315 108.835 22.2639 109.06 22.1191C109.164 22.0264 109.245 21.9066 109.294 21.7709C109.344 21.6353 109.361 21.4884 109.343 21.3439C109.357 21.1843 109.329 21.0236 109.26 20.8811C109.192 20.7386 109.086 20.6205 108.957 20.5411C108.782 20.444 108.588 20.3964 108.391 20.4027H106.72V22.3129H108.314Z" fill="#F2F2F2"/>
<path d="M111.323 19.7666H112.043V25.3588H111.323V19.7666Z" fill="#F2F2F2"/>
<path d="M116.954 19.7666V20.431H115.206V25.3588H114.486V20.431H112.737V19.7666H116.954Z" fill="#F2F2F2"/>
<path d="M117.186 19.7666H118.009L119.5 22.452L120.992 19.7666H121.815L119.86 23.0887V25.3588H119.166V23.0887L117.186 19.7666Z" fill="#F2F2F2"/>
<path d="M52.2539 30.5912H61.3572V34.1625H58.6571L62.0515 46.8696L67.4775 32.806L69.4319 32.8614L74.935 46.8696L78.2524 34.2179H75.2179V30.3975H84.5012V34.2179H82.2126L76.3237 55.2579H74.1893L68.4547 40.2807L62.5659 55.3133H60.3286L54.4397 34.3286H52.2539V30.5912Z" fill="#F2F2F2"/>
<path d="M81.3384 40.8343L80.4897 44.3225H82.6756C82.6756 44.3225 80.8241 51.7142 81.1841 52.7662C81.5441 53.8182 81.5955 55.2855 84.9643 55.1471C88.333 55.0087 88.693 50.5238 88.693 50.5238L87.1244 49.804C87.1244 49.804 86.5072 52.1295 85.4786 52.434C84.45 52.7386 85.8643 47.3401 86.5586 44.1841L87.3815 40.8066L81.3384 40.8343Z" fill="#F2F2F2"/>
<path d="M85.8642 39.3385C87.0998 39.3385 88.1014 38.2602 88.1014 36.93C88.1014 35.5998 87.0998 34.5215 85.8642 34.5215C84.6286 34.5215 83.627 35.5998 83.627 36.93C83.627 38.2602 84.6286 39.3385 85.8642 39.3385Z" fill="#F2F2F2"/>
<path d="M106.128 48.2258C105.178 49.4649 103.925 50.3932 102.511 50.9057C101.096 51.4181 99.5768 51.4943 98.1242 51.1255C96.6716 50.7568 95.3439 49.9578 94.2912 48.819C93.2384 47.6802 92.5026 46.247 92.167 44.6815C91.8315 43.116 91.9095 41.4807 92.3922 39.9604C92.875 38.4401 93.7433 37.0956 94.8988 36.0789C96.0544 35.0622 97.4512 34.4139 98.9312 34.2072C100.411 34.0006 101.915 34.2439 103.274 34.9096C103.23 35.0902 103.213 35.277 103.222 35.4633C103.22 36.0251 103.36 36.5769 103.627 37.0598C103.894 37.5426 104.277 37.9384 104.737 38.2048C105.196 38.4712 105.714 38.5981 106.235 38.5722C106.757 38.5462 107.262 38.3682 107.696 38.0573C108.131 37.7464 108.479 37.3141 108.703 36.8068C108.927 36.2995 109.019 35.7361 108.969 35.1769C108.919 34.6177 108.729 34.0837 108.418 33.6319C108.108 33.1801 107.69 32.8275 107.208 32.6118C104.637 30.6463 103.351 29.8711 99.8792 29.8711C97.8554 29.8694 95.864 30.4172 94.089 31.4637C92.314 32.5102 90.8128 34.0216 89.7243 35.8583C88.6357 37.6949 87.995 39.7974 87.8613 41.9713C87.7276 44.1452 88.1052 46.3203 88.9593 48.2955C89.8134 50.2706 91.1164 51.9819 92.7477 53.2712C94.379 54.5606 96.286 55.3862 98.2923 55.6718C100.299 55.9573 102.339 55.6937 104.226 54.9051C106.112 54.1165 107.784 52.8286 109.085 51.1603L106.128 48.2258Z" fill="#F2F2F2"/>
<path d="M105.331 40.8894V44.433H106.694L111.323 53.901C111.323 53.901 110.757 56.2265 109.651 56.3649C109.651 56.3649 108.16 54.1225 106.565 56.6418C106.565 56.6418 106.077 58.7458 107.98 59.3548C109.883 59.9639 112.171 59.6871 113.791 56.1712C115.412 52.6553 118.96 44.0178 118.96 44.0178H120.503V40.6957H113.894V44.0178H115.566L113.226 50.136L110.628 44.1008H112.249V40.7233C112.249 40.7233 106.025 40.751 105.382 40.668C105.357 40.668 105.331 40.8618 105.331 40.8894Z" fill="#F2F2F2"/>
<path d="M130.069 34.3011C130.069 34.3011 129.324 37.6232 131.381 37.9278C133.438 38.2323 134.57 37.1803 134.621 35.5746C134.672 33.9689 133.284 30.2869 128.295 30.1762C123.306 30.0654 119.372 32.7231 119.552 36.8481C119.732 40.973 121.686 42.8833 126.649 44.7935C131.612 46.7037 131.021 51.4377 127.292 51.8806C123.563 52.3236 123.332 50.8563 123.332 50.8563C123.332 50.8563 124.746 47.2297 120.915 46.9805C117.083 46.7314 117.674 52.7665 120.195 53.7078C122.715 54.6491 124.283 56.3378 128.295 55.7564C132.307 55.1751 134.878 52.4343 134.878 49.3337C134.878 46.233 133.978 42.1912 126.469 40.2256C118.96 38.26 125.055 31.8926 130.069 34.3011Z" fill="#F2F2F2"/>
</svg>
