<svg width="119" height="37" viewBox="0 0 119 37" fill="none" xmlns="http://www.w3.org/2000/svg">
<path d="M5.56299 35.1138L5.56299 1.90332H4.30805L4.30805 35.1138H5.56299Z" fill="#F2F2F2"/>
<path d="M115.273 35.2193V2.00879H114.018V35.2193H115.273Z" fill="#F2F2F2"/>
<path d="M41.6588 11.2108H38.8125V18.7201H41.6588C42.9265 18.7637 44.1696 18.4249 45.1519 17.7682C45.6574 17.4242 46.0515 16.9837 46.2997 16.4857C46.5479 15.9877 46.6424 15.4475 46.575 14.9126C46.657 14.3922 46.5685 13.8634 46.3184 13.3803C46.0684 12.8971 45.6658 12.4769 45.1519 12.1627C44.1696 11.506 42.9265 11.1672 41.6588 11.2108Z" fill="#F2F2F2"/>
<path d="M17.7244 21.4693H25.7456L21.735 13.96L17.7244 21.4693Z" fill="#F2F2F2"/>
<path d="M4.65747 2.96094V34.4792H115.273V2.96094H4.65747ZM30.2737 29.0851L27.1687 24.0084H16.1719L13.3256 29.0851H9.7031L21.735 7.72041L33.8962 29.0851H30.2737ZM48.3863 18.1912C47.6659 19.0509 46.6852 19.7433 45.54 20.2008C44.3471 20.7195 43.0093 20.9747 41.6587 20.9412H38.8125V29.0851H35.4487V8.88383H41.6587C43.0093 8.85027 44.3471 9.10547 45.54 9.62419C46.7162 10.0928 47.7038 10.8268 48.3863 11.7395C49.0902 12.6963 49.449 13.7962 49.4213 14.9125C49.4333 16.0606 49.0764 17.1912 48.3863 18.1912V18.1912ZM66.1106 15.4413L59.3831 29.5082L49.0331 8.77807H52.9144L59.5125 22.6334L65.9813 8.77807L73.485 22.5276L80.2125 8.77807H83.4469L73.2263 29.5082L66.1106 15.4413ZM107.252 22.8449C106.736 24.1125 105.948 25.2945 104.923 26.3352C103.825 27.3083 102.507 28.0984 101.042 28.6621C99.4545 29.2386 97.7331 29.5272 95.9963 29.5082C94.2708 29.539 92.5553 29.2873 90.9507 28.7678C89.3899 28.2817 87.9773 27.5238 86.8106 26.5468C85.6443 25.5738 84.7215 24.4242 84.0938 23.1622C83.458 21.8136 83.1504 20.3766 83.1881 18.9316C83.1504 17.4866 83.458 16.0496 84.0938 14.701C84.7215 13.4391 85.6443 12.2894 86.8106 11.3165C87.9773 10.3394 89.3899 9.5815 90.9507 9.09536C92.5553 8.57592 94.2708 8.32419 95.9963 8.355C97.4476 8.30701 98.8968 8.48652 100.266 8.88383C101.521 9.16728 102.705 9.63301 103.759 10.2588C104.795 10.9652 105.709 11.7836 106.476 12.6914L104.276 14.3837C103.494 13.2531 102.325 12.3341 100.913 11.7395C99.4032 11.0776 97.7085 10.7494 95.9963 10.7876C94.2776 10.8134 92.5916 11.1761 91.08 11.8453C89.6107 12.5879 88.4066 13.6338 87.5889 14.8779C86.7713 16.1219 86.369 17.5201 86.4225 18.9316C86.3753 20.4117 86.8226 21.8744 87.7163 23.1622C88.5238 24.3315 89.6812 25.3141 91.08 26.0179C92.6011 26.6543 94.2877 26.9808 95.9963 26.9698C97.1393 26.9919 98.278 26.8487 99.36 26.5468C100.292 26.2266 101.163 25.7993 101.948 25.2776C102.65 24.7357 103.221 24.0897 103.629 23.3738C104.161 22.7009 104.514 21.9442 104.664 21.1527H96.3844V18.8258H108.028C108.033 20.1908 107.771 21.5477 107.252 22.8449V22.8449Z" fill="#F2F2F2"/>
<path d="M116.826 2.85453V1.79688H1.81128V2.85453H4.14003V34.5843H1.81128V35.5362H116.826V34.5843H115.661V2.85453H116.826ZM114.497 34.5843H5.43378V2.85453H114.497V34.5843Z" fill="#F2F2F2"/>
</svg>
