<svg width="88" height="71" viewBox="0 0 88 71" fill="none" xmlns="http://www.w3.org/2000/svg">
<path d="M20.6708 35.5087C30.2523 35.5087 38.0196 28.074 38.0196 18.9028C38.0196 9.73159 30.2523 2.29688 20.6708 2.29688C11.0893 2.29688 3.32202 9.73159 3.32202 18.9028C3.32202 28.074 11.0893 35.5087 20.6708 35.5087Z" stroke="#F2F2F2" stroke-width="0.184562" stroke-miterlimit="10"/>
<path d="M43.5566 67.8369H86.9286L55.3686 15.7227L35.6205 48.7578L35.0668 32.8585C33.5194 34.777 31.5343 36.3314 29.2631 37.4031C26.992 38.4747 24.495 39.0351 21.9629 39.0416V67.8369H39.1271L55.184 42.0448L63.4893 55.4708H50.57L43.5566 67.8369Z" fill="#F2F2F2"/>
<path d="M5.35229 31.7988V67.6605H19.0099V39.0418C16.3035 38.9265 13.6619 38.2125 11.2923 36.9558C8.92265 35.6991 6.88948 33.934 5.35229 31.7988V31.7988Z" fill="#F2F2F2"/>
<path d="M16.6105 35.3316C13.6665 31.6951 11.8158 27.3582 11.2582 22.7888C9.96626 14.8392 16.6105 4.94629 16.6105 4.94629C16.6105 4.94629 25.1003 33.565 25.2849 34.9782" stroke="#F2F2F2" stroke-width="0.184562" stroke-miterlimit="10"/>
<path d="M33.0363 30.5622C33.0363 30.5622 34.882 18.5495 26.2076 10.7765C20.6707 5.83004 16.6104 4.94675 16.6104 4.94675C16.6104 4.94675 33.0363 4.41677 38.0195 16.6062" stroke="#F2F2F2" stroke-width="0.184562" stroke-miterlimit="10"/>
<path d="M6.82861 9.00922C9.41248 5.47605 16.6104 4.94607 16.6104 4.94607C16.6104 4.94607 16.4258 3.17949 16.7949 2.82617" stroke="#F2F2F2" stroke-width="0.184562" stroke-miterlimit="10"/>
<path d="M20.6708 2.29688C19.0277 2.68252 17.5857 3.62363 16.6104 4.94675C16.6104 4.94675 14.2111 3.53348 12.7346 4.24012" stroke="#F2F2F2" stroke-width="0.184562" stroke-miterlimit="10"/>
<path d="M4.98315 25.969C4.98315 25.969 15.3186 30.5621 23.4393 28.4422C31.56 26.3223 37.466 22.6125 38.0197 17.666" stroke="#F2F2F2" stroke-width="0.184562" stroke-miterlimit="10"/>
<path d="M3.32202 18.9017C3.32202 18.9017 12.3655 25.6147 23.0701 22.0815C33.7747 18.5484 35.9894 10.7754 35.9894 10.7754" stroke="#F2F2F2" stroke-width="0.184562" stroke-miterlimit="10"/>
<path d="M4.98315 11.8363C4.98315 11.8363 9.78176 17.8426 20.1172 15.5461C30.4527 13.2495 29.7144 4.94657 29.7144 4.94657C27.5926 4.16447 25.3436 3.74589 23.0702 3.70996C18.4521 3.75649 14.0397 5.54517 10.7914 8.68748C7.54305 11.8298 5.72114 16.0719 5.7214 20.4925C5.74911 23.1309 6.43322 25.7249 7.71705 28.0597C9.00089 30.3946 10.8475 32.403 13.1039 33.9186" stroke="#F2F2F2" stroke-width="0.184562" stroke-miterlimit="10"/>
<path d="M10.1509 31.976C10.1509 31.976 20.3018 34.2726 26.7614 31.6227C30.8179 29.8761 34.413 27.2802 37.2814 24.0264" stroke="#F2F2F2" stroke-width="0.184562" stroke-miterlimit="10"/>
<path d="M64.2274 21.5525C65.8583 21.5525 67.1804 20.287 67.1804 18.726C67.1804 17.1649 65.8583 15.8994 64.2274 15.8994C62.5965 15.8994 61.2744 17.1649 61.2744 18.726C61.2744 20.287 62.5965 21.5525 64.2274 21.5525Z" stroke="#F2F2F2" stroke-width="0.184562" stroke-miterlimit="10"/>
</svg>
