<svg width="110" height="111" viewBox="0 0 110 111" fill="none" xmlns="http://www.w3.org/2000/svg">
<path d="M6.24237 56.0388C5.38195 55.1743 5.38195 53.7674 6.24237 52.903C7.10279 52.0385 8.50308 52.0385 9.3635 52.903C9.93711 53.4793 10.1564 54.3268 9.92024 55.1065C9.90337 55.1574 9.92024 55.2082 9.95398 55.2421L11.0337 56.327C11.0843 56.3778 11.1687 56.3778 11.2193 56.327C11.2362 56.31 11.2362 56.31 11.253 56.2931C12.2653 54.3776 11.5399 52.0046 9.63343 50.9875C7.72701 49.9705 5.36508 50.6994 4.35282 52.6148C3.34056 54.5302 4.06601 56.9033 5.97243 57.9203C7.11966 58.5305 8.48621 58.5305 9.63343 57.9203C9.70092 57.8864 9.71779 57.8017 9.68405 57.7338C9.68405 57.7169 9.66717 57.7169 9.6503 57.6999L8.55369 56.6151C8.51995 56.5812 8.46934 56.5643 8.41872 56.5812C7.65953 56.8355 6.81598 56.6151 6.24237 56.0388Z" fill="#F2F2F2"/>
<path d="M6.2591 61.2932C7.11952 60.4288 8.51982 60.4288 9.38024 61.2932C10.2407 62.1577 10.2407 63.5646 9.38024 64.4291C8.80662 65.0054 7.96307 65.2257 7.18701 64.9884C7.1364 64.9715 7.08578 64.9884 7.05204 65.0223L5.9723 66.1072C5.92169 66.158 5.92169 66.2428 5.9723 66.3106C5.98917 66.3275 5.98917 66.3275 6.00604 66.3275C7.91246 67.3446 10.2744 66.6157 11.2867 64.7003C12.2989 62.7849 11.5735 60.4118 9.66705 59.3948C7.76062 58.3777 5.39868 59.1066 4.38642 61.022C3.77907 62.1747 3.77907 63.5477 4.38642 64.7003C4.42017 64.7681 4.50452 64.785 4.57201 64.7511C4.58888 64.7511 4.58888 64.7342 4.60575 64.7172L5.68549 63.6324C5.71923 63.5985 5.7361 63.5476 5.71923 63.4968C5.46617 62.7171 5.68549 61.8695 6.2591 61.2932Z" fill="#F2F2F2"/>
<path d="M16.2129 65.074C14.9981 65.074 14.0028 64.0908 14.0028 62.8704C14.0028 61.65 14.9813 60.6499 16.196 60.6499C17.0058 60.6499 17.765 61.0906 18.1361 61.8195C18.153 61.8703 18.2036 61.8873 18.2542 61.8873H19.7895C19.8739 61.8873 19.9245 61.8195 19.9245 61.7517C19.9245 61.7347 19.9245 61.7178 19.9245 61.7178C19.3002 59.6498 17.107 58.4802 15.0488 59.1243C12.9905 59.7685 11.8264 61.9551 12.4675 64.023C13.0917 66.091 15.2849 67.2606 17.3432 66.6165C18.5748 66.2266 19.5533 65.2604 19.9245 64.023C19.9413 63.9552 19.9076 63.8705 19.8232 63.8535C19.8064 63.8535 19.8064 63.8535 19.7895 63.8535H18.2542C18.2036 63.8535 18.153 63.8874 18.1361 63.9213C17.765 64.6333 17.0227 65.074 16.2129 65.074Z" fill="#F2F2F2"/>
<path d="M14.0028 54.4791C14.0028 53.2587 14.9813 52.2586 16.196 52.2586C17.4107 52.2586 18.4061 53.2418 18.4061 54.4622C18.4061 55.2758 17.9674 56.0216 17.242 56.4115C17.1914 56.4285 17.1745 56.4793 17.1745 56.5302V58.0727C17.1745 58.1405 17.242 58.2083 17.3095 58.2083C17.3263 58.2083 17.3432 58.2083 17.3432 58.2083C19.4014 57.5811 20.5655 55.3775 19.9244 53.3096C19.3002 51.2416 17.107 50.072 15.0487 50.7161C12.9905 51.3603 11.8264 53.5469 12.4675 55.6148C12.8555 56.8522 13.8172 57.8353 15.0487 58.2083C15.1162 58.2252 15.2006 58.1913 15.2175 58.1066C15.2175 58.0896 15.2175 58.0727 15.2175 58.0727V56.5302C15.2175 56.4793 15.1837 56.4285 15.15 56.4115C14.4583 56.0386 14.0028 55.2928 14.0028 54.4791Z" fill="#F2F2F2"/>
<path d="M10.0045 46.0882C10.0045 47.3086 9.02595 48.3087 7.79437 48.3087C6.57966 48.3087 5.58427 47.3256 5.58427 46.0882C5.58427 45.2746 6.02292 44.5287 6.74837 44.1389C6.79898 44.1219 6.81585 44.0711 6.81585 44.0202V42.4777C6.81585 42.4099 6.76524 42.3421 6.68088 42.3421C6.66401 42.3421 6.64714 42.3421 6.64714 42.3421C4.58889 42.9693 3.42479 45.1729 4.06589 47.2408C4.69011 49.3088 6.88334 50.4783 8.94159 49.8342C10.9999 49.1901 12.1639 47.0035 11.5229 44.9355C11.1348 43.6982 10.1732 42.715 8.94159 42.3421C8.87411 42.3252 8.78976 42.3591 8.77288 42.4438C8.77288 42.4608 8.77288 42.4608 8.77288 42.4777V44.0202C8.77288 44.0711 8.80663 44.1219 8.84037 44.1389C9.56582 44.5287 10.0045 45.2746 10.0045 46.0882Z" fill="#F2F2F2"/>
<path d="M26.167 61.2936C27.0274 62.1581 27.0274 63.565 26.167 64.4295C25.3066 65.294 23.9063 65.294 23.0458 64.4295C22.4722 63.8532 22.2529 63.0056 22.4891 62.2259C22.506 62.1751 22.4891 62.1242 22.4554 62.0903L21.3756 60.9885C21.325 60.9377 21.2406 60.9377 21.1732 60.9885C21.1563 61.0055 21.1563 61.0055 21.1563 61.0224C20.144 62.9378 20.8695 65.3109 22.7759 66.3279C24.6823 67.345 27.0443 66.6161 28.0565 64.7007C29.0688 62.7853 28.3433 60.4122 26.4369 59.3952C25.2897 58.7849 23.9231 58.7849 22.7759 59.3952C22.7084 59.4291 22.6915 59.5138 22.7253 59.5816C22.7253 59.5986 22.7422 59.5986 22.759 59.6155L23.8388 60.7004C23.8725 60.7343 23.9231 60.7512 23.9737 60.7343C24.7498 60.5139 25.5934 60.7173 26.167 61.2936Z" fill="#F2F2F2"/>
<path d="M26.167 56.0385C25.3066 56.903 23.9063 56.903 23.0459 56.0385C22.1854 55.174 22.1854 53.7671 23.0459 52.9026C23.6195 52.3263 24.463 52.1059 25.2391 52.3433C25.2897 52.3602 25.3403 52.3433 25.374 52.3094L26.4538 51.2245C26.5044 51.1737 26.5044 51.072 26.4538 51.0211C26.4538 51.0211 26.4369 51.0041 26.42 51.0041C24.5136 49.9871 22.1517 50.716 21.1394 52.6314C20.1272 54.5468 20.8526 56.9199 22.7591 57.937C24.6655 58.954 27.0274 58.2251 28.0397 56.3097C28.647 55.1571 28.647 53.7841 28.0397 52.6314C28.0059 52.5636 27.9216 52.5297 27.8541 52.5806C27.8372 52.5806 27.8372 52.5975 27.8203 52.5975L26.7406 53.6824C26.7069 53.7163 26.69 53.7671 26.7069 53.818C26.943 54.6146 26.7406 55.4622 26.167 56.0385Z" fill="#F2F2F2"/>
<path d="M24.6482 48.3093C23.4334 48.3093 22.4381 47.3262 22.4381 46.1058C22.4381 44.8853 23.4166 43.8852 24.6313 43.8852C25.4411 43.8852 26.1834 44.326 26.5715 45.0548C26.5883 45.1057 26.6389 45.1226 26.6895 45.1226H28.2248C28.3092 45.1226 28.3598 45.0548 28.3598 44.987C28.3598 44.9701 28.3598 44.9701 28.3598 44.9531C27.7355 42.8852 25.5423 41.7156 23.4841 42.3597C21.4258 42.9869 20.2617 45.1904 20.9028 47.2584C21.527 49.3264 23.7203 50.496 25.7785 49.8519C27.0101 49.462 27.9886 48.4958 28.3598 47.2584C28.3766 47.1906 28.3429 47.1059 28.2585 47.0889C28.2417 47.0889 28.2417 47.0889 28.2248 47.0889H26.7064C26.6558 47.0889 26.6052 47.1228 26.5883 47.1567C26.2003 47.8517 25.458 48.2924 24.6482 48.3093Z" fill="#F2F2F2"/>
<path d="M14.6607 44.5296C15.5211 43.6651 16.9214 43.6651 17.7818 44.5296C18.6423 45.394 18.6423 46.8009 17.7818 47.6654C17.2082 48.2417 16.3647 48.4621 15.5886 48.2248C15.538 48.2078 15.4874 48.2248 15.4536 48.2587L14.3739 49.3435C14.3233 49.3944 14.3233 49.4791 14.3739 49.53C14.3908 49.5469 14.3908 49.5469 14.4076 49.5639C16.3141 50.5809 18.676 49.8521 19.6883 47.9366C20.7005 46.0212 19.9751 43.6481 18.0686 42.6311C16.1622 41.6141 13.8003 42.3429 12.788 44.2584C12.1807 45.411 12.1807 46.784 12.788 47.9366C12.8218 48.0044 12.9061 48.0214 12.9736 47.9875C12.9905 47.9875 12.9905 47.9705 13.0074 47.9705L14.0871 46.8857C14.1208 46.8518 14.1377 46.8009 14.1208 46.7501C13.8678 45.9534 14.0871 45.1059 14.6607 44.5296Z" fill="#F2F2F2"/>
<path d="M36.5762 46.7845C36.5762 46.5472 36.7786 46.3607 37.0148 46.3438H39.1575C39.3936 46.3607 39.5792 46.5472 39.5961 46.7845V62.1078C39.5961 62.3451 39.3936 62.5485 39.1575 62.5485H37.0148C36.7786 62.5316 36.593 62.3451 36.5762 62.1078V46.7845Z" fill="#F2F2F2"/>
<path d="M43.1899 60.2944L44.0166 58.8536C44.1684 58.5993 44.4889 58.5146 44.742 58.6671C44.7589 58.6841 44.7757 58.6841 44.7926 58.701C44.9107 58.7688 46.7834 60.1418 48.268 60.1418C49.4659 60.1418 50.36 59.3621 50.36 58.362C50.36 57.1755 49.3647 56.3618 47.4245 55.5821C45.2819 54.7007 43.1055 53.3107 43.1055 50.5817C43.1055 48.5137 44.6239 46.1406 48.2849 46.1406C49.9383 46.1745 51.5579 46.7169 52.8907 47.7001C53.1269 47.8865 53.1944 48.2086 53.0257 48.4629L52.1484 49.785C51.9628 50.0562 51.6254 50.2427 51.3386 50.0562C51.153 49.9376 49.3984 48.7849 48.1331 48.7849C46.8171 48.7849 46.1086 49.6664 46.1086 50.4122C46.1086 51.497 46.969 52.2428 48.8416 53.0056C51.0686 53.904 53.6667 55.2431 53.6667 58.2434C53.6667 60.6334 51.6085 62.837 48.3693 62.837C45.4675 62.837 43.7635 61.464 43.2911 61.0233C43.1055 60.769 42.9874 60.6673 43.1899 60.2944Z" fill="#F2F2F2"/>
<path d="M54.7464 61.9547L61.9166 46.3772C61.9841 46.2246 62.1359 46.1229 62.3046 46.1229H62.5408C62.7095 46.106 62.8614 46.2077 62.9288 46.3772L70.0315 61.9547C70.1327 62.1581 70.0653 62.4124 69.8628 62.5141C69.7953 62.548 69.711 62.5649 69.6435 62.5649H67.6358C67.3322 62.5819 67.0622 62.3954 66.961 62.1073L65.8306 59.6155H58.9473L57.8169 62.1073C57.7157 62.3954 57.4458 62.5819 57.1421 62.5649H55.1344C54.9151 62.5819 54.7127 62.4124 54.6958 62.192C54.6958 62.1073 54.7127 62.0225 54.7464 61.9547ZM64.7172 57.0221L62.4058 51.92H62.3384L60.0776 57.0221H64.7172Z" fill="#F2F2F2"/>
<path d="M79.2597 46.1234C81.3348 46.0726 83.3424 46.8523 84.844 48.2762C85.0295 48.4287 85.0633 48.6999 84.9114 48.8864C84.8946 48.9033 84.8777 48.9203 84.8777 48.9372L83.4774 50.395C83.3593 50.5475 83.1231 50.5814 82.9544 50.4628C82.9375 50.4458 82.9038 50.4289 82.8869 50.395C81.9084 49.5305 80.6431 49.0389 79.344 49.022C76.3916 49.022 74.1984 51.5137 74.1984 54.4123C74.1984 57.3108 76.4085 59.7686 79.3609 59.7686C80.66 59.7517 81.9084 59.294 82.8869 58.4465C83.0556 58.2939 83.2918 58.2939 83.4605 58.4465L84.8946 59.9382C85.0633 60.1246 85.0464 60.3958 84.8777 60.5653C83.3762 62.0231 81.3685 62.8367 79.2765 62.8028C74.6876 62.8876 70.9085 59.2093 70.841 54.6157C70.7567 50.0051 74.4177 46.2082 78.9897 46.1404C79.0741 46.1234 79.1584 46.1234 79.2597 46.1234Z" fill="#F2F2F2"/>
<path d="M86.1263 61.9547L93.2965 46.3772C93.3639 46.2246 93.5158 46.1229 93.6845 46.1229H93.9207C94.0894 46.106 94.2412 46.2077 94.3087 46.3772L101.411 61.9547C101.513 62.1581 101.445 62.3954 101.243 62.5141C101.175 62.548 101.091 62.5649 101.006 62.5649H98.9988C98.6951 62.5819 98.4252 62.3954 98.3409 62.1073L97.2105 59.6155H90.3103L89.18 62.1073C89.0787 62.3954 88.8088 62.5819 88.5051 62.5649H86.4975C86.2782 62.5819 86.0757 62.4124 86.0588 62.192C86.0757 62.1073 86.0926 62.0225 86.1263 61.9547ZM96.0802 57.0221L93.7688 51.92H93.7014L91.4407 57.0221H96.0802Z" fill="#F2F2F2"/>
<path d="M103.757 59.9883C104.516 59.9883 105.123 60.5985 105.123 61.3613C105.123 62.124 104.516 62.7343 103.757 62.7343C102.997 62.7343 102.39 62.124 102.39 61.3613C102.407 60.5985 103.014 59.9883 103.757 59.9883ZM103.757 62.497C104.381 62.497 104.887 61.9884 104.887 61.3613C104.887 60.7341 104.381 60.2256 103.757 60.2256C103.132 60.2256 102.626 60.7341 102.626 61.3613C102.626 61.9884 103.132 62.497 103.757 62.497ZM103.284 60.7341C103.284 60.7002 103.318 60.6663 103.352 60.6663H103.892C104.128 60.6493 104.33 60.8189 104.364 61.0562C104.364 61.0731 104.364 61.0731 104.364 61.0901C104.381 61.2935 104.246 61.463 104.06 61.5138C104.145 61.6664 104.212 61.8189 104.296 61.9545C104.313 61.9884 104.296 62.0393 104.263 62.0562C104.246 62.0562 104.246 62.0562 104.229 62.0562H104.094C104.06 62.0562 104.043 62.0223 104.027 62.0054L103.807 61.5308H103.52V61.9884C103.52 62.0223 103.487 62.0562 103.453 62.0562H103.352C103.318 62.0562 103.284 62.0223 103.284 61.9884V60.7341ZM103.892 61.3104C104.01 61.3104 104.111 61.2257 104.111 61.107V61.0901C104.111 60.9714 104.027 60.8697 103.908 60.8697C103.892 60.8697 103.892 60.8697 103.875 60.8697H103.504V61.3104H103.892Z" fill="#F2F2F2"/>
</svg>
