<svg width="88" height="88" viewBox="0 0 88 88" fill="none" xmlns="http://www.w3.org/2000/svg">
<g clip-path="url(#clip0_3731_857)">
<path d="M29.1497 81.2485L29.3765 81.3335L28.753 83.0614L28.5262 82.9764L29.1497 81.2485Z" fill="#F2F2F2"/>
<path d="M25.6903 79.7823L25.9071 79.893L26.1067 81.5841L26.7308 80.3135L26.9476 80.4243L26.1378 82.0731L25.921 81.9624L25.7219 80.2644L25.0951 81.5407L24.8805 81.4311L25.6903 79.7823Z" fill="#F2F2F2"/>
<path d="M20.0371 78.5941L20.5276 78.9226L21.4146 77.546L21.6148 77.6801L20.7279 79.0567L21.2174 79.3846L21.1094 79.5522L19.9291 78.7616L20.0371 78.5941Z" fill="#F2F2F2"/>
<path d="M16.8762 75.2224L17.4843 75.7378L17.8962 75.2325L17.1898 74.6339L17.3151 74.4802L18.2065 75.2356L17.0444 76.6612L16.1626 75.9139L16.2887 75.7592L16.9855 76.3497L17.359 75.8915L16.7509 75.3761L16.8762 75.2224Z" fill="#F2F2F2"/>
<path d="M13.7598 72.257L14.0545 72.5749L14.5919 72.0569L14.7582 72.2363L13.4296 73.5167L13.0143 73.0688C12.873 72.9163 12.7985 72.7664 12.7908 72.6189C12.7826 72.4709 12.8436 72.3341 12.9737 72.2086C13.0565 72.1289 13.1498 72.0824 13.2538 72.069C13.3571 72.055 13.4617 72.0739 13.5673 72.1258L13.8366 71.2645L13.8475 71.2539L14.025 71.4454L13.7598 72.257ZM13.9112 72.713L13.657 72.4388C13.5749 72.3502 13.4872 72.3015 13.3939 72.2929C13.3001 72.2836 13.2155 72.3153 13.14 72.388C13.0579 72.4672 13.0182 72.5529 13.0209 72.6453C13.0231 72.7371 13.0675 72.8304 13.1542 72.9252L13.4075 73.1984L13.9112 72.713Z" fill="#F2F2F2"/>
<path d="M10.6583 67.4718L10.8001 67.6703L10.2 69.2702L11.3388 68.4244L11.4807 68.6229L10.0029 69.7205L9.86102 69.5219L10.4647 67.9163L9.32084 68.7658L9.18047 68.5693L10.6583 67.4718Z" fill="#F2F2F2"/>
<path d="M7.24052 63.0487L7.59676 63.7365L8.10163 63.6622L8.21726 63.8855L6.26467 64.1351L6.16655 63.9457L7.46915 62.4411L7.5842 62.6632L7.24052 63.0487ZM7.38623 63.7662L7.09715 63.2081L6.48059 63.8977L7.38623 63.7662Z" fill="#F2F2F2"/>
<path d="M4.11972 58.7471L4.33346 59.2975L5.85201 58.6845L5.93924 58.9091L4.42069 59.5221L4.63396 60.0714L4.44911 60.146L3.93488 58.8217L4.11972 58.7471Z" fill="#F2F2F2"/>
<path d="M4.41189 54.9477L4.47987 55.1802L2.7223 55.7144L2.65432 55.4819L4.41189 54.9477Z" fill="#F2F2F2"/>
<path d="M2.64268 51.4649C2.81949 51.4312 2.97945 51.4315 3.12257 51.4658C3.26487 51.5003 3.38074 51.5656 3.47019 51.6615C3.55963 51.7575 3.61771 51.8783 3.64444 52.0239C3.67056 52.1662 3.65901 52.2989 3.60981 52.4222C3.55978 52.5456 3.47594 52.6503 3.35829 52.7361C3.23966 52.8212 3.0954 52.8809 2.9255 52.915L2.79538 52.9398C2.62188 52.9729 2.46308 52.972 2.31897 52.937C2.17487 52.902 2.05761 52.8361 1.96719 52.7395C1.87579 52.6422 1.81703 52.5224 1.79091 52.3801C1.76434 52.2353 1.77607 52.1012 1.8261 51.9778C1.87515 51.8537 1.96072 51.7492 2.08281 51.6643C2.20407 51.5795 2.35269 51.5203 2.52866 51.4867L2.64268 51.4649ZM2.56969 51.7242C2.35571 51.765 2.1996 51.8393 2.10138 51.9471C2.00233 52.0551 1.967 52.1864 1.9954 52.3411C2.02303 52.4917 2.10224 52.5994 2.23303 52.6644C2.36283 52.7287 2.52959 52.7427 2.73329 52.7064L2.86589 52.681C3.07327 52.6415 3.22847 52.5669 3.3315 52.4573C3.43355 52.3471 3.47053 52.2155 3.44243 52.0624C3.41419 51.9085 3.33656 51.8001 3.20953 51.737C3.08168 51.674 2.91302 51.6612 2.70353 51.6987L2.56969 51.7242Z" fill="#F2F2F2"/>
<path d="M2.6526 45.1479L2.66216 45.3914L1.28291 46.374L2.69844 46.3163L2.70799 46.5598L0.871084 46.6347L0.861531 46.3912L2.24699 45.4058L0.82515 45.4638L0.815696 45.2229L2.6526 45.1479Z" fill="#F2F2F2"/>
<path d="M2.31186 39.4946L2.23295 40.2602L2.69192 40.4832L2.66631 40.7317L0.91173 39.8382L0.933464 39.6273L2.83203 39.124L2.80654 39.3713L2.31186 39.4946ZM2.04225 40.1661L2.10628 39.5449L1.21991 39.7646L2.04225 40.1661Z" fill="#F2F2F2"/>
<path d="M3.17501 34.8297L3.37159 33.9844L3.56352 34.0308L3.31196 35.1126L1.53198 34.6822L1.58697 34.4458L3.17501 34.8297Z" fill="#F2F2F2"/>
<path d="M4.99488 27.5237L4.69787 28.2337L5.07081 28.5844L4.9744 28.8148L3.56057 27.4351L3.64237 27.2396L5.59813 27.3239L5.50221 27.5532L4.99488 27.5237ZM4.54331 28.0867L4.78432 27.5106L3.87567 27.4566L4.54331 28.0867Z" fill="#F2F2F2"/>
<path d="M6.81877 22.8197C6.66529 22.9689 6.52807 23.0627 6.4071 23.1008C6.28583 23.1379 6.17049 23.124 6.06108 23.0591C5.93729 22.9857 5.86347 22.8753 5.83964 22.728C5.8155 22.5795 5.84903 22.4253 5.94021 22.2653C6.00238 22.1563 6.07858 22.0717 6.16882 22.0114C6.25947 21.9503 6.35477 21.9183 6.45471 21.9153C6.55506 21.9116 6.64879 21.9356 6.73588 21.9872L6.61589 22.1976C6.52088 22.1413 6.42898 22.1277 6.34018 22.1567C6.25067 22.1853 6.1742 22.2553 6.11079 22.3665C6.05194 22.4697 6.0286 22.5638 6.04079 22.6488C6.05267 22.7327 6.09856 22.7983 6.17845 22.8457C6.24251 22.8837 6.3124 22.8886 6.38811 22.8605C6.46351 22.8313 6.55707 22.7618 6.6688 22.652C6.78094 22.5415 6.88046 22.4624 6.96736 22.4147C7.05395 22.3659 7.13692 22.3411 7.21624 22.3405C7.29599 22.3391 7.37581 22.3622 7.4557 22.4095C7.5831 22.485 7.6567 22.5958 7.67652 22.7417C7.69562 22.8873 7.6573 23.044 7.56156 23.2119C7.49939 23.3209 7.42085 23.4105 7.32594 23.4807C7.23032 23.5504 7.1318 23.5898 7.0304 23.5987C6.92941 23.6069 6.83322 23.5839 6.74181 23.5297L6.86179 23.3193C6.9568 23.3756 7.05212 23.385 7.14774 23.3473C7.24306 23.3085 7.3245 23.2299 7.39205 23.1114C7.45505 23.0009 7.48103 22.903 7.46997 22.8177C7.45892 22.7324 7.41488 22.6669 7.33787 22.6212C7.26086 22.5756 7.18593 22.5676 7.1131 22.5974C7.03955 22.6267 6.94144 22.7008 6.81877 22.8197Z" fill="#F2F2F2"/>
<path d="M9.1786 18.864C9.00867 18.9958 8.8612 19.074 8.73617 19.0986C8.61097 19.1219 8.49741 19.095 8.39549 19.0178C8.28015 18.9305 8.21886 18.8118 8.2116 18.6618C8.20417 18.5106 8.25492 18.3602 8.36387 18.2106C8.43815 18.1087 8.5237 18.0326 8.62054 17.9825C8.71786 17.9317 8.81657 17.9105 8.91666 17.9188C9.01724 17.9264 9.1081 17.9609 9.18924 18.0223L9.04588 18.2192C8.95736 18.1521 8.86716 18.1281 8.77528 18.1472C8.68272 18.1657 8.59855 18.227 8.52279 18.331C8.45247 18.4275 8.41862 18.519 8.42125 18.6053C8.4237 18.6905 8.46215 18.7613 8.53658 18.8177C8.59625 18.8629 8.66545 18.8757 8.74417 18.8562C8.8227 18.8355 8.92389 18.7766 9.04772 18.6794C9.17205 18.5816 9.28025 18.5137 9.37234 18.4759C9.46424 18.4368 9.54982 18.4214 9.62907 18.4298C9.70882 18.4374 9.78591 18.4694 9.86034 18.5258C9.97903 18.6156 10.0401 18.7346 10.0435 18.8828C10.0462 19.0304 9.9904 19.1828 9.87601 19.3398C9.80172 19.4418 9.71328 19.5225 9.61069 19.582C9.50742 19.6409 9.40468 19.6691 9.30246 19.6666C9.20074 19.6634 9.1073 19.6296 9.02214 19.5651L9.16551 19.3683C9.25402 19.4353 9.34811 19.4554 9.44778 19.4285C9.54727 19.4005 9.63737 19.3311 9.71809 19.2203C9.79336 19.1169 9.83027 19.022 9.8288 18.9354C9.82734 18.8489 9.79074 18.7784 9.71899 18.7241C9.64724 18.6698 9.57335 18.6534 9.49732 18.6749C9.42061 18.696 9.31437 18.759 9.1786 18.864Z" fill="#F2F2F2"/>
<path d="M12.6832 14.3969C12.8111 14.5236 12.9019 14.6563 12.9556 14.7949C13.0088 14.9329 13.0222 15.0669 12.9957 15.197C12.9692 15.3271 12.9049 15.4457 12.8028 15.5528C12.7029 15.6575 12.5893 15.7254 12.4619 15.7566C12.3339 15.7873 12.2019 15.7789 12.0658 15.7315C11.9296 15.683 11.7994 15.5983 11.6752 15.4776L11.5812 15.3843C11.4557 15.2599 11.3661 15.1279 11.3123 14.9881C11.2586 14.8483 11.2449 14.7128 11.2713 14.5815C11.2978 14.449 11.3609 14.3304 11.4607 14.2257C11.5623 14.1192 11.6771 14.0506 11.8051 14.02C11.933 13.9882 12.066 13.9981 12.204 14.0496C12.3413 14.1005 12.4736 14.189 12.6008 14.3152L12.6832 14.3969ZM12.4327 14.4878C12.278 14.3344 12.1293 14.2485 11.9865 14.2301C11.8431 14.2111 11.7171 14.2585 11.6086 14.3723C11.5029 14.4831 11.4611 14.6116 11.4832 14.7578C11.5052 14.9028 11.5889 15.0491 11.734 15.1966L11.8299 15.2916C11.9798 15.4403 12.1283 15.5253 12.2752 15.5467C12.4222 15.5668 12.5493 15.5206 12.6567 15.408C12.7647 15.2948 12.808 15.1672 12.7866 15.0251C12.7645 14.8825 12.6788 14.7354 12.5295 14.5837L12.4327 14.4878Z" fill="#F2F2F2"/>
<path d="M17.2777 10.4459C17.3769 10.6146 17.411 10.7784 17.3799 10.9375C17.3489 11.0954 17.2549 11.2362 17.0979 11.3598C16.9278 11.4938 16.7443 11.5394 16.5477 11.4966C16.3517 11.4533 16.1751 11.3279 16.018 11.1204L15.9116 10.9798C15.8087 10.844 15.742 10.7058 15.7114 10.5654C15.6815 10.4244 15.6896 10.2919 15.7358 10.168C15.7815 10.0434 15.862 9.93564 15.9774 9.84476C16.1305 9.72428 16.2861 9.67119 16.4443 9.68549C16.6021 9.69912 16.7465 9.7766 16.8778 9.91791L16.6868 10.0682C16.5821 9.96478 16.4823 9.90876 16.3874 9.90018C16.2931 9.89108 16.1965 9.92548 16.0976 10.0034C15.9762 10.0989 15.9153 10.2195 15.915 10.365C15.9153 10.51 15.9791 10.6665 16.1063 10.8345L16.2135 10.9761C16.3336 11.1347 16.4618 11.2351 16.5981 11.2774C16.7343 11.3197 16.8612 11.2946 16.9786 11.2022C17.0841 11.1191 17.1467 11.0314 17.1663 10.9391C17.186 10.8456 17.1595 10.7313 17.0867 10.5963L17.2777 10.4459Z" fill="#F2F2F2"/>
<path d="M20.8616 8.50373L20.6568 8.63392L19.6968 7.0641L19.9016 6.93392L20.8616 8.50373Z" fill="#F2F2F2"/>
<path d="M23.3634 6.34357L22.6786 6.69475L22.7369 7.20358L22.5146 7.31757L22.3261 5.35004L22.5147 5.25332L23.9527 6.5801L23.7315 6.69351L23.3634 6.34357ZM22.6555 6.48258L23.2112 6.19761L22.5527 5.56984L22.6555 6.48258Z" fill="#F2F2F2"/>
<path d="M27.642 3.08853L27.0903 3.29885L27.6541 4.83637L27.4289 4.92221L26.8651 3.38469L26.3146 3.59457L26.246 3.40741L27.5734 2.90137L27.642 3.08853Z" fill="#F2F2F2"/>
<path d="M31.5174 3.58362L31.2845 3.64995L30.7993 1.87821L31.0323 1.81188L31.5174 3.58362Z" fill="#F2F2F2"/>
<path d="M34.979 1.81586C35.0085 1.99342 35.0044 2.15374 34.9667 2.29679C34.9289 2.43901 34.8611 2.55441 34.7632 2.64298C34.6654 2.73155 34.5435 2.78841 34.3976 2.81357C34.2551 2.83815 34.1229 2.8251 34.0011 2.77441C33.8792 2.72289 33.7768 2.6377 33.694 2.51884C33.6119 2.399 33.5558 2.25376 33.5258 2.08311L33.5041 1.95242C33.4752 1.77817 33.4799 1.61904 33.5183 1.47501C33.5566 1.33098 33.6251 1.2142 33.7236 1.12466C33.8228 1.03414 33.9437 0.976595 34.0863 0.952009C34.2313 0.926994 34.3648 0.940246 34.4868 0.991765C34.6094 1.04231 34.7116 1.12923 34.7935 1.25253C34.8752 1.375 34.9307 1.52461 34.96 1.70135L34.979 1.81586ZM34.7221 1.73981C34.6865 1.5249 34.6161 1.36763 34.5109 1.26799C34.4055 1.16752 34.2754 1.13065 34.1204 1.15738C33.9695 1.18339 33.8601 1.26157 33.7922 1.39192C33.725 1.52129 33.7071 1.68825 33.7385 1.8928L33.7606 2.02598C33.7951 2.23425 33.8658 2.39062 33.9727 2.4951C34.0802 2.5986 34.2107 2.63713 34.364 2.61069C34.5182 2.5841 34.6282 2.50751 34.6942 2.38091C34.76 2.25348 34.7768 2.08459 34.7444 1.87423L34.7221 1.73981Z" fill="#F2F2F2"/>
<path d="M41.0112 1.96881L40.7678 1.97358L39.8165 0.57636L39.8432 1.99168L39.5997 1.99645L39.5651 0.159809L39.8086 0.155042L40.7625 1.55852L40.7357 0.136891L40.9766 0.132175L41.0112 1.96881Z" fill="#F2F2F2"/>
<path d="M48.6857 1.69391L47.9256 1.5656L47.7956 2.36636L47.5567 2.32604L47.8511 0.512822L48.9732 0.702233L48.9413 0.898997L48.058 0.749904L47.9573 1.37009L48.7174 1.49839L48.6857 1.69391Z" fill="#F2F2F2"/>
<path d="M53.647 2.55231C53.5953 2.72472 53.5213 2.86637 53.4248 2.97726C53.3286 3.08733 53.2173 3.15969 53.091 3.19432C52.9647 3.22896 52.8309 3.22425 52.6896 3.18019C52.5515 3.13714 52.4392 3.06513 52.3527 2.96416C52.2664 2.86239 52.2124 2.7394 52.1907 2.59519C52.17 2.45043 52.1837 2.29482 52.2319 2.12835L52.2699 2.00146C52.3207 1.83227 52.3948 1.69195 52.4923 1.58052C52.5898 1.46908 52.7022 1.39576 52.8296 1.36057C52.9579 1.32483 53.0912 1.32848 53.2293 1.37154C53.3698 1.41534 53.4832 1.48813 53.5695 1.5899C53.6568 1.69112 53.7099 1.8156 53.7288 1.96333C53.748 2.11026 53.7318 2.26953 53.6804 2.44113L53.647 2.55231ZM53.451 2.367C53.5136 2.15833 53.5198 1.98539 53.4696 1.84818C53.4197 1.71016 53.3197 1.61775 53.1695 1.57094C53.0234 1.52538 52.8913 1.54545 52.7734 1.63116C52.6566 1.71631 52.5673 1.8576 52.5054 2.05504L52.4666 2.18435C52.406 2.38657 52.4005 2.55883 52.45 2.70113C52.5006 2.84287 52.6001 2.9369 52.7487 2.98321C52.898 3.02977 53.03 3.01143 53.1445 2.9282C53.2592 2.84416 53.3484 2.7006 53.4119 2.49752L53.451 2.367Z" fill="#F2F2F2"/>
<path d="M58.7415 4.56792L58.3502 4.38378L58.0431 5.06229L57.8223 4.95838L58.5815 3.28112L59.133 3.54063C59.3206 3.62893 59.4453 3.73978 59.5071 3.87317C59.5696 4.00693 59.5636 4.15598 59.4892 4.32032C59.442 4.42477 59.3726 4.50249 59.281 4.5535C59.1902 4.60486 59.0862 4.62623 58.9689 4.61761L59.0379 5.51366L59.0316 5.52748L58.7959 5.41657L58.7415 4.56792ZM58.4321 4.20292L58.7696 4.36176C58.8787 4.41309 58.9781 4.42541 59.0679 4.39873C59.1585 4.37241 59.2253 4.31164 59.2684 4.21641C59.3154 4.11273 59.3204 4.01871 59.2837 3.93434C59.2477 3.85033 59.1719 3.78066 59.0563 3.72534L58.7199 3.56704L58.4321 4.20292Z" fill="#F2F2F2"/>
<path d="M65.4879 8.5564C65.3601 8.70361 65.2171 8.78596 65.0588 8.80347C64.9016 8.82077 64.7415 8.77162 64.5784 8.65602C64.4016 8.53071 64.3035 8.36597 64.2841 8.1618C64.2654 7.95812 64.3294 7.74871 64.4761 7.53356L64.5755 7.38782C64.6715 7.24693 64.7806 7.14054 64.9029 7.06863C65.0257 6.9972 65.1522 6.96534 65.2821 6.97303C65.4125 6.98002 65.5377 7.02602 65.6576 7.11102C65.8166 7.2237 65.9133 7.35915 65.9478 7.51737C65.9827 7.6749 65.9538 7.83872 65.8612 8.00882L65.6628 7.86821C65.728 7.7353 65.7503 7.62139 65.7296 7.52645C65.7097 7.43201 65.6483 7.34836 65.5455 7.2755C65.4194 7.18613 65.2882 7.16314 65.1519 7.20653C65.0163 7.2504 64.8891 7.35944 64.7703 7.53364L64.6702 7.68042C64.5581 7.84491 64.5028 7.99977 64.5044 8.14502C64.506 8.29027 64.5678 8.40612 64.6898 8.49258C64.7995 8.57029 64.9005 8.6048 64.9928 8.59612C65.0862 8.58722 65.1852 8.52712 65.2895 8.41579L65.4879 8.5564Z" fill="#F2F2F2"/>
<path d="M69.1913 11.2454L68.8744 10.9525L68.3806 11.5078L68.2018 11.3425L69.4225 9.96982L69.8691 10.3826C70.021 10.5231 70.1064 10.6662 70.1253 10.812C70.1449 10.9583 70.0948 11.0987 69.9752 11.2332C69.8992 11.3187 69.8101 11.3721 69.708 11.3933C69.6064 11.4151 69.5012 11.4043 69.3924 11.3609L69.1911 12.2365L69.181 12.2478L68.9902 12.0714L69.1913 11.2454ZM69.0061 10.8045L69.2793 11.0571C69.3677 11.1388 69.4584 11.1804 69.5517 11.1818C69.6455 11.1838 69.7271 11.1459 69.7964 11.0679C69.8719 10.9831 69.9047 10.8949 69.8949 10.8034C69.8858 10.7125 69.8345 10.6233 69.7412 10.5359L69.4689 10.2841L69.0061 10.8045Z" fill="#F2F2F2"/>
<path d="M72.8521 14.4602L73.8537 14.215L74.0318 14.4247L72.7584 14.7045L72.2449 15.158L72.0881 14.9734L72.6016 14.5199L73.0549 13.2747L73.2346 13.4862L72.8521 14.4602Z" fill="#F2F2F2"/>
<path d="M75.6469 18.2082L75.0543 18.6157L74.9207 18.4137L76.4342 17.3728L76.808 17.9378C76.919 18.1055 76.9635 18.2657 76.9416 18.4186C76.9201 18.5721 76.8398 18.6968 76.7005 18.7926C76.5535 18.8936 76.4094 18.9249 76.2679 18.8864C76.1277 18.8482 76.0002 18.7424 75.8856 18.5691L75.6469 18.2082ZM75.8101 18.096L76.0502 18.459C76.1217 18.567 76.2014 18.6326 76.2893 18.6558C76.378 18.6786 76.4698 18.6573 76.5647 18.592C76.6548 18.53 76.7079 18.4517 76.7239 18.357C76.7399 18.2623 76.7157 18.1641 76.6514 18.0623L76.4036 17.6877L75.8101 18.096Z" fill="#F2F2F2"/>
<path d="M79.4515 22.8956L79.184 22.3679L77.7326 23.1328L77.6234 22.9175L79.0749 22.1526L78.808 21.6261L78.9847 21.533L79.6282 22.8024L79.4515 22.8956Z" fill="#F2F2F2"/>
<path d="M80.7563 27.5349C80.5878 27.5981 80.4303 27.6249 80.2837 27.6152C80.1379 27.6052 80.0131 27.5604 79.9093 27.4808C79.8055 27.4012 79.7284 27.2917 79.6782 27.1525C79.6291 27.0164 79.6186 26.8834 79.6468 26.7533C79.6758 26.623 79.7411 26.5055 79.8428 26.4009C79.9456 26.2967 80.0779 26.2134 80.2395 26.151L80.3635 26.1045C80.5289 26.0424 80.6854 26.0165 80.8331 26.0267C80.9807 26.0369 81.107 26.082 81.2119 26.1621C81.3178 26.2428 81.3954 26.3511 81.4445 26.4872C81.4945 26.6256 81.505 26.76 81.476 26.8904C81.4481 27.0212 81.381 27.1389 81.2748 27.2434C81.1693 27.3476 81.0328 27.4312 80.865 27.4941L80.7563 27.5349ZM80.7856 27.2666C80.9895 27.1901 81.131 27.0903 81.21 26.9672C81.2898 26.8439 81.303 26.7082 81.2496 26.5603C81.1976 26.4163 81.1019 26.3233 80.9625 26.2813C80.8241 26.2398 80.6576 26.2542 80.4631 26.3245L80.3367 26.3719C80.139 26.4461 79.9984 26.5459 79.915 26.6715C79.8327 26.7977 79.8179 26.9339 79.8707 27.0803C79.9238 27.2274 80.0181 27.3214 80.1535 27.3622C80.2897 27.4027 80.4579 27.3868 80.658 27.3144L80.7856 27.2666Z" fill="#F2F2F2"/>
<path d="M81.5766 32.5575L81.7659 33.4072L81.5729 33.4519L81.3306 32.3645L83.1202 31.95L83.1732 32.1877L81.5766 32.5575Z" fill="#F2F2F2"/>
<path d="M83.2499 37.5786C83.0708 37.5971 82.9114 37.5832 82.7715 37.5368C82.6325 37.4903 82.5223 37.4154 82.441 37.3122C82.3598 37.209 82.3118 37.0838 82.2971 36.9365C82.2828 36.7925 82.3052 36.6613 82.3644 36.5427C82.4244 36.424 82.5166 36.3269 82.6409 36.2515C82.7662 36.1768 82.9149 36.1297 83.0871 36.1101L83.2189 36.0965C83.3945 36.0783 83.5528 36.0928 83.6936 36.1399C83.8344 36.1871 83.9458 36.2626 84.028 36.3666C84.1112 36.4713 84.1599 36.5956 84.1742 36.7395C84.1888 36.886 84.1661 37.0186 84.1061 37.1373C84.047 37.2567 83.9531 37.3535 83.8244 37.4277C83.6965 37.5019 83.5435 37.5481 83.3653 37.5666L83.2499 37.5786ZM83.3439 37.3266C83.5606 37.3041 83.7224 37.2434 83.8291 37.1444C83.9368 37.0453 83.9828 36.9175 83.9672 36.761C83.952 36.6087 83.8819 36.4946 83.7568 36.4187C83.6327 36.3437 83.4676 36.3155 83.2616 36.3343L83.1273 36.3482C82.9173 36.37 82.7564 36.431 82.6447 36.5314C82.5339 36.6325 82.4862 36.7605 82.5017 36.9153C82.5172 37.071 82.5856 37.1857 82.7071 37.2593C82.8294 37.3329 82.9965 37.36 83.2084 37.3406L83.3439 37.3266Z" fill="#F2F2F2"/>
<path d="M82.846 43.8261C82.7598 43.7597 82.6971 43.6695 82.6577 43.5556C82.6192 43.4426 82.6033 43.3121 82.6101 43.1643C82.6171 43.0147 82.6581 42.8836 82.7332 42.771C82.8091 42.6585 82.9132 42.5734 83.0456 42.5158C83.1779 42.459 83.3293 42.4338 83.4999 42.4403L83.66 42.448C83.9364 42.4613 84.1477 42.5359 84.2938 42.6718C84.4398 42.8085 84.5075 42.9936 84.4967 43.2272C84.4878 43.4188 84.4315 43.5706 84.3278 43.6826C84.225 43.7947 84.0831 43.8595 83.9021 43.8769L83.9133 43.6349C84.1582 43.6012 84.2862 43.4625 84.2975 43.2189C84.305 43.0567 84.2536 42.9309 84.1432 42.8414C84.0336 42.7527 83.8709 42.7028 83.655 42.6916L83.5051 42.6844C83.2992 42.6745 83.1332 42.7136 83.0071 42.8019C82.8817 42.8902 82.8154 43.0146 82.8079 43.175C82.8037 43.2658 82.8102 43.3457 82.8272 43.4147C82.8442 43.4837 82.8756 43.5416 82.9214 43.5885L83.3335 43.6083L83.3532 43.1836L83.5498 43.193L83.519 43.8585L82.846 43.8261Z" fill="#F2F2F2"/>
<path d="M82.3453 48.4354L82.3805 48.1957L84.1965 48.4724L84.1613 48.7121L82.3453 48.4354Z" fill="#F2F2F2"/>
<path d="M82.2967 52.0875C82.1138 52.0176 81.9854 51.9107 81.9114 51.767C81.8381 51.6242 81.8252 51.4556 81.8728 51.2612C81.9243 51.0504 82.0411 50.9004 82.223 50.8113C82.4048 50.723 82.6221 50.711 82.8748 50.7752L83.0459 50.8187C83.2114 50.8608 83.3497 50.9272 83.4609 51.018C83.5718 51.1095 83.6475 51.2181 83.6877 51.3438C83.7288 51.4696 83.7319 51.6041 83.6969 51.747C83.6506 51.9366 83.5604 52.0751 83.4265 52.1625C83.2933 52.2502 83.1311 52.2797 82.9399 52.251L82.9977 52.0145C83.1446 52.0301 83.2582 52.0117 83.3385 51.9592C83.4187 51.9076 83.4738 51.8205 83.5037 51.6979C83.5405 51.5476 83.5139 51.4154 83.424 51.3015C83.3339 51.1883 83.1866 51.1057 82.982 51.0537L82.8096 51.0099C82.6164 50.9608 82.4528 50.9622 82.3189 51.014C82.185 51.0659 82.1003 51.1646 82.0647 51.31C82.0328 51.4407 82.0376 51.5483 82.0794 51.6326C82.1217 51.718 82.2134 51.7908 82.3545 51.851L82.2967 52.0875Z" fill="#F2F2F2"/>
<path d="M80.2106 58.7148L80.3846 58.3199L79.709 58.0104L79.8072 57.7876L81.4772 58.5528L81.232 59.1093C81.1485 59.2986 81.0416 59.4244 80.9111 59.4868C80.7804 59.5499 80.6332 59.544 80.4696 59.469C80.3656 59.4213 80.2875 59.3513 80.2354 59.259C80.1829 59.1674 80.1598 59.0625 80.166 58.9441L79.2831 59.0141L79.2694 59.0078L79.3742 58.77L80.2106 58.7148ZM80.5647 58.4024L80.4146 58.743C80.366 58.8531 80.3558 58.9534 80.3839 59.044C80.4117 59.1353 80.473 59.2027 80.5678 59.2462C80.671 59.2935 80.7639 59.2986 80.8464 59.2615C80.9286 59.2251 80.9959 59.1486 81.0482 59.032L81.1978 58.6926L80.5647 58.4024Z" fill="#F2F2F2"/>
<path d="M78.0433 63.6727L78.4435 62.9846L77.8865 62.6478L77.4216 63.4471L77.2522 63.3446L77.8388 62.336L79.4105 63.2863L78.8302 64.2841L78.6597 64.1809L79.1182 63.3925L78.613 63.0871L78.2128 63.7751L78.0433 63.6727Z" fill="#F2F2F2"/>
<path d="M75.882 67.0971C76.0532 66.967 76.2015 66.8903 76.3268 66.8671C76.4522 66.8451 76.5655 66.8732 76.6666 66.9515C76.781 67.04 76.841 67.1593 76.8467 67.3094C76.8526 67.4607 76.8003 67.6105 76.6898 67.759C76.6144 67.8602 76.5281 67.9353 76.4307 67.9844C76.3329 68.0341 76.234 68.0544 76.134 68.045C76.0335 68.0364 75.943 68.0009 75.8625 67.9386L76.0079 67.7433C76.0957 67.8112 76.1857 67.8362 76.2777 67.8181C76.3705 67.8006 76.4553 67.7402 76.5321 67.637C76.6034 67.5412 76.6382 67.4501 76.6365 67.3636C76.635 67.2784 76.5973 67.2073 76.5234 67.1501C76.4642 67.1043 76.3952 67.0907 76.3163 67.1094C76.2375 67.1293 76.1357 67.1872 76.0109 67.283C75.8856 67.3796 75.7767 67.4463 75.6842 67.4832C75.5919 67.5213 75.5061 67.5357 75.427 67.5266C75.3473 67.5181 75.2706 67.4853 75.1968 67.4281C75.079 67.337 75.0192 67.2174 75.0174 67.0692C75.0162 66.9215 75.0736 66.7698 75.1896 66.6139C75.2649 66.5127 75.3542 66.4329 75.4574 66.3746C75.5613 66.3167 75.6643 66.2896 75.7665 66.2931C75.8682 66.2974 75.9613 66.3322 76.0457 66.3976L75.9003 66.5929C75.8125 66.525 75.7187 66.5039 75.6187 66.5297C75.5189 66.5567 75.4281 66.6252 75.3463 66.7351C75.2699 66.8377 75.232 66.9322 75.2326 67.0188C75.2331 67.1054 75.269 67.1762 75.3402 67.2313C75.4113 67.2864 75.4851 67.3035 75.5613 67.2828C75.6382 67.2626 75.7451 67.2007 75.882 67.0971Z" fill="#F2F2F2"/>
<path d="M72.6138 71.1494L73.1575 70.5709L72.6932 70.1172L72.0616 70.7892L71.9203 70.6511L72.7174 69.8031L74.0276 71.0834L73.2392 71.9222L73.097 71.7833L73.72 71.1205L73.2988 70.7089L72.7551 71.2874L72.6138 71.1494Z" fill="#F2F2F2"/>
<path d="M69.0528 74.1999L69.6484 73.7094L69.4837 73.2224L69.6771 73.0632L70.2778 74.954L70.1138 75.0891L68.4262 74.0933L68.6186 73.9349L69.0528 74.1999ZM69.7159 73.9127L69.2325 74.3108L70.0096 74.7866L69.7159 73.9127Z" fill="#F2F2F2"/>
<path d="M65.1066 77.5568L65.4714 77.3249L65.083 76.6899L65.2889 76.559L66.2489 78.1289L65.7348 78.4557C65.5599 78.5669 65.4009 78.612 65.2578 78.5912C65.114 78.5708 64.9951 78.4837 64.901 78.3299C64.8413 78.2322 64.8155 78.1303 64.8237 78.0242C64.8312 77.9186 64.8705 77.8182 64.9417 77.7231L64.1695 77.2887L64.1616 77.2757L64.3813 77.136L65.1066 77.5568ZM65.5749 77.4942L65.2603 77.6942C65.1586 77.7589 65.0942 77.8368 65.067 77.9279C65.0391 78.0195 65.0524 78.1099 65.1069 78.199C65.1662 78.2961 65.2405 78.3522 65.3297 78.3673C65.4183 78.3829 65.5168 78.3567 65.6253 78.2887L65.9389 78.0894L65.5749 77.4942Z" fill="#F2F2F2"/>
<path d="M60.2201 80.2895C60.1608 80.1027 60.1641 79.9353 60.2302 79.7873C60.2959 79.6404 60.4193 79.5245 60.6006 79.4395C60.797 79.3473 60.9867 79.3443 61.1695 79.4304C61.3515 79.5169 61.4961 79.679 61.6033 79.9167L61.6759 80.0777C61.7461 80.2333 61.7805 80.383 61.7789 80.5268C61.7766 80.671 61.739 80.7982 61.666 80.9086C61.5935 81.0197 61.4905 81.1065 61.3573 81.169C61.1806 81.2519 61.0165 81.2685 60.8649 81.2188C60.7137 81.1699 60.5897 81.0618 60.493 80.8944L60.7134 80.791C60.7927 80.9155 60.8777 80.9926 60.9687 81.0224C61.0589 81.0526 61.1611 81.0409 61.2753 80.9873C61.4154 80.9216 61.5019 80.8179 61.5349 80.6761C61.567 80.5347 61.5397 80.3678 61.4529 80.1753L61.3797 80.0132C61.2978 79.8315 61.1949 79.7046 61.0711 79.6326C60.9473 79.5607 60.8176 79.5564 60.682 79.62C60.5602 79.6772 60.4793 79.7485 60.4395 79.8341C60.3993 79.9207 60.3996 80.0381 60.4406 80.1861L60.2201 80.2895Z" fill="#F2F2F2"/>
<path d="M54.9225 81.7831L55.1552 81.7114L55.3963 82.5256L56.2814 82.2531L56.0403 81.439L56.2718 81.3677L56.7934 83.1291L56.5619 83.2003L56.3376 82.443L55.4526 82.7155L55.6768 83.4728L55.4441 83.5444L54.9225 81.7831Z" fill="#F2F2F2"/>
<path d="M56.3855 43.4951H43.2922V57.3403H56.3855V43.4951Z" fill="#F2F2F2"/>
<path d="M42.4475 43.4951H29.3542V57.3403H42.4475V43.4951Z" fill="#F2F2F2"/>
<path d="M42.4475 28.6377H29.3542V42.5906H42.4475V28.6377Z" fill="#F2F2F2"/>
<path d="M56.3855 28.6377H43.2922V42.5906H56.3855V28.6377Z" fill="#F2F2F2"/>
<path d="M57.4412 27.7756H73.2797C69.8989 20.7005 64.3348 14.9517 57.4412 11.4111V27.7756Z" fill="#F2F2F2"/>
<path d="M57.4412 42.6336H76.6586C76.6579 37.8073 75.6501 33.0364 73.7021 28.6377H57.4412V42.6336Z" fill="#F2F2F2"/>
<path d="M28.2983 57.2757V43.4951H8.65845C8.77482 48.2864 9.92866 52.9923 12.0373 57.2757H28.2983Z" fill="#F2F2F2"/>
<path d="M28.2983 28.6377H11.615C9.66696 33.0364 8.65914 37.8073 8.65845 42.6336H28.2983V28.6377Z" fill="#F2F2F2"/>
<path d="M28.2983 27.7761V11.1963C21.1841 14.6732 15.4474 20.5224 12.0374 27.7761H28.2983Z" fill="#F2F2F2"/>
<path d="M28.2983 58.3525H12.4597C15.8862 65.1839 21.4641 70.6436 28.2983 73.8557V58.3525Z" fill="#F2F2F2"/>
<path d="M42.4475 7.9668C37.9437 8.0008 33.4921 8.95251 29.3542 10.766V27.7764H42.4475V7.9668Z" fill="#F2F2F2"/>
<path d="M76.4475 43.4951H57.4412V57.2757H73.2798C75.3154 52.9751 76.3969 48.2701 76.4475 43.4951V43.4951Z" fill="#F2F2F2"/>
<path d="M57.4412 58.3525V73.6404C64.058 70.3665 69.4639 65.0056 72.8574 58.3525H57.4412Z" fill="#F2F2F2"/>
<path d="M43.2922 7.9668V27.7764H56.3855V10.9813C52.2296 9.19688 47.7969 8.17631 43.2922 7.9668V7.9668Z" fill="#F2F2F2"/>
<path d="M42.4475 77.0855V58.3525H29.3542V74.2864C33.4608 76.1988 37.9334 77.155 42.4475 77.0855Z" fill="#F2F2F2"/>
<path d="M56.3855 58.3525H43.2922V77.0856C47.8224 77.0876 52.2958 76.0577 56.3855 74.071V58.3525Z" fill="#F2F2F2"/>
<path d="M20.2734 31.0063H19.0063V29.499H20.2734V31.0063ZM20.2734 40.4804H19.0063V32.2982H20.2734V40.4804Z" fill="black"/>
<path d="M53.4287 23.4704L51.9504 24.3316H48.5715L47.0933 23.4704L46.0373 22.1784C45.7687 21.7228 45.623 21.2028 45.615 20.6712V19.8099C45.6592 19.2844 45.8026 18.7726 46.0373 18.3026L47.0933 17.0107L48.5715 16.1494H51.9504L53.4287 17.0107L52.3728 18.0873C52.3 17.9135 52.1836 17.7623 52.0353 17.6489C51.887 17.5355 51.7121 17.464 51.5281 17.4413H48.9939L48.1492 17.872L47.5156 18.7333C47.3449 19.0639 47.2716 19.4378 47.3044 19.8099V20.6712C47.2716 21.0433 47.3449 21.4172 47.5156 21.7478L48.1492 22.6091L48.9939 23.255H51.5281L52.3728 22.8244L53.4287 23.4704Z" fill="black"/>
<path d="M39.7018 54.6915H38.4348V53.6149L37.3788 54.4762H34.4223L33.1552 53.6149L32.3105 52.323C32.1233 51.8449 32.0509 51.3281 32.0993 50.8157V49.9544C32.0653 49.4425 32.1373 48.9289 32.3105 48.4472L33.1552 47.1552L34.4223 46.2939H37.3788L38.4348 47.1552V46.2939H39.7018V54.6915ZM38.4348 50.8157V49.9544C38.448 49.5836 38.3757 49.2149 38.2236 48.8778C38.0124 48.6625 38.0124 48.4472 37.8012 48.0165L36.9565 47.5859H34.8447C34.6807 47.5859 34.5191 47.6248 34.3725 47.6995C34.2258 47.7743 34.0983 47.8828 33.9999 48.0165L33.5776 48.8778C33.4255 49.2149 33.3531 49.5836 33.3664 49.9544V50.8157C33.3335 51.1878 33.4069 51.5617 33.5776 51.8923C33.6352 52.2145 33.7817 52.5133 33.9999 52.7536L34.8447 53.1842H36.9565L37.8012 52.7536C38.0124 52.5383 38.0124 52.1076 38.2236 51.8923C38.3943 51.5617 38.4676 51.1878 38.4348 50.8157V50.8157Z" fill="black"/>
<path d="M64.199 61.7978H62.9319L62.0872 62.4438L61.4536 63.0897C61.4536 63.5204 61.2424 63.7357 61.2424 64.1663V68.9034H59.9753V60.5059H61.2424V61.7978L62.5095 60.9365L63.7766 60.5059H64.199V61.7978Z" fill="black"/>
<path d="M41.6028 83.1141C42.7691 83.1141 43.7146 82.15 43.7146 80.9608C43.7146 79.7716 42.7691 78.8076 41.6028 78.8076C40.4365 78.8076 39.491 79.7716 39.491 80.9608C39.491 82.15 40.4365 83.1141 41.6028 83.1141Z" fill="#F2F2F2"/>
</g>
<defs>
<clipPath id="clip0_3731_857">
<rect width="87.8513" height="87.8513" fill="white"/>
</clipPath>
</defs>
</svg>
