<svg width="88" height="45" viewBox="0 0 88 45" fill="none" xmlns="http://www.w3.org/2000/svg">
<path d="M12.0431 27.7954C14.9836 27.7954 17.3674 25.0003 17.3674 21.5525C17.3674 18.1046 14.9836 15.3096 12.0431 15.3096C9.10253 15.3096 6.71875 18.1046 6.71875 21.5525C6.71875 25.0003 9.10253 27.7954 12.0431 27.7954Z" fill="#F2F2F2"/>
<path d="M5.45117 26.9039L4.94409 29.8767C5.78937 31.0574 6.86333 31.9838 8.07628 32.5786C9.28922 33.1733 10.6059 33.4191 11.9164 33.2954C18.0014 32.8495 24.4666 24.8229 25.4808 7.87793C25.4808 7.87793 22.1848 25.2688 15.5927 29.2821C9.00072 33.2954 5.45117 26.9039 5.45117 26.9039Z" fill="#F2F2F2"/>
<path d="M28.0162 14.2697H26.8752V7.72949H28.0162V14.2697Z" fill="#F2F2F2"/>
<path d="M32.5799 7.87813C32.9905 8.04073 33.3459 8.35328 33.594 8.76997L33.9743 9.81045C33.9743 10.1077 34.1011 10.5537 34.1011 10.8509C34.1474 11.6395 33.9691 12.4237 33.594 13.0805C33.4145 13.4452 33.1556 13.7475 32.8437 13.9564C32.5319 14.1653 32.1784 14.2734 31.8193 14.2697H29.4106V7.72949H32.5799V7.87813ZM30.5516 8.91861V13.0805H31.5657C31.8088 13.0758 32.0456 12.9892 32.2479 12.8311C32.4502 12.673 32.6094 12.45 32.7067 12.1887C32.8644 11.8189 32.9509 11.4129 32.9602 10.9996C32.9879 10.4206 32.8544 9.84683 32.5799 9.36453C32.4531 9.06725 32.0728 8.91861 31.5657 8.91861H30.5516Z" fill="#F2F2F2"/>
<path d="M39.2985 8.91861H36.5096V10.2564H39.1717V11.4455H36.5096V13.0805H39.4253V14.2697H35.3687V7.72949H39.2985V8.91861Z" fill="#F2F2F2"/>
<path d="M40.6931 7.72949H41.9608L44.1159 12.3373V7.72949H45.1301V14.2697H43.9891L41.834 9.66181V14.2697H40.6931V7.72949Z" fill="#F2F2F2"/>
<path d="M50.581 7.72949V8.91861H48.933V14.2697H47.792V8.91861H46.144V7.72949H50.581Z" fill="#F2F2F2"/>
<path d="M52.7361 14.2697H51.5952V7.72949H52.7361V14.2697Z" fill="#F2F2F2"/>
<path d="M58.0604 7.72949V8.91861H56.5392V14.2697H55.2715V8.91861H53.7502V7.72949H58.0604Z" fill="#F2F2F2"/>
<path d="M62.2439 7.72949H63.6384L61.7368 11.7428V14.2697H60.5959V11.7428L58.6943 7.72949H60.0888L61.2297 10.5537L62.2439 7.72949Z" fill="#F2F2F2"/>
<path d="M30.5516 16.6475H32.1996V23.1876H31.1854V17.6879L30.1713 23.1876H29.0303L28.0162 17.6879V23.1876H26.8752V16.6475H28.5232L29.5374 21.7012L30.5516 16.6475Z" fill="#F2F2F2"/>
<path d="M35.2419 16.6475H36.5096L38.4112 23.1876H37.1435L36.8899 21.8499H34.8616L34.4813 23.1876H33.2136L35.2419 16.6475ZM35.1152 20.6607H36.5096L35.8758 18.1339L35.1152 20.6607Z" fill="#F2F2F2"/>
<path d="M39.552 16.6475H40.6929L42.848 21.2553V16.6475H43.9889V23.1876H42.848L40.5662 18.5798V23.1876H39.552V16.6475Z" fill="#F2F2F2"/>
<path d="M46.9047 16.6475H48.2992L50.2007 23.1876H48.933L48.5527 21.8499H46.5244L46.1441 23.1876H45.0032L46.9047 16.6475ZM46.9047 20.6607H48.2992L47.5386 18.1339L46.9047 20.6607Z" fill="#F2F2F2"/>
<path d="M54.8912 18.728C54.8938 18.5151 54.8313 18.3081 54.715 18.1446C54.5988 17.981 54.4364 17.8716 54.2574 17.8361H53.6235C53.425 17.823 53.2269 17.8709 53.049 17.9752C52.8711 18.0795 52.7196 18.2365 52.6094 18.4307C52.2961 18.9482 52.1603 19.5849 52.2291 20.2144C52.1803 20.7956 52.3157 21.3776 52.6094 21.8494C52.8949 22.1278 53.2523 22.2849 53.6235 22.2953L54.6377 21.998C54.8661 21.7154 55.0009 21.3464 55.018 20.9576H53.7503V19.7684H56.0322V23.3358H55.2715V22.2953L54.6377 23.0385L53.4968 23.3358C53.1633 23.3483 52.8316 23.2749 52.525 23.1208C52.2183 22.9668 51.9442 22.7357 51.722 22.444C51.198 21.7496 50.9252 20.8433 50.9614 19.9171C50.9389 19.4803 50.995 19.0429 51.126 18.6331C51.2571 18.2234 51.4601 17.8506 51.722 17.5388C51.9448 17.1997 52.2338 16.9282 52.5647 16.7471C52.8956 16.566 53.2587 16.4807 53.6235 16.4984C54.2707 16.4971 54.8982 16.7599 55.3983 17.2416C55.5989 17.4104 55.7615 17.6339 55.8719 17.8929C55.9823 18.1519 56.0373 18.4385 56.0322 18.728H54.8912Z" fill="#F2F2F2"/>
<path d="M61.6101 17.8366H58.6944V19.1743H61.3566V20.3635H58.6944V21.9985H61.7369V23.1876H57.5535V16.6475H61.6101V17.8366Z" fill="#F2F2F2"/>
<path d="M66.6807 16.6475H68.3287V23.1876H67.1878V17.6879L66.1736 23.1876H65.0327L64.0185 17.6879V23.1876H63.0044V16.6475H64.6524L65.6666 21.7012L66.6807 16.6475Z" fill="#F2F2F2"/>
<path d="M73.78 17.8366H70.8643V19.1743H73.5265V20.3635H70.8643V21.9985H73.9068V23.1876H69.7234V16.6475H73.78V17.8366Z" fill="#F2F2F2"/>
<path d="M75.1743 16.6475H76.3152L78.5971 21.2553V16.6475H79.6112V23.1876H78.4703L76.1885 18.5798V23.1876H75.1743V16.6475Z" fill="#F2F2F2"/>
<path d="M85.0624 16.6475V17.8366H83.4144V23.1876H82.2735V17.8366H80.6255V16.6475H85.0624Z" fill="#F2F2F2"/>
<path d="M28.0162 32.1056H26.8752V25.5654H28.0162V32.1056Z" fill="#F2F2F2"/>
<path d="M29.4106 25.5654H30.5516L32.8334 30.1733V25.5654H33.8476V32.1056H32.7067L30.4248 27.4978V32.1056H29.4106V25.5654Z" fill="#F2F2F2"/>
<path d="M36.1293 30.0252C36.138 30.2998 36.2276 30.5624 36.3828 30.7684C36.5096 31.0656 36.8899 31.0656 37.2702 31.0656H38.0308C38.1526 31.004 38.2547 30.8991 38.323 30.7658C38.3912 30.6324 38.422 30.4774 38.4112 30.3224C38.4112 30.0251 38.4112 29.8765 38.2844 29.7279L37.5238 29.4306H36.8899L35.6222 28.9847C35.3101 28.634 35.128 28.1535 35.1151 27.6469C35.1042 27.371 35.1438 27.0956 35.2312 26.8392C35.3187 26.5828 35.452 26.3514 35.6222 26.1605C35.8472 25.9337 36.1097 25.7639 36.3933 25.6615C36.6769 25.5592 36.9754 25.5267 37.2702 25.5659C37.8203 25.5546 38.3572 25.7644 38.7915 26.1605C38.9921 26.3293 39.1546 26.5529 39.265 26.8119C39.3755 27.0708 39.4305 27.3574 39.4253 27.6469H38.2844C38.2953 27.4919 38.2644 27.3369 38.1962 27.2036C38.128 27.0702 38.0258 26.9654 37.9041 26.9037H36.5096C36.2561 27.0523 36.1293 27.201 36.1293 27.4983C36.1293 27.7955 36.2561 27.9442 36.3828 27.9442C36.4857 28.0517 36.6063 28.1336 36.737 28.1847C36.8678 28.2358 37.0061 28.2551 37.1435 28.2415L38.1576 28.5387L39.045 28.9847C39.2208 29.1374 39.3599 29.3409 39.4487 29.5753C39.5376 29.8097 39.5732 30.0671 39.5521 30.3224C39.5631 30.5983 39.5235 30.8737 39.436 31.1301C39.3485 31.3865 39.2152 31.6179 39.045 31.8088C38.5531 32.1818 37.9826 32.3876 37.397 32.4034C36.7692 32.4074 36.1534 32.2012 35.6222 31.8088C35.4191 31.6091 35.2568 31.3586 35.1471 31.0756C35.0374 30.7927 34.9832 30.4845 34.9884 30.1738L36.1293 30.0252Z" fill="#F2F2F2"/>
<path d="M44.7497 25.5654V26.7545H43.1017V32.1056H41.9607V26.7545H40.3127V25.5654H44.7497Z" fill="#F2F2F2"/>
<path d="M46.7779 32.1056H45.637V25.5654H46.7779V32.1056Z" fill="#F2F2F2"/>
<path d="M52.2292 25.5654V26.7545H50.5812V32.1056H49.4402V26.7545H47.7922V25.5654H52.2292Z" fill="#F2F2F2"/>
<path d="M53.2433 25.5654H54.511V29.5787C54.511 30.0246 54.511 30.3219 54.6378 30.4706C54.7646 30.6192 55.0181 31.0651 55.5252 31.0651C55.7073 31.0854 55.8903 31.0391 56.0492 30.9327C56.2081 30.8262 56.335 30.6648 56.4126 30.4706C56.5393 30.3219 56.5393 30.0246 56.5393 29.5787V25.5654H57.6803V29.5787C57.681 30.1372 57.595 30.6913 57.4267 31.2138C57.2039 31.5529 56.9149 31.8244 56.584 32.0055C56.2531 32.1865 55.89 32.2718 55.5252 32.2542C55.1574 32.3006 54.7859 32.2281 54.4507 32.0447C54.1156 31.8613 53.8296 31.574 53.6236 31.2138C53.3491 30.7315 53.2156 30.1576 53.2433 29.5787V25.5654Z" fill="#F2F2F2"/>
<path d="M63.1313 25.5654V26.7545H61.4833V32.1056H60.3423V26.7545H58.6943V25.5654H63.1313Z" fill="#F2F2F2"/>
<path d="M68.2021 26.7545H65.2864V28.0923H67.9485V29.2814H65.2864V30.9165H68.3288V32.1056H64.2722V25.5654H68.2021V26.7545Z" fill="#F2F2F2"/>
<path d="M28.1773 34.1453L28.3871 34.1983C28.3431 34.3706 28.2638 34.5022 28.1492 34.593C28.0352 34.6831 27.8957 34.7282 27.7306 34.7282C27.5598 34.7282 27.4206 34.6936 27.3132 34.6244C27.2065 34.5545 27.1251 34.4535 27.0688 34.3216C27.0133 34.1897 26.9855 34.048 26.9855 33.8966C26.9855 33.7315 27.0169 33.5877 27.0796 33.4651C27.1431 33.3418 27.2328 33.2485 27.3489 33.185C27.4657 33.1209 27.594 33.0888 27.7339 33.0888C27.8925 33.0888 28.0259 33.1292 28.134 33.2099C28.2422 33.2906 28.3175 33.4042 28.36 33.5505L28.1535 33.5992C28.1167 33.4839 28.0634 33.3999 27.9934 33.3472C27.9235 33.2946 27.8355 33.2683 27.7296 33.2683C27.6077 33.2683 27.5057 33.2975 27.4235 33.3559C27.3421 33.4143 27.2847 33.4929 27.2516 33.5916C27.2184 33.6897 27.2018 33.791 27.2018 33.8955C27.2018 34.0303 27.2213 34.1482 27.2602 34.2491C27.2999 34.3494 27.3612 34.4243 27.4441 34.4741C27.527 34.5238 27.6167 34.5487 27.7133 34.5487C27.8309 34.5487 27.9303 34.5148 28.0118 34.447C28.0933 34.3793 28.1484 34.2787 28.1773 34.1453ZM29.4079 34.3313L29.6091 34.3562C29.5773 34.4737 29.5186 34.5649 29.4328 34.6298C29.347 34.6947 29.2374 34.7271 29.104 34.7271C28.9361 34.7271 28.8027 34.6756 28.7039 34.5725C28.6059 34.4687 28.5568 34.3234 28.5568 34.1367C28.5568 33.9435 28.6066 33.7935 28.7061 33.6868C28.8056 33.5801 28.9346 33.5268 29.0932 33.5268C29.2468 33.5268 29.3722 33.579 29.4696 33.6836C29.5669 33.7881 29.6156 33.9352 29.6156 34.1248C29.6156 34.1363 29.6152 34.1536 29.6145 34.1767H28.758C28.7652 34.3029 28.8009 34.3995 28.8651 34.4665C28.9292 34.5336 29.0092 34.5671 29.1051 34.5671C29.1765 34.5671 29.2374 34.5483 29.2879 34.5108C29.3383 34.4734 29.3784 34.4135 29.4079 34.3313ZM28.7688 34.0166H29.4101C29.4014 33.92 29.3769 33.8476 29.3365 33.7993C29.2745 33.7243 29.1942 33.6868 29.0954 33.6868C29.006 33.6868 28.9307 33.7167 28.8694 33.7766C28.8088 33.8364 28.7753 33.9164 28.7688 34.0166ZM29.8545 34.7012V33.5527H30.0297V33.716C30.1141 33.5898 30.2359 33.5268 30.3953 33.5268C30.4645 33.5268 30.5279 33.5394 30.5856 33.5646C30.644 33.5891 30.6876 33.6216 30.7164 33.6619C30.7453 33.7023 30.7655 33.7502 30.777 33.8058C30.7842 33.8418 30.7878 33.9049 30.7878 33.995V34.7012H30.5932V34.0026C30.5932 33.9233 30.5856 33.8642 30.5704 33.8252C30.5553 33.7856 30.5283 33.7542 30.4893 33.7311C30.4511 33.7074 30.4061 33.6955 30.3542 33.6955C30.2713 33.6955 30.1995 33.7218 30.139 33.7744C30.0791 33.827 30.0492 33.9269 30.0492 34.074V34.7012H29.8545ZM31.5124 34.5271L31.5405 34.699C31.4857 34.7105 31.4367 34.7163 31.3934 34.7163C31.3227 34.7163 31.268 34.7051 31.229 34.6828C31.1901 34.6604 31.1627 34.6312 31.1468 34.5952C31.131 34.5584 31.123 34.4816 31.123 34.3649V33.7041H30.9803V33.5527H31.123V33.2683L31.3166 33.1515V33.5527H31.5124V33.7041H31.3166V34.3757C31.3166 34.4312 31.3199 34.4669 31.3264 34.4827C31.3336 34.4986 31.3447 34.5112 31.3599 34.5206C31.3757 34.5299 31.3981 34.5346 31.4269 34.5346C31.4486 34.5346 31.477 34.5321 31.5124 34.5271ZM32.49 34.3313L32.6911 34.3562C32.6594 34.4737 32.6006 34.5649 32.5148 34.6298C32.429 34.6947 32.3195 34.7271 32.1861 34.7271C32.0181 34.7271 31.8847 34.6756 31.786 34.5725C31.6879 34.4687 31.6389 34.3234 31.6389 34.1367C31.6389 33.9435 31.6886 33.7935 31.7881 33.6868C31.8876 33.5801 32.0167 33.5268 32.1753 33.5268C32.3288 33.5268 32.4543 33.579 32.5516 33.6836C32.6489 33.7881 32.6976 33.9352 32.6976 34.1248C32.6976 34.1363 32.6972 34.1536 32.6965 34.1767H31.84C31.8472 34.3029 31.8829 34.3995 31.9471 34.4665C32.0113 34.5336 32.0913 34.5671 32.1872 34.5671C32.2585 34.5671 32.3195 34.5483 32.3699 34.5108C32.4204 34.4734 32.4604 34.4135 32.49 34.3313ZM31.8508 34.0166H32.4921C32.4835 33.92 32.459 33.8476 32.4186 33.7993C32.3566 33.7243 32.2762 33.6868 32.1774 33.6868C32.088 33.6868 32.0127 33.7167 31.9514 33.7766C31.8909 33.8364 31.8573 33.9164 31.8508 34.0166ZM32.9344 34.7012V33.5527H33.1096V33.7268C33.1543 33.6453 33.1954 33.5916 33.2329 33.5657C33.2711 33.5397 33.3129 33.5268 33.3583 33.5268C33.4239 33.5268 33.4906 33.5477 33.5584 33.5895L33.4913 33.7701C33.4438 33.742 33.3962 33.7279 33.3486 33.7279C33.3061 33.7279 33.2679 33.7409 33.234 33.7668C33.2001 33.7921 33.1759 33.8274 33.1615 33.8728C33.1399 33.942 33.1291 34.0177 33.1291 34.0999V34.7012H32.9344ZM34.337 34.7012V33.7041H34.1651V33.5527H34.337V33.4305C34.337 33.3534 34.3439 33.2961 34.3576 33.2586C34.3763 33.2081 34.4091 33.1674 34.456 33.1364C34.5036 33.1046 34.5699 33.0888 34.655 33.0888C34.7097 33.0888 34.7703 33.0953 34.8366 33.1082L34.8074 33.278C34.7671 33.2708 34.7288 33.2672 34.6928 33.2672C34.6337 33.2672 34.5919 33.2798 34.5674 33.3051C34.5428 33.3303 34.5306 33.3775 34.5306 33.4467V33.5527H34.7544V33.7041H34.5306V34.7012H34.337ZM34.8345 34.1269C34.8345 33.9143 34.8936 33.7567 35.0118 33.6544C35.1106 33.5693 35.231 33.5268 35.373 33.5268C35.5309 33.5268 35.6599 33.5787 35.7602 33.6825C35.8604 33.7856 35.9105 33.9283 35.9105 34.1107C35.9105 34.2585 35.8881 34.3749 35.8434 34.46C35.7995 34.5444 35.7349 34.61 35.6499 34.6568C35.5655 34.7037 35.4732 34.7271 35.373 34.7271C35.2122 34.7271 35.0821 34.6756 34.9826 34.5725C34.8839 34.4694 34.8345 34.3209 34.8345 34.1269ZM35.0345 34.1269C35.0345 34.274 35.0666 34.3843 35.1308 34.4579C35.1949 34.5307 35.2757 34.5671 35.373 34.5671C35.4696 34.5671 35.55 34.5303 35.6142 34.4568C35.6783 34.3832 35.7104 34.2711 35.7104 34.1205C35.7104 33.9784 35.678 33.871 35.6131 33.7982C35.5489 33.7247 35.4689 33.6879 35.373 33.6879C35.2757 33.6879 35.1949 33.7243 35.1308 33.7971C35.0666 33.8699 35.0345 33.9799 35.0345 34.1269ZM36.1376 34.7012V33.5527H36.3128V33.7268C36.3575 33.6453 36.3986 33.5916 36.436 33.5657C36.4743 33.5397 36.5161 33.5268 36.5615 33.5268C36.6271 33.5268 36.6938 33.5477 36.7616 33.5895L36.6945 33.7701C36.6469 33.742 36.5993 33.7279 36.5518 33.7279C36.5092 33.7279 36.471 33.7409 36.4371 33.7668C36.4032 33.7921 36.3791 33.8274 36.3647 33.8728C36.343 33.942 36.3322 34.0177 36.3322 34.0999V34.7012H36.1376ZM37.5542 34.7012V33.1158H37.764V34.7012H37.5542ZM38.8552 34.7012V34.5563C38.7824 34.6702 38.6753 34.7271 38.534 34.7271C38.4424 34.7271 38.3581 34.7019 38.2809 34.6514C38.2045 34.601 38.145 34.5307 38.1025 34.4406C38.0607 34.3497 38.0398 34.2455 38.0398 34.128C38.0398 34.0134 38.0589 33.9096 38.0971 33.8166C38.1353 33.7229 38.1926 33.6511 38.269 33.6014C38.3455 33.5516 38.4309 33.5268 38.5253 33.5268C38.5946 33.5268 38.6562 33.5415 38.7103 33.5711C38.7643 33.5999 38.8083 33.6378 38.8422 33.6846V33.1158H39.0358V34.7012H38.8552ZM38.2398 34.128C38.2398 34.2751 38.2708 34.385 38.3328 34.4579C38.3949 34.5307 38.468 34.5671 38.5524 34.5671C38.6374 34.5671 38.7095 34.5325 38.7687 34.4633C38.8285 34.3933 38.8584 34.287 38.8584 34.1442C38.8584 33.9871 38.8281 33.8717 38.7676 33.7982C38.707 33.7247 38.6324 33.6879 38.5437 33.6879C38.4572 33.6879 38.3848 33.7232 38.3264 33.7939C38.2687 33.8645 38.2398 33.9759 38.2398 34.128ZM40.1291 34.3313L40.3302 34.3562C40.2985 34.4737 40.2397 34.5649 40.154 34.6298C40.0682 34.6947 39.9586 34.7271 39.8252 34.7271C39.6572 34.7271 39.5238 34.6756 39.4251 34.5725C39.327 34.4687 39.278 34.3234 39.278 34.1367C39.278 33.9435 39.3278 33.7935 39.4272 33.6868C39.5267 33.5801 39.6558 33.5268 39.8144 33.5268C39.968 33.5268 40.0934 33.579 40.1907 33.6836C40.2881 33.7881 40.3367 33.9352 40.3367 34.1248C40.3367 34.1363 40.3364 34.1536 40.3356 34.1767H39.4792C39.4864 34.3029 39.522 34.3995 39.5862 34.4665C39.6504 34.5336 39.7304 34.5671 39.8263 34.5671C39.8977 34.5671 39.9586 34.5483 40.009 34.5108C40.0595 34.4734 40.0995 34.4135 40.1291 34.3313ZM39.49 34.0166H40.1312C40.1226 33.92 40.0981 33.8476 40.0577 33.7993C39.9957 33.7243 39.9153 33.6868 39.8166 33.6868C39.7272 33.6868 39.6518 33.7167 39.5905 33.7766C39.53 33.8364 39.4965 33.9164 39.49 34.0166ZM40.5757 34.7012V33.5527H40.7509V33.716C40.8352 33.5898 40.9571 33.5268 41.1164 33.5268C41.1856 33.5268 41.2491 33.5394 41.3067 33.5646C41.3651 33.5891 41.4088 33.6216 41.4376 33.6619C41.4664 33.7023 41.4866 33.7502 41.4982 33.8058C41.5054 33.8418 41.509 33.9049 41.509 33.995V34.7012H41.3143V34.0026C41.3143 33.9233 41.3067 33.8642 41.2916 33.8252C41.2765 33.7856 41.2494 33.7542 41.2105 33.7311C41.1723 33.7074 41.1272 33.6955 41.0753 33.6955C40.9924 33.6955 40.9207 33.7218 40.8601 33.7744C40.8003 33.827 40.7704 33.9269 40.7704 34.074V34.7012H40.5757ZM42.2335 34.5271L42.2616 34.699C42.2068 34.7105 42.1578 34.7163 42.1146 34.7163C42.0439 34.7163 41.9891 34.7051 41.9502 34.6828C41.9113 34.6604 41.8839 34.6312 41.868 34.5952C41.8521 34.5584 41.8442 34.4816 41.8442 34.3649V33.7041H41.7015V33.5527H41.8442V33.2683L42.0378 33.1515V33.5527H42.2335V33.7041H42.0378V34.3757C42.0378 34.4312 42.041 34.4669 42.0475 34.4827C42.0547 34.4986 42.0659 34.5112 42.081 34.5206C42.0969 34.5299 42.1192 34.5346 42.1481 34.5346C42.1697 34.5346 42.1982 34.5321 42.2335 34.5271ZM42.426 33.3397V33.1158H42.6207V33.3397H42.426ZM42.426 34.7012V33.5527H42.6207V34.7012H42.426ZM43.3431 34.5271L43.3712 34.699C43.3164 34.7105 43.2674 34.7163 43.2241 34.7163C43.1534 34.7163 43.0987 34.7051 43.0597 34.6828C43.0208 34.6604 42.9934 34.6312 42.9775 34.5952C42.9617 34.5584 42.9537 34.4816 42.9537 34.3649V33.7041H42.811V33.5527H42.9537V33.2683L43.1473 33.1515V33.5527H43.3431V33.7041H43.1473V34.3757C43.1473 34.4312 43.1506 34.4669 43.157 34.4827C43.1643 34.4986 43.1754 34.5112 43.1906 34.5206C43.2064 34.5299 43.2288 34.5346 43.2576 34.5346C43.2792 34.5346 43.3077 34.5321 43.3431 34.5271ZM43.5258 35.1435L43.5042 34.9607C43.5467 34.9722 43.5838 34.978 43.6156 34.978C43.6588 34.978 43.6934 34.9708 43.7194 34.9564C43.7453 34.942 43.7666 34.9218 43.7832 34.8958C43.7954 34.8764 43.8153 34.8281 43.8427 34.7509C43.8463 34.7401 43.852 34.7242 43.86 34.7033L43.4242 33.5527H43.634L43.8729 34.2178C43.9039 34.3021 43.9317 34.3908 43.9562 34.4838C43.9786 34.3944 44.0052 34.3072 44.0362 34.2221L44.2817 33.5527H44.4764L44.0395 34.7206C43.9926 34.8468 43.9562 34.9337 43.9303 34.9813C43.8957 35.0454 43.856 35.0923 43.8113 35.1218C43.7666 35.1521 43.7133 35.1673 43.6513 35.1673C43.6138 35.1673 43.5719 35.1593 43.5258 35.1435ZM46.025 34.0794V33.8934L46.6965 33.8923V34.4806C46.5934 34.5628 46.4871 34.6248 46.3775 34.6666C46.2679 34.7077 46.1555 34.7282 46.0401 34.7282C45.8844 34.7282 45.7427 34.695 45.6151 34.6287C45.4882 34.5617 45.3923 34.4651 45.3274 34.3389C45.2626 34.2127 45.2301 34.0718 45.2301 33.9161C45.2301 33.7618 45.2622 33.618 45.3264 33.4846C45.3913 33.3505 45.4843 33.251 45.6054 33.1861C45.7265 33.1212 45.866 33.0888 46.0239 33.0888C46.1385 33.0888 46.242 33.1075 46.3342 33.145C46.4272 33.1818 46.5001 33.2333 46.5527 33.2997C46.6053 33.366 46.6453 33.4525 46.6727 33.5592L46.4835 33.6111C46.4597 33.5304 46.4301 33.4669 46.3948 33.4208C46.3595 33.3746 46.309 33.3379 46.2434 33.3105C46.1778 33.2824 46.105 33.2683 46.025 33.2683C45.9291 33.2683 45.8462 33.2831 45.7762 33.3126C45.7063 33.3415 45.6497 33.3797 45.6065 33.4273C45.5639 33.4748 45.5308 33.5271 45.507 33.5841C45.4666 33.6821 45.4464 33.7885 45.4464 33.9031C45.4464 34.0444 45.4706 34.1626 45.5189 34.2578C45.5679 34.353 45.6389 34.4236 45.7319 34.4697C45.8249 34.5159 45.9237 34.539 46.0282 34.539C46.119 34.539 46.2077 34.5217 46.2942 34.4871C46.3807 34.4517 46.4464 34.4142 46.4911 34.3746V34.0794H46.025ZM46.9096 34.1269C46.9096 33.9143 46.9687 33.7567 47.0869 33.6544C47.1857 33.5693 47.3061 33.5268 47.4481 33.5268C47.606 33.5268 47.735 33.5787 47.8353 33.6825C47.9355 33.7856 47.9856 33.9283 47.9856 34.1107C47.9856 34.2585 47.9632 34.3749 47.9185 34.46C47.8745 34.5444 47.81 34.61 47.7249 34.6568C47.6406 34.7037 47.5483 34.7271 47.4481 34.7271C47.2873 34.7271 47.1572 34.6756 47.0577 34.5725C46.9589 34.4694 46.9096 34.3209 46.9096 34.1269ZM47.1096 34.1269C47.1096 34.274 47.1417 34.3843 47.2059 34.4579C47.27 34.5307 47.3508 34.5671 47.4481 34.5671C47.5447 34.5671 47.6251 34.5303 47.6893 34.4568C47.7534 34.3832 47.7855 34.2711 47.7855 34.1205C47.7855 33.9784 47.7531 33.871 47.6882 33.7982C47.624 33.7247 47.544 33.6879 47.4481 33.6879C47.3508 33.6879 47.27 33.7243 47.2059 33.7971C47.1417 33.8699 47.1096 33.9799 47.1096 34.1269ZM48.5338 34.7012L48.097 33.5527H48.3024L48.549 34.2405C48.5757 34.3147 48.6002 34.3919 48.6225 34.4719C48.6398 34.4114 48.664 34.3385 48.695 34.2535L48.9502 33.5527H49.1503L48.7155 34.7012H48.5338ZM50.1084 34.3313L50.3095 34.3562C50.2778 34.4737 50.2191 34.5649 50.1333 34.6298C50.0475 34.6947 49.9379 34.7271 49.8045 34.7271C49.6365 34.7271 49.5032 34.6756 49.4044 34.5725C49.3063 34.4687 49.2573 34.3234 49.2573 34.1367C49.2573 33.9435 49.3071 33.7935 49.4066 33.6868C49.506 33.5801 49.6351 33.5268 49.7937 33.5268C49.9473 33.5268 50.0727 33.579 50.17 33.6836C50.2674 33.7881 50.316 33.9352 50.316 34.1248C50.316 34.1363 50.3157 34.1536 50.3149 34.1767H49.4585C49.4657 34.3029 49.5014 34.3995 49.5655 34.4665C49.6297 34.5336 49.7097 34.5671 49.8056 34.5671C49.877 34.5671 49.9379 34.5483 49.9884 34.5108C50.0388 34.4734 50.0788 34.4135 50.1084 34.3313ZM49.4693 34.0166H50.1106C50.1019 33.92 50.0774 33.8476 50.037 33.7993C49.975 33.7243 49.8946 33.6868 49.7959 33.6868C49.7065 33.6868 49.6311 33.7167 49.5698 33.7766C49.5093 33.8364 49.4758 33.9164 49.4693 34.0166ZM50.5529 34.7012V33.5527H50.728V33.7268C50.7727 33.6453 50.8138 33.5916 50.8513 33.5657C50.8895 33.5397 50.9313 33.5268 50.9768 33.5268C51.0424 33.5268 51.1091 33.5477 51.1768 33.5895L51.1098 33.7701C51.0622 33.742 51.0146 33.7279 50.967 33.7279C50.9245 33.7279 50.8863 33.7409 50.8524 33.7668C50.8185 33.7921 50.7944 33.8274 50.78 33.8728C50.7583 33.942 50.7475 34.0177 50.7475 34.0999V34.7012H50.5529ZM51.2925 34.7012V33.5527H51.4677V33.716C51.5521 33.5898 51.6739 33.5268 51.8333 33.5268C51.9025 33.5268 51.9659 33.5394 52.0236 33.5646C52.082 33.5891 52.1256 33.6216 52.1544 33.6619C52.1833 33.7023 52.2035 33.7502 52.215 33.8058C52.2222 33.8418 52.2258 33.9049 52.2258 33.995V34.7012H52.0311V34.0026C52.0311 33.9233 52.0236 33.8642 52.0084 33.8252C51.9933 33.7856 51.9663 33.7542 51.9273 33.7311C51.8891 33.7074 51.8441 33.6955 51.7922 33.6955C51.7092 33.6955 51.6375 33.7218 51.577 33.7744C51.5171 33.827 51.4872 33.9269 51.4872 34.074V34.7012H51.2925ZM53.2748 34.5595C53.2027 34.6208 53.1331 34.664 53.0661 34.6893C52.9997 34.7145 52.9284 34.7271 52.8519 34.7271C52.7258 34.7271 52.6288 34.6965 52.561 34.6352C52.4933 34.5732 52.4594 34.4943 52.4594 34.3984C52.4594 34.3421 52.472 34.291 52.4972 34.2448C52.5232 34.198 52.5567 34.1605 52.5978 34.1323C52.6396 34.1042 52.6865 34.083 52.7384 34.0685C52.7766 34.0585 52.8343 34.0487 52.9114 34.0393C53.0686 34.0206 53.1843 33.9983 53.2586 33.9723C53.2593 33.9456 53.2596 33.9287 53.2596 33.9215C53.2596 33.8422 53.2413 33.7863 53.2045 33.7539C53.1547 33.7099 53.0808 33.6879 52.9828 33.6879C52.8912 33.6879 52.8235 33.7041 52.7795 33.7365C52.7362 33.7683 52.7042 33.8249 52.6832 33.9063L52.4929 33.8804C52.5102 33.7989 52.5387 33.7333 52.5783 33.6836C52.618 33.6331 52.6753 33.5945 52.7503 33.5678C52.8253 33.5405 52.9121 33.5268 53.0109 33.5268C53.109 33.5268 53.1886 33.5383 53.2499 33.5614C53.3112 33.5844 53.3562 33.6136 53.3851 33.649C53.4139 33.6836 53.4341 33.7275 53.4456 33.7809C53.4521 33.8141 53.4554 33.8739 53.4554 33.9604V34.2199C53.4554 34.4009 53.4593 34.5155 53.4673 34.5638C53.4759 34.6114 53.4925 34.6572 53.517 34.7012H53.3137C53.2935 34.6608 53.2805 34.6136 53.2748 34.5595ZM53.2586 34.1248C53.1879 34.1536 53.0819 34.1781 52.9406 34.1983C52.8606 34.2098 52.804 34.2228 52.7708 34.2372C52.7377 34.2517 52.7121 34.2729 52.6941 34.301C52.676 34.3284 52.667 34.3591 52.667 34.393C52.667 34.4449 52.6865 34.4881 52.7254 34.5227C52.7651 34.5573 52.8227 34.5746 52.8984 34.5746C52.9734 34.5746 53.0401 34.5584 53.0985 34.526C53.1569 34.4928 53.1998 34.4478 53.2272 34.3908C53.2481 34.3468 53.2586 34.2819 53.2586 34.1962V34.1248ZM53.7582 34.7012V33.5527H53.9334V33.716C54.0177 33.5898 54.1396 33.5268 54.2989 33.5268C54.3681 33.5268 54.4315 33.5394 54.4892 33.5646C54.5476 33.5891 54.5912 33.6216 54.6201 33.6619C54.6489 33.7023 54.6691 33.7502 54.6806 33.8058C54.6878 33.8418 54.6914 33.9049 54.6914 33.995V34.7012H54.4968V34.0026C54.4968 33.9233 54.4892 33.8642 54.4741 33.8252C54.4589 33.7856 54.4319 33.7542 54.393 33.7311C54.3548 33.7074 54.3097 33.6955 54.2578 33.6955C54.1749 33.6955 54.1031 33.7218 54.0426 33.7744C53.9827 33.827 53.9528 33.9269 53.9528 34.074V34.7012H53.7582ZM55.7404 34.2805L55.9318 34.3054C55.9109 34.4373 55.8572 34.5408 55.7707 34.6157C55.6849 34.69 55.5793 34.7271 55.4538 34.7271C55.2967 34.7271 55.1701 34.6759 55.0743 34.5736C54.9791 34.4705 54.9315 34.323 54.9315 34.1313C54.9315 34.0073 54.9521 33.8988 54.9931 33.8058C55.0342 33.7128 55.0966 33.6432 55.1802 33.597C55.2646 33.5502 55.3561 33.5268 55.4549 33.5268C55.5796 33.5268 55.6816 33.5585 55.761 33.6219C55.8403 33.6846 55.8911 33.774 55.9134 33.8901L55.7242 33.9193C55.7062 33.8422 55.6741 33.7841 55.6279 33.7452C55.5825 33.7063 55.5274 33.6868 55.4625 33.6868C55.3644 33.6868 55.2848 33.7221 55.2235 33.7928C55.1622 33.8627 55.1316 33.9737 55.1316 34.1259C55.1316 34.2801 55.1611 34.3922 55.2202 34.4622C55.2794 34.5321 55.3565 34.5671 55.4517 34.5671C55.5281 34.5671 55.5919 34.5436 55.6431 34.4968C55.6943 34.4499 55.7267 34.3778 55.7404 34.2805ZM56.8845 34.3313L57.0857 34.3562C57.054 34.4737 56.9952 34.5649 56.9094 34.6298C56.8236 34.6947 56.714 34.7271 56.5807 34.7271C56.4127 34.7271 56.2793 34.6756 56.1805 34.5725C56.0825 34.4687 56.0335 34.3234 56.0335 34.1367C56.0335 33.9435 56.0832 33.7935 56.1827 33.6868C56.2822 33.5801 56.4112 33.5268 56.5699 33.5268C56.7234 33.5268 56.8489 33.579 56.9462 33.6836C57.0435 33.7881 57.0922 33.9352 57.0922 34.1248C57.0922 34.1363 57.0918 34.1536 57.0911 34.1767H56.2346C56.2418 34.3029 56.2775 34.3995 56.3417 34.4665C56.4058 34.5336 56.4859 34.5671 56.5817 34.5671C56.6531 34.5671 56.714 34.5483 56.7645 34.5108C56.815 34.4734 56.855 34.4135 56.8845 34.3313ZM56.2454 34.0166H56.8867C56.8781 33.92 56.8535 33.8476 56.8132 33.7993C56.7512 33.7243 56.6708 33.6868 56.572 33.6868C56.4826 33.6868 56.4073 33.7167 56.346 33.7766C56.2854 33.8364 56.2519 33.9164 56.2454 34.0166Z" fill="#F2F2F2"/>
</svg>
