<svg width="186" height="62" viewBox="0 0 186 62" fill="none" xmlns="http://www.w3.org/2000/svg">
<g clip-path="url(#clip0_3731_742)">
<path d="M79.1526 31.795C79.1526 40.4009 72.3212 46.7424 63.9375 46.7424C55.5538 46.7424 48.7224 40.4009 48.7224 31.795C48.7224 23.1285 55.5538 16.8477 63.9375 16.8477C72.3212 16.8477 79.1526 23.1285 79.1526 31.795ZM72.4921 31.795C72.4921 26.4172 68.5328 22.7377 63.9375 22.7377C59.3422 22.7377 55.3829 26.4172 55.3829 31.795C55.3829 37.119 59.3422 40.8524 63.9375 40.8524C68.5328 40.8524 72.4921 37.1122 72.4921 31.795Z" fill="white"/>
<path d="M111.976 31.795C111.976 40.4009 105.145 46.7424 96.761 46.7424C88.3773 46.7424 81.5459 40.4009 81.5459 31.795C81.5459 23.1353 88.3773 16.8477 96.761 16.8477C105.145 16.8477 111.976 23.1285 111.976 31.795ZM105.316 31.795C105.316 26.4172 101.356 22.7377 96.761 22.7377C92.1657 22.7377 88.2063 26.4172 88.2063 31.795C88.2063 37.119 92.1657 40.8524 96.761 40.8524C101.356 40.8524 105.316 37.1122 105.316 31.795Z" fill="white"/>
<path d="M143.432 17.7507V44.5859C143.432 55.6246 136.826 60.1331 129.017 60.1331C121.666 60.1331 117.241 55.2877 115.573 51.3251L121.372 48.9461C122.404 51.379 124.934 54.2498 129.01 54.2498C134.009 54.2498 137.107 51.2105 137.107 45.489V43.3392H136.874C135.383 45.152 132.511 46.7357 128.887 46.7357C121.303 46.7357 114.356 40.2257 114.356 31.849C114.356 23.4116 121.303 16.8477 128.887 16.8477C132.504 16.8477 135.376 18.4314 136.874 20.1903H137.107V17.7574H143.432V17.7507ZM137.578 31.849C137.578 26.5857 134.016 22.7377 129.482 22.7377C124.887 22.7377 121.037 26.5857 121.037 31.849C121.037 37.0583 124.887 40.8524 129.482 40.8524C134.016 40.8524 137.578 37.0583 137.578 31.849Z" fill="white"/>
<path d="M153.86 2.02148V45.8258H147.364V2.02148H153.86Z" fill="white"/>
<path d="M179.176 36.7145L184.345 40.111C182.677 42.5439 178.656 46.7356 171.708 46.7356C163.092 46.7356 156.657 40.1717 156.657 31.7882C156.657 22.8993 163.147 16.8408 170.963 16.8408C178.834 16.8408 182.684 23.0139 183.942 26.3497L184.632 28.048L164.357 36.3236C165.909 39.3226 168.323 40.8523 171.708 40.8523C175.1 40.8523 177.452 39.208 179.176 36.7145ZM163.263 31.3367L176.816 25.7904C176.071 23.9236 173.828 22.623 171.188 22.623C167.804 22.623 163.092 25.568 163.263 31.3367Z" fill="white"/>
<path d="M24.132 27.9064V21.5649H45.8161C46.0281 22.6701 46.1375 23.9775 46.1375 25.3927C46.1375 30.1505 44.8177 36.0338 40.5643 40.2255C36.4272 44.4712 31.1412 46.7355 24.1389 46.7355C11.1599 46.7355 0.246094 36.3168 0.246094 23.526C0.246094 10.7351 11.1599 0.316406 24.1389 0.316406C31.319 0.316406 36.434 3.09293 40.2771 6.71184L35.7365 11.1866C32.9807 8.63923 29.247 6.65793 24.132 6.65793C14.6543 6.65793 7.24161 14.1855 7.24161 23.526C7.24161 32.8664 14.6543 40.394 24.132 40.394C30.2796 40.394 33.7808 37.9612 36.0237 35.7508C37.8427 33.9581 39.0394 31.3973 39.5112 27.8997L24.132 27.9064Z" fill="white"/>
</g>
<defs>
<clipPath id="clip0_3731_742">
<rect width="186" height="62" fill="white"/>
</clipPath>
</defs>
</svg>
