<svg width="115" height="24" viewBox="0 0 115 24" fill="none" xmlns="http://www.w3.org/2000/svg">
<path d="M107.967 17.9643V6.89062L114.98 12.0584L107.967 17.9643Z" fill="#F2F2F2"/>
<path d="M15.3812 23.1333C15.3186 23.055 15.2716 19.6557 15.2716 15.567C15.3029 7.70306 15.2716 7.98503 16.0862 6.95112C16.3055 6.66915 16.4621 6.34018 16.4308 6.24619C16.3368 6.01121 16.9164 5.46292 17.1201 5.58824C17.1984 5.63524 17.543 5.43159 17.872 5.11829C18.4673 4.58567 19.0469 4.31936 19.2975 4.47601C19.3602 4.50734 20.0965 4.46035 20.911 4.35069C21.9136 4.22537 22.4619 4.2097 22.6029 4.31936C22.7126 4.39768 23.0415 4.42902 23.3392 4.38202C23.6368 4.33503 23.8874 4.35069 23.8874 4.42902C23.8874 4.50734 24.0754 4.63267 24.3261 4.67966C24.561 4.74232 24.8274 4.88331 24.9057 4.99297C24.9997 5.10262 25.36 5.3376 25.7359 5.52558C26.0962 5.71357 26.3939 5.96421 26.3939 6.07387C26.3939 6.18353 26.5662 6.43417 26.7698 6.65349C27.2398 7.10778 27.8038 9.0346 27.8038 10.1468C27.8038 10.5855 27.8821 11.0241 27.9917 11.1337C28.1171 11.2591 28.1171 11.3687 27.9604 11.5567C27.8194 11.7134 27.7881 12.0423 27.8508 12.575C27.8977 12.9979 27.8821 13.3895 27.8038 13.4365C27.7254 13.4835 27.6941 13.6089 27.7411 13.7185C27.7881 13.8438 27.7098 14.1415 27.5688 14.3921C27.4435 14.6428 27.3338 14.9404 27.3338 15.0657C27.3338 15.1754 27.1615 15.473 26.9422 15.7237C26.7385 15.9743 26.5975 16.2876 26.6445 16.4129C26.7072 16.5539 26.6445 16.6479 26.5035 16.6479C26.3782 16.6479 26.0962 16.8516 25.8926 17.0865C25.6889 17.3372 25.1093 17.6975 24.5924 17.9011C24.0754 18.1048 23.5741 18.3398 23.4645 18.4181C23.3548 18.4964 23.1355 18.5121 22.9475 18.4494C22.7752 18.4024 22.6342 18.4181 22.6342 18.4964C22.6342 18.7001 21.569 18.6217 21.3497 18.4024C21.24 18.2928 21.0364 18.2144 20.8797 18.2144C20.7231 18.2144 20.1748 18.0421 19.6578 17.8228C19.1409 17.6035 18.7022 17.4312 18.6553 17.4312C18.6083 17.4312 18.5613 18.5591 18.5299 19.922C18.4829 22.3501 18.4673 22.4441 18.0913 22.7887C17.7937 23.0707 17.496 23.1647 16.6031 23.196C16.0078 23.2273 15.4439 23.196 15.3812 23.1333V23.1333ZM22.3209 15.379C22.3209 15.285 22.4619 15.2537 22.6342 15.3164C22.8222 15.379 22.9475 15.3477 22.9475 15.238C22.9475 14.9874 23.6055 14.2981 23.8404 14.2981C23.9501 14.2981 24.1068 14.0162 24.2007 13.6715C24.3887 12.9509 24.3731 9.78653 24.1694 9.66121C24.1068 9.61422 24.0754 9.42624 24.1224 9.23825C24.2477 8.78396 23.3705 7.71872 22.8692 7.71872C22.6812 7.71872 22.3992 7.57773 22.2426 7.40542C22.0859 7.2331 21.804 7.09211 21.6316 7.09211C21.4437 7.09211 21.0207 7.2331 20.6761 7.40542C20.3314 7.57773 19.9711 7.71872 19.8771 7.71872C19.7675 7.71872 19.4542 8.12602 19.1722 8.61164C18.7179 9.39491 18.6396 9.69254 18.5926 10.9144C18.5143 12.3086 18.7649 13.9848 19.0469 13.9848C19.1252 13.9848 19.1879 14.0945 19.1879 14.2198C19.1879 14.3608 19.3602 14.5331 19.5638 14.5958C19.7675 14.6741 19.9711 14.8621 20.0181 14.9874C20.0808 15.1284 20.2844 15.3164 20.4724 15.3947C20.9737 15.5983 22.3209 15.5827 22.3209 15.379V15.379ZM6.20138 18.4651C6.10739 18.3554 5.6061 18.2144 5.07348 18.1675C4.55653 18.1048 4.00825 17.9951 3.83593 17.9011C3.67928 17.8228 3.36597 17.7445 3.14666 17.7445C2.92735 17.7445 2.64537 17.5878 2.47305 17.3842C2.3164 17.1805 2.09709 17.0396 1.98743 17.0865C1.87777 17.1179 1.79945 17.0082 1.79945 16.8359C1.79945 16.6166 1.67413 16.4913 1.45481 16.4599C1.21983 16.4286 1.11018 16.319 1.11018 16.131C1.12584 15.99 1.03185 15.8647 0.906529 15.8647C0.781207 15.8647 0.702881 15.7393 0.734211 15.5827C0.749877 15.426 0.67155 15.1284 0.530563 14.9091C0.201593 14.3921 -0.0960468 13.1859 0.0292752 12.7629C0.107601 12.434 0.185928 12.4183 1.79945 12.4183H3.50696L3.49129 12.8883C3.47563 13.1546 3.61662 13.5149 3.78893 13.7185C3.96125 13.9065 4.14923 14.1885 4.2119 14.3451C4.25889 14.5174 4.44687 14.6741 4.61919 14.7211C4.79151 14.7681 4.9325 14.8621 4.9325 14.9247C4.9325 15.2537 6.54602 15.5827 7.79924 15.52C8.92713 15.473 9.19344 15.3947 9.89838 14.9561C10.4937 14.5801 10.6816 14.3765 10.619 14.1571C10.572 14.0005 10.619 13.8125 10.713 13.7655C11.0419 13.5619 10.901 12.7786 10.4937 12.5123C10.2743 12.3713 10.102 12.152 10.102 12.0423C10.102 11.729 9.39709 11.3217 8.84881 11.3217C8.59816 11.3217 8.37885 11.2591 8.37885 11.1964C8.37885 11.1338 8.12821 11.0711 7.8149 11.0554C7.51726 11.0398 7.1413 10.9301 6.98464 10.7891C6.71833 10.5541 4.97949 10.0998 3.7576 9.94319C3.09966 9.86486 2.47305 9.53589 2.14408 9.09726C2.03443 8.94061 1.81511 8.81529 1.65846 8.81529C1.34516 8.81529 0.906529 8.39233 1.06318 8.23567C1.12584 8.18868 1.06318 7.9537 0.953524 7.73439C0.828202 7.51507 0.687215 7.21743 0.624554 7.09211C0.577559 6.96679 0.436571 6.68481 0.31125 6.4655C-0.519009 5.0243 0.953525 1.90691 2.97434 0.841673C3.31898 0.65369 3.67928 0.512701 3.78893 0.512701C3.89859 0.512701 3.99258 0.45004 3.99258 0.356049C3.99258 0.277722 4.2119 0.199396 4.46254 0.199396C4.72885 0.199396 4.9325 0.152398 4.9325 0.0897373C4.9325 -0.0669153 8.2222 -0.00425424 9.27177 0.168064C9.7104 0.24639 10.196 0.418709 10.337 0.575361C10.4937 0.732014 10.7286 0.794676 10.8853 0.74768C11.0889 0.685019 11.2299 0.763345 11.3552 0.982659C11.4492 1.15498 11.6529 1.29596 11.8095 1.29596C12.1228 1.29596 12.5615 1.71893 12.3892 1.87558C12.3422 1.92258 12.4205 2.06356 12.5771 2.17322C12.9061 2.4082 13.5954 4.55434 13.5171 5.08696C13.4701 5.41593 13.3917 5.44726 12.2168 5.49425C10.666 5.55691 10.3057 5.46293 10.1647 5.00863C10.1177 4.82065 9.96104 4.53868 9.82005 4.38202C9.69473 4.24104 9.63207 4.06871 9.67907 4.00605C9.85138 3.83373 9.45975 3.50477 9.20911 3.59876C9.06812 3.66142 8.88014 3.58309 8.78615 3.45777C8.69216 3.33245 8.34752 3.1758 8.03422 3.11314C7.70525 3.05047 7.43894 2.94082 7.43894 2.86249C7.43894 2.7685 7.12563 2.70584 6.734 2.70584C6.34237 2.70584 6.02906 2.7685 6.02906 2.84682C6.02906 3.03481 5.38679 3.25412 4.66619 3.31678C4.55653 3.33245 4.46254 3.42644 4.46254 3.55176C4.46254 3.67708 4.32155 3.81807 4.1649 3.88073C3.8046 3.99039 3.63228 4.57001 3.86726 4.85198C3.99258 5.00863 3.99258 5.11829 3.86726 5.24361C3.60095 5.50992 3.63228 5.60391 4.07091 5.80756C4.29022 5.90155 4.46254 6.08953 4.46254 6.21486C4.46254 6.35584 4.5722 6.40284 4.77584 6.35584C4.96383 6.30885 5.12048 6.37151 5.18314 6.52816C5.23014 6.66915 5.41812 6.77881 5.6061 6.77881C5.77842 6.77881 6.04473 6.8728 6.17005 6.99812C6.4207 7.21743 8.8958 7.87537 9.47542 7.87537C9.64774 7.87537 10.055 8.01636 10.384 8.18868C10.713 8.361 11.3552 8.59598 11.7939 8.68997C12.2482 8.79963 12.6085 8.97194 12.6085 9.06593C12.6085 9.17559 12.8121 9.42623 13.0784 9.64555C13.8774 10.3348 14.175 11.1024 14.2533 12.7786C14.2846 13.6715 14.2533 14.3295 14.1593 14.3921C14.081 14.4391 14.0497 14.6114 14.0967 14.7681C14.1593 14.9717 14.081 15.1284 13.8774 15.2694C13.6894 15.379 13.5484 15.5984 13.5484 15.7393C13.5484 15.896 13.4857 16.0213 13.3917 16.0213C13.3134 16.0213 13.2037 16.1936 13.1411 16.4129C13.0941 16.6323 12.9531 16.8046 12.8278 16.8046C12.7025 16.8046 12.6085 16.9142 12.6085 17.0552C12.6085 17.1962 12.5145 17.2745 12.4048 17.2275C12.2952 17.1805 12.1072 17.2902 12.0132 17.4469C11.9035 17.6192 11.6529 17.7445 11.4179 17.7445C11.1986 17.7445 10.8853 17.8228 10.7286 17.9011C10.5563 17.9951 10.008 18.1048 9.49108 18.1675C8.95846 18.2144 8.45718 18.3554 8.36319 18.4651C8.25353 18.6061 7.84623 18.6844 7.28228 18.6844C6.71833 18.6844 6.31104 18.6061 6.20138 18.4651V18.4651ZM75.6611 18.2144C74.7995 18.1675 73.9379 18.0578 73.7499 17.9951C73.5306 17.9168 73.3896 17.9481 73.3896 18.0421C73.3896 18.3241 73.1233 18.2301 72.7473 17.8228C72.5437 17.6192 72.2774 17.4312 72.1834 17.4312C72.0737 17.4312 71.9797 17.3842 71.9797 17.3215C71.9797 17.2432 71.6351 16.8359 71.2121 16.3973C70.4915 15.6297 70.4446 15.5357 70.2722 14.2825C70.1469 13.4365 70.0999 11.4627 70.1312 8.81529L70.1782 4.664L71.6821 4.617C72.7943 4.58567 73.233 4.63266 73.3583 4.78932C73.4679 4.9303 73.5463 6.54383 73.5776 9.69255C73.6246 14.1101 73.6403 14.4078 73.9379 14.7838C74.1102 15.0031 74.3609 15.1441 74.4705 15.1127C74.5958 15.0657 74.7838 15.1597 74.8935 15.3164C75.0188 15.4887 75.1911 15.5514 75.3634 15.4887C75.5201 15.426 75.6924 15.473 75.7707 15.5827C75.8804 15.7393 75.943 15.7393 75.99 15.5983C76.0527 15.473 76.2407 15.4417 76.5383 15.5044C76.836 15.567 76.9926 15.52 76.9926 15.3947C76.9926 15.285 77.1023 15.238 77.2276 15.3007C77.3686 15.3477 77.4626 15.3007 77.4626 15.1441C77.4626 15.0031 77.6036 14.8621 77.7759 14.8151C78.0579 14.7368 78.1675 14.4705 78.1049 14.0788C78.0892 14.0005 78.1832 13.8282 78.3085 13.6872C78.5122 13.4679 78.5591 12.7473 78.5591 9.28525C78.5748 5.72923 78.6218 5.10262 78.8255 4.86764C79.0291 4.63266 79.3424 4.58567 80.4233 4.58567H81.7705L81.7235 9.39491C81.7079 12.058 81.6139 14.4235 81.5355 14.6741C81.4416 14.9247 81.3789 15.3164 81.3789 15.5357C81.3789 15.8177 81.1909 16.1153 80.7523 16.4913C80.4076 16.7889 80.1257 17.1179 80.1257 17.2432C80.1257 17.3529 80.0317 17.4625 79.9377 17.4938C78.7471 17.8228 77.8072 18.1205 77.5879 18.2301C77.4312 18.3084 77.2903 18.3554 77.2746 18.3398C77.2433 18.3398 76.5227 18.2771 75.6611 18.2144V18.2144ZM32.754 17.9168C32.2527 17.7445 31.6887 17.4625 31.5008 17.2902C31.3128 17.1022 31.1091 17.0082 31.0465 17.0552C30.8898 17.2275 30.4512 16.7732 30.5295 16.5383C30.5765 16.4129 30.5138 16.2876 30.3885 16.2406C30.2632 16.178 30.1535 16.0683 30.1535 15.9587C30.1535 15.8647 29.9812 15.6297 29.7619 15.426C29.5583 15.2224 29.3859 14.9404 29.4016 14.7994C29.4486 14.4235 29.2293 13.4052 28.9473 12.6376C28.6967 11.9327 28.7437 10.1938 29.0256 9.66121C29.1196 9.50456 29.3076 8.89362 29.4486 8.29834C29.6053 7.71872 29.8402 7.09211 29.9969 6.88846C30.1379 6.70048 30.2319 6.44983 30.2005 6.35584C30.1535 6.24618 30.2319 6.1522 30.3729 6.1522C30.5138 6.1522 30.6235 6.05821 30.6235 5.94855C30.6235 5.66657 31.1874 5.14962 31.3754 5.27494C31.4381 5.32194 31.6261 5.21228 31.7671 5.05563C32.19 4.55434 33.2083 4.39769 35.4014 4.46035C37.4849 4.53868 38.2368 4.71099 38.8947 5.32194C39.49 5.85456 39.6937 5.99554 39.8817 5.99554C39.9757 5.99554 40.0226 6.08953 39.9757 6.21486C39.9287 6.34018 39.9756 6.48116 40.0853 6.51249C40.3516 6.62215 40.9312 8.25134 41.0566 9.22259C41.1192 9.64555 41.2289 10.0685 41.3072 10.1625C41.3699 10.2565 41.4482 10.7265 41.4795 11.1807L41.5108 12.0267L37.1402 12.0737C32.707 12.105 32.1117 12.1833 32.519 12.6689C32.613 12.7943 32.66 12.9822 32.613 13.1076C32.566 13.2329 32.6287 13.3739 32.7696 13.4209C32.895 13.4835 32.9733 13.6245 32.9263 13.7342C32.7226 14.2511 33.4746 15.0814 34.1325 15.0814C34.2578 15.0814 34.4302 15.1911 34.5398 15.3164C34.6651 15.473 35.0098 15.5514 35.5581 15.5514C36.1063 15.5514 36.451 15.473 36.5763 15.3164C36.6859 15.1911 36.9053 15.0814 37.0776 15.0814C37.2342 15.0814 37.4066 14.9717 37.4535 14.8464C37.6415 14.3765 38.5031 14.1258 39.725 14.1728C40.8529 14.2198 40.8842 14.2355 40.8372 14.6114C40.7902 15.1127 40.4613 15.8647 40.289 15.8647C40.2106 15.8647 40.2106 15.943 40.2576 16.037C40.3986 16.2563 39.725 16.9612 39.3804 16.9612C39.2394 16.9612 39.0201 17.0709 38.9104 17.2119C38.4248 17.8072 37.3439 18.1048 35.4797 18.1518C34.0072 18.1988 33.5059 18.1675 32.754 17.9168V17.9168ZM37.5632 9.75521C37.6885 9.23825 37.3126 8.0007 36.9679 7.81271C36.7956 7.71872 36.4666 7.51507 36.2317 7.37408C35.7147 7.01378 34.6495 7.01379 34.1325 7.35842C33.4902 7.76572 32.8166 8.45499 32.8166 8.68997C32.8166 8.79963 32.707 9.06593 32.566 9.25392C32.049 9.99018 32.284 10.0685 34.9941 10.0685C37.3596 10.0685 37.4849 10.0528 37.5632 9.75521ZM46.1478 17.9011C45.5838 17.7602 45.0982 17.5565 45.0669 17.4625C45.0355 17.3685 44.9102 17.3372 44.7849 17.3842C44.6596 17.4312 44.5186 17.3215 44.4246 17.1022C44.3463 16.8986 43.9703 16.4129 43.61 16.0213C43.234 15.6297 42.9207 15.1754 42.905 15.0031C42.8424 14.2355 42.3881 12.3713 42.2314 12.2147C41.9651 11.9483 42.0121 10.7734 42.3098 10.5228C42.4978 10.3662 42.5291 10.1625 42.4664 9.73954C42.4038 9.3949 42.4351 9.11293 42.5291 9.05027C42.6544 8.97194 42.6387 8.87795 42.5291 8.7213C42.3881 8.56464 42.4194 8.42366 42.6701 8.09469C42.8581 7.85971 42.999 7.56207 42.999 7.40542C42.999 7.26443 43.1714 6.98245 43.3907 6.77881C43.5943 6.59082 43.7353 6.35584 43.6883 6.27752C43.5473 6.07387 44.2679 5.3376 44.5186 5.43159C44.6282 5.47859 44.7222 5.44726 44.7222 5.3846C44.7222 5.30627 45.0512 5.05563 45.4428 4.83631C46.1164 4.46035 46.3201 4.42902 48.1059 4.42902C50.393 4.42902 51.4426 4.617 51.9282 5.13395C52.1162 5.3376 52.3512 5.47859 52.4608 5.43159C52.6802 5.35327 53.6044 6.26185 53.4478 6.41851C53.3851 6.4655 53.4634 6.65349 53.6044 6.81014C53.7454 6.96679 53.949 7.32709 54.0587 7.60906C54.1527 7.89104 54.2937 8.23567 54.3563 8.39233C54.4503 8.6273 54.3407 8.65864 53.1815 8.65864C51.6306 8.65864 50.7847 8.43932 50.581 7.96937C50.5027 7.79705 50.3304 7.65606 50.2207 7.68739C50.0954 7.71872 49.8291 7.57773 49.6254 7.37408C49.2965 7.07644 49.2025 7.04511 48.9205 7.2331C48.6542 7.38975 48.5289 7.40542 48.2156 7.2331C47.8866 7.06078 47.8083 7.07644 47.401 7.46808C47.1503 7.71872 46.8684 7.85971 46.79 7.81271C46.5551 7.67173 46.0068 8.90928 45.8971 9.78654C45.8501 10.1938 45.7405 10.5698 45.6465 10.6168C45.4741 10.7421 45.4585 11.5254 45.6308 11.729C45.8344 11.9483 46.1321 13.0919 46.1321 13.6245C46.1321 14.2198 46.9937 15.1284 47.7926 15.3947C48.4505 15.614 49.9231 15.52 50.0171 15.2537C50.0484 15.1597 50.1424 15.0814 50.2207 15.0814C50.299 15.0814 50.581 14.8777 50.8317 14.6114C51.2703 14.1571 51.3486 14.1415 52.6958 14.1415C53.4634 14.1415 54.1527 14.2041 54.1997 14.2981C54.325 14.4861 53.9647 15.708 53.7767 15.708C53.7141 15.708 53.6514 15.802 53.6514 15.9117C53.6514 16.0213 53.4321 16.272 53.1658 16.4756C52.9151 16.6636 52.6332 16.9926 52.5548 17.2119C52.4765 17.4155 52.2885 17.5878 52.1319 17.5878C51.9752 17.5878 51.4269 17.7288 50.9257 17.9011C49.7508 18.2928 47.589 18.2928 46.1478 17.9011V17.9011ZM100.772 17.9481C100.678 17.8385 100.49 17.7445 100.35 17.7445C99.9735 17.7288 99.4723 16.9769 99.6916 16.7576C99.8012 16.6479 99.8639 15.332 99.8639 12.6846C99.8639 9.01894 99.8482 8.75263 99.5349 8.20435C99.0963 7.43675 98.2817 6.93546 97.4828 6.93546C96.7465 6.93546 95.6499 7.38975 95.6343 7.68739C95.6343 7.78138 95.5403 7.87537 95.4306 7.87537C95.321 7.87537 95.1173 8.15735 94.9607 8.51765C94.71 9.09727 94.6787 9.62988 94.7257 13.6089L94.7727 18.0735L93.2062 18.0265L91.6396 17.9795L91.5926 14.1885C91.5613 10.8518 91.53 10.3818 91.3107 10.3818C91.107 10.3818 91.0757 10.2252 91.1383 9.52023C91.1853 9.05027 91.154 8.61164 91.0757 8.56464C90.9817 8.51765 90.966 8.34533 91.013 8.17301C91.0757 7.98503 91.0443 7.87537 90.9034 7.87537C90.7937 7.87537 90.4961 7.65606 90.2454 7.40542C89.8381 6.99812 89.6815 6.93546 88.8982 6.93546C88.2559 6.93546 87.9426 7.01379 87.786 7.1861C87.6763 7.32709 87.41 7.49941 87.2064 7.57773C87.0027 7.65606 86.8774 7.78138 86.9244 7.85971C86.9871 7.93803 86.9401 8.20435 86.8461 8.45499C86.7364 8.73697 86.6894 10.3975 86.7051 13.2486C86.7207 16.3973 86.6737 17.6818 86.5328 17.8385C86.4074 17.9951 85.9375 18.0578 84.6843 18.0578H83.0237L83.0551 14.1885C83.0707 12.0423 83.1334 9.58289 83.1961 8.68997C83.29 7.1861 83.3214 7.06078 83.7287 6.66915C83.9793 6.43417 84.136 6.18353 84.089 6.1052C83.9637 5.90155 84.5433 5.35327 84.7939 5.44726C84.9192 5.49425 85.2012 5.32194 85.4362 5.08696C85.7965 4.67966 86.0158 4.617 87.3944 4.44468C88.2559 4.33503 89.3525 4.28803 89.8225 4.33502C91.1853 4.49168 92.3446 4.75799 92.3446 4.89897C92.3446 4.96164 92.5169 5.13395 92.7362 5.27494C93.0965 5.50992 93.1748 5.50992 93.5821 5.29061C93.8328 5.16528 94.0677 4.99297 94.0991 4.89897C94.1147 4.82065 94.569 4.66399 95.086 4.57C95.6029 4.47601 96.1356 4.35069 96.2609 4.28803C96.5272 4.14704 99.0806 4.35069 100.24 4.58567C101.054 4.75799 102.558 5.63524 103.028 6.21486C103.279 6.5125 103.31 7.07644 103.31 12.2303C103.31 16.6323 103.263 17.9325 103.122 17.9795C102.543 18.1518 100.945 18.1361 100.772 17.9481V17.9481ZM56.8001 17.8698C56.2205 17.7132 55.6879 17.0552 55.6879 16.4913C55.6879 16.2563 55.5782 15.9743 55.4529 15.8647C55.2493 15.6923 55.2179 14.7054 55.2493 8.20435L55.2963 0.74768L56.3615 0.700686C56.9411 0.669356 57.6617 0.732015 57.9594 0.826006C58.492 0.998324 59.0559 1.65627 58.8993 1.92257C58.8523 2.0009 58.8836 2.09489 58.9776 2.15755C59.0559 2.20455 59.1342 2.78417 59.1342 3.42644V4.58567H59.8862C60.2935 4.58567 60.7008 4.64833 60.7791 4.71099C60.8888 4.77365 60.9201 5.3846 60.8574 6.38717L60.7791 7.9537L59.9645 8.00069L59.1342 8.04769V12.8883C59.1342 16.1623 59.0872 17.7602 58.9619 17.8228C58.7113 17.9795 57.3484 18.0108 56.8001 17.8698V17.8698ZM61.4527 13.9065C61.4214 9.11293 61.4214 9.0346 61.719 8.51765C61.8443 8.29834 62.0167 7.92237 62.1263 7.68739C62.2203 7.43674 62.3613 7.24876 62.4396 7.24876C62.5179 7.24876 62.5806 7.1861 62.5806 7.09211C62.5806 6.81014 63.7398 5.83889 64.4604 5.50992C64.8521 5.32194 65.5413 5.00863 65.9956 4.80498C66.4499 4.58567 66.8729 4.46035 66.9512 4.49168C67.0295 4.53867 67.5465 4.58567 68.1261 4.60134L69.16 4.63266V8.03203H68.0321C67.3272 8.03203 66.7319 8.12602 66.4969 8.26701C66.2776 8.39233 65.9486 8.56464 65.7763 8.64297C65.3377 8.84662 64.9304 9.41057 65.04 9.69255C65.087 9.81787 65.04 10.0058 64.9461 10.1155C64.8364 10.2565 64.7581 11.6507 64.7424 14.0788L64.6954 17.8228L63.0819 17.9011L61.484 17.9795L61.4527 13.9065V13.9065Z" fill="#F2F2F2"/>
</svg>
