<svg width="88" height="42" viewBox="0 0 88 42" fill="none" xmlns="http://www.w3.org/2000/svg">
<path d="M80.0003 15.8344H74.9089V15.7458C75.7944 14.6833 77.0192 13.2223 77.7129 12.0565C78.0818 11.4219 78.2736 11.0087 78.2736 10.3446C78.2736 9.68052 77.6833 8.83934 76.8864 8.83934C76.3109 8.83934 75.7206 9.09022 75.086 9.91664V8.47041C75.7206 7.95389 76.3256 7.71777 76.975 7.71777C78.4212 7.71777 79.4247 8.73604 79.4247 10.2118C79.4247 11.6875 78.7164 12.6173 76.9307 14.7423H80.0003V15.8344Z" fill="#F2F2F2"/>
<path d="M82.7746 10.1677V9.41509H83.4239C83.6896 9.41509 83.8814 9.56267 83.8814 9.78403C83.8814 10.0054 83.6748 10.1677 83.3649 10.1677H82.7746ZM82.3762 11.5844H82.7746V10.5071H83.0107C83.3354 10.5071 83.4535 10.6252 83.7634 11.186L83.9847 11.5844H84.4865L84.1766 11.0827C83.97 10.758 83.8076 10.5367 83.601 10.4629C83.6953 10.4629 83.7886 10.4441 83.8756 10.4076C83.9625 10.3711 84.0412 10.3176 84.1072 10.2502C84.1732 10.1829 84.2251 10.103 84.2598 10.0154C84.2945 9.92772 84.3114 9.83402 84.3094 9.73976C84.3094 9.47412 84.1028 9.09043 83.483 9.09043H82.3762V11.5844ZM85.3424 10.2858C85.3453 10.6717 85.2336 11.0497 85.0213 11.372C84.8091 11.6943 84.5059 11.9463 84.1502 12.096C83.7945 12.2457 83.4024 12.2864 83.0235 12.2129C82.6447 12.1394 82.2962 11.955 82.0223 11.6832C81.7484 11.4114 81.5614 11.0643 81.485 10.686C81.4087 10.3078 81.4464 9.91534 81.5934 9.55853C81.7403 9.20172 81.99 8.89661 82.3107 8.6819C82.6313 8.46719 83.0085 8.35257 83.3944 8.35255C83.9085 8.35254 84.4018 8.55575 84.7667 8.91788C85.1316 9.28001 85.3385 9.77171 85.3424 10.2858V10.2858ZM85.7261 10.2858C85.7261 9.82462 85.5894 9.37381 85.3332 8.99037C85.0769 8.60693 84.7128 8.30807 84.2867 8.13159C83.8607 7.95511 83.3918 7.90894 82.9395 7.99891C82.4872 8.08887 82.0718 8.31094 81.7457 8.63704C81.4196 8.96313 81.1975 9.37859 81.1075 9.8309C81.0176 10.2832 81.0638 10.752 81.2402 11.1781C81.4167 11.6041 81.7156 11.9683 82.099 12.2245C82.4825 12.4807 82.9333 12.6175 83.3944 12.6175C83.7012 12.6194 84.0053 12.5605 84.289 12.444C84.5728 12.3275 84.8306 12.1558 85.0475 11.9389C85.2645 11.722 85.4361 11.4642 85.5526 11.1804C85.6691 10.8966 85.7281 10.5925 85.7261 10.2858" fill="#F2F2F2"/>
<path d="M18.668 8.08594H15.0229V33.4895H18.668V8.08594Z" fill="#F2F2F2"/>
<path d="M36.7167 13.6648C34.5474 11.6283 32.4666 11.0232 30.7547 11.0232C28.4083 11.0232 26.7259 12.2629 26.7259 14.0485C26.7259 18.9185 37.7202 18.8447 37.7202 26.9318C37.7202 30.9163 34.6949 33.8236 30.6071 33.8236C27.8475 33.8236 25.6191 33.0857 23.494 31.4771V26.858C25.3535 29.234 27.6999 30.5474 30.1939 30.5474C33.0273 30.5474 34.326 28.747 34.326 27.3303C34.326 22.0914 23.3464 21.4863 23.3464 14.5355C23.3464 10.3887 26.3865 7.74707 31.0498 7.74707C32.9831 7.74707 34.9311 8.35213 36.7167 9.53273V13.6648Z" fill="#F2F2F2"/>
<path d="M62.6012 13.7534C59.4726 11.9234 56.7868 11.097 53.85 11.097C48.0356 11.097 43.7116 15.2439 43.7116 20.8222C43.7116 26.4005 47.888 30.4736 53.9976 30.4736C56.8606 30.4736 59.9892 29.4701 62.8521 27.6107V31.5952C60.3581 32.8938 57.6427 33.8236 53.6582 33.8236C44.1249 33.8236 39.9485 26.4891 39.9485 21.1616C39.9485 13.4139 45.7925 7.74707 53.8796 7.74707C56.4916 7.74707 59.1332 8.38164 62.6012 9.82788V13.7534Z" fill="#F2F2F2"/>
<path d="M2.22827 21.4573C2.22827 28.8213 6.64076 35.4769 13.7096 40.1551C14.2851 39.7566 14.905 39.3582 15.5691 38.9892C10.2416 34.3996 6.99494 28.2458 6.99494 21.4573C6.99494 14.1081 10.8171 7.48198 16.9563 2.80385C16.3217 2.49395 15.7314 2.18404 15.1706 1.85938C7.24582 6.56701 2.22827 13.6063 2.22827 21.4573Z" fill="#F2F2F2"/>
<path d="M60.5205 1.87402C59.9597 2.19869 59.3547 2.5086 58.7349 2.8185C64.8592 7.49663 68.6667 14.108 68.6667 21.4572C68.6667 28.2309 65.42 34.3995 60.1221 38.9744C60.7862 39.3433 61.3912 39.7418 61.9815 40.1402C69.0208 35.4621 73.4333 28.8212 73.4333 21.4572C73.4333 13.6062 68.4158 6.58166 60.5205 1.87402" fill="#F2F2F2"/>
</svg>
