<svg width="101" height="101" viewBox="0 0 101 101" fill="none" xmlns="http://www.w3.org/2000/svg">
<path d="M49.9665 99.2421C77.1504 99.2421 99.1874 77.1895 99.1874 49.9863C99.1874 22.783 77.1504 0.730469 49.9665 0.730469C22.7825 0.730469 0.745605 22.783 0.745605 49.9863C0.745605 77.1895 22.7825 99.2421 49.9665 99.2421Z" fill="#F2F2F2"/>
<path d="M81.9549 54.1744L79.506 54.9291L80.0599 55.1554L79.2024 55.6988C79.2936 55.1989 79.3822 54.6975 79.4516 54.1909L80.7937 53.0685L80.8249 53.6597L82.336 51.5933L80.0081 52.6626L80.5813 52.8124L79.5113 53.7088C79.5874 53.0903 79.6406 52.4679 79.6813 51.8413L81.0031 50.3769L81.1146 50.96L82.3357 48.7097L80.1673 50.08L80.7636 50.1467L79.7087 51.2841C79.7181 50.8905 79.7304 50.5008 79.7304 50.1071C79.732 47.2303 79.3148 44.3686 78.4918 41.6123C77.1536 41.7361 75.8115 41.3084 75.1675 41.1846C76.8812 42.19 77.4747 43.277 77.7293 44.5263C76.3585 44.8329 74.5249 44.3831 73.5201 43.5972C74.5029 44.4554 75.1223 45.8068 75.1658 47.2003C73.7515 47.2712 72.446 46.6092 71.4864 45.6447C72.1017 46.3327 72.8803 48.0722 72.698 49.3106C71.5151 49.1839 70.1292 48.4089 69.3709 47.4852C69.9985 48.8692 70.2965 49.9916 70.2204 51.2314C69.0484 51.0093 68.1582 50.6771 67.1072 49.6716C67.6135 50.9357 67.8 52.2081 67.6857 53.2516C66.3313 52.772 65.43 52.2285 64.6664 50.9522C65.0734 52.0801 65.3374 53.5582 65.057 54.423C63.9095 54.0785 63.1498 53.3863 62.5548 52.2135C63.1442 53.4586 63.0695 54.9051 62.8735 55.6545C62.3915 55.5604 61.7628 55.2268 61.4347 54.8577C61.4144 55.0766 61.3989 55.2959 61.3884 55.5155C61.3271 56.3575 61.1623 57.1462 60.8874 57.8696C60.9996 57.9942 61.1095 58.1209 61.2169 58.2496C61.82 58.898 62.6463 59.5151 63.297 59.7221C63.0151 59.7628 62.6298 60.0041 62.2421 60.0491C62.6722 60.5367 63.549 60.6458 64.0907 61.2001C63.67 61.2506 63.5708 61.5556 63.0575 61.4984C64.0349 62.2544 64.9307 62.279 65.4303 62.339C65.6332 62.3607 66.2906 62.4235 66.7071 62.3579C67.2965 62.2681 67.9037 62.561 68.1393 62.6972C68.5014 62.9098 68.4822 63.4083 68.4102 63.6616C68.3667 63.8115 68.3026 63.9914 68.0305 64.1317C67.8752 64.178 67.7732 64.1917 67.9313 64.0745C68.0729 63.971 68.2023 63.3389 67.8755 63.0911C67.636 62.9167 67.2984 62.7722 66.9009 62.7929C66.4598 62.8132 65.786 62.8501 65.4593 62.8202C65.1612 62.7862 64.9733 63.1798 64.931 63.3461C64.8247 63.7398 64.7024 64.226 64.1347 63.985C63.4364 63.5844 62.4442 63.6187 61.3034 63.1567C61.464 63.5068 61.3959 63.812 61.5702 64.2043C60.5534 63.9537 60.2961 63.4359 59.3268 63.0953C59.4887 63.4482 59.4411 63.7247 59.6602 64.057C58.8447 63.9152 58.0839 63.1796 56.9498 62.8771C56.913 62.888 56.8818 62.9031 56.8478 62.9098C56.4355 63.0336 56.0555 63.1508 55.7112 63.2613C56.5143 64.1713 57.1787 65.2884 57.489 66.6395C57.489 66.6395 56.9228 66.656 56.0856 66.3645C56.3371 67.1324 56.472 67.9337 56.4859 68.7417C56.4859 68.7417 55.8503 68.6245 54.9777 68.0825C55.0618 68.915 55.0228 69.7554 54.862 70.5766C54.862 70.5766 54.1268 70.2728 53.2584 69.3901C53.1577 70.2184 52.952 71.0534 52.5968 71.887C52.5968 71.887 51.923 71.4306 51.2355 70.3668C50.9433 71.2284 50.5298 72.044 50.0077 72.789C50.0077 72.789 49.2753 72.0178 48.7785 70.465C48.117 71.4607 47.4866 71.8873 47.4866 71.8873C47.1477 71.0893 46.924 70.2472 46.8223 69.3862C45.9553 70.2731 45.2201 70.5769 45.2201 70.5769C45.0581 69.7559 45.0177 68.9155 45.1002 68.0827C44.2304 68.6248 43.5892 68.742 43.5892 68.742C43.6033 67.9335 43.7405 67.1318 43.9962 66.3647C43.1537 66.6563 42.5886 66.6398 42.5886 66.6398C42.9084 65.2613 43.8111 63.8433 44.4183 63.2069C44.1203 63.1115 43.8016 63.0161 43.4545 62.9101C43.4219 62.9034 43.3907 62.8883 43.3511 62.8774C42.2184 63.1798 41.4604 63.9155 40.6407 64.0572C40.8571 63.725 40.815 63.4482 40.9742 63.0956C40.009 63.4362 39.7478 63.9537 38.7363 64.2045C38.905 63.8123 38.837 63.5071 39.0031 63.157C38.0597 63.6187 36.7706 63.939 36.2002 64.0614C35.5671 64.1923 35.5305 63.251 35.3234 63.0426C35.235 62.9527 34.7257 62.9159 34.5135 62.9486C34.1991 63.0016 33.5905 62.9745 33.136 62.9661C32.6785 62.9566 32.3641 63.0914 32.1288 63.2741C31.7926 63.5166 31.9517 64.1747 32.0962 64.2821C32.2528 64.3951 32.1561 64.3803 31.9994 64.3379C31.7298 64.199 31.6604 64.0165 31.6169 63.8667C31.5503 63.6187 31.5244 63.1173 31.8918 62.9103C32.1232 62.7672 32.7343 62.4757 33.3253 62.5672C33.7391 62.6311 34.3953 62.5672 34.5941 62.544C34.7943 62.5209 36.2685 62.2553 37.2417 61.4992C36.7313 61.5564 36.6318 61.2512 36.2072 61.201C36.7544 60.6466 37.6298 60.5376 38.0586 60.0499C37.6747 60.005 37.3343 59.697 37.0527 59.6535C37.9117 59.1767 38.4807 58.8988 39.0865 58.2504C39.0932 58.2395 39.3193 57.9848 39.409 57.8799C39.1356 57.1565 38.9666 56.3583 38.9081 55.5164C38.8944 55.3108 38.8807 55.0996 38.866 54.8828C38.6563 55.1157 38.2234 55.3501 37.5211 55.6034C37.193 54.8052 37.3496 53.3163 37.7689 52.1624C37.1687 53.3366 36.4949 54.1008 35.3446 54.4442C35.0641 53.5833 35.2331 52.0807 35.6345 50.9527C34.8723 52.2291 34.0569 52.8774 32.6983 53.357C32.584 52.315 32.6928 50.9363 33.1951 49.6722C32.1469 50.6776 31.2553 51.0099 30.0805 51.232C30.0083 49.9924 30.3077 48.8698 30.93 47.4858C30.1787 48.4095 28.6144 49.0414 27.4315 49.168C27.5226 48.0931 28.2754 46.6234 28.7139 45.7625C27.6018 46.5606 26.4175 47.1328 25.1365 47.2009C25.2971 45.9817 25.8415 44.663 26.7808 43.5978C25.6768 44.4166 23.9929 44.858 22.7241 44.6847C23.0305 43.347 23.8541 42.0433 24.9634 41.343C24.3194 41.4711 23.1529 41.7367 21.8094 41.6128C21 44.3255 20.5842 47.1405 20.5747 49.9715C19.9036 49.4442 19.4353 49.3109 18.9767 48.8559C19.0611 49.4852 19.1442 49.8284 19.2123 50.6051C19.336 52.0056 19.8685 52.8066 20.7464 53.309C20.786 53.7069 20.8376 54.1005 20.8961 54.4956C20.2468 54.0801 19.3742 53.8212 18.2253 53.8349C18.9237 56.114 19.9243 56.2841 21.2636 56.4981C21.3099 56.7079 21.3603 56.9149 21.4091 57.1219C20.6957 56.9353 19.8367 56.9325 18.8621 57.2023C19.5359 58.2499 20.471 58.8807 21.9631 59.1052C21.9658 59.1147 21.9697 59.1217 21.9753 59.1312C21.0564 59.0575 20.0628 59.194 19.2677 59.5971C20.4004 60.5724 21.5139 60.9443 22.5742 60.8313C22.6285 60.9731 22.6832 61.112 22.7403 61.2509C21.9017 61.473 21.1613 61.9077 20.7475 62.3136C21.631 62.5928 22.5376 62.7413 23.357 62.6567C23.3626 62.6771 23.3746 62.6964 23.3815 62.7167C22.9023 63.0844 22.4858 63.6784 22.2246 64.606C22.8549 64.4492 23.5014 64.4057 24.1454 64.2218C24.2734 64.4629 24.4055 64.6972 24.543 64.9302C24.2026 65.5772 24.0841 66.389 24.2828 67.291C24.8245 67.1629 25.2698 66.9531 25.64 66.6819C25.7666 66.87 25.8945 67.0538 26.0281 67.2419C25.892 68.2744 26.1301 69.3125 26.7426 70.0044C27.0026 69.715 27.2372 69.4037 27.4437 69.074C32.867 75.576 41.0266 79.7117 50.1496 79.7117C62.8788 79.7117 73.7281 71.6635 77.9005 60.3802L79.2439 59.7971L79.1419 60.3855L81.0803 58.7071L78.5701 59.2274L79.0984 59.5L78.0652 59.9263C78.2462 59.4074 78.4165 58.8759 78.5704 58.3447L80.0418 57.5287L79.99 58.1268L81.7706 56.2769L79.3189 57.0193L79.8715 57.2508L78.6925 57.8978C78.8503 57.3217 78.9933 56.7344 79.1146 56.1474L80.235 55.4363L80.1874 56.0289L81.9549 54.1744" fill="black"/>
<path d="M38.0798 40.0401C37.3706 39.6749 36.7486 39.2514 36.0787 38.641C33.9334 36.6822 33.4244 34.6264 34.0614 32.2645C34.4372 30.8531 35.0115 30.1475 34.8155 28.6778C34.7026 27.8386 34.1063 27.1604 33.5127 26.5896C32.0781 25.2111 30.3764 24.3597 27.8634 23.5096C26.3089 22.9879 21.7947 21.5849 19.8047 19.7812C19.35 21.1081 20.3124 22.8707 21.4641 23.1051C20.4459 23.2086 19.58 23.7387 19.1758 24.3148C19.9436 25.2042 21.4736 26.1293 22.7367 26.1552C22.1541 26.5447 21.4381 27.3744 21.2026 27.8403C22.2957 28.4234 24.0409 28.9125 25.3816 28.8156C24.8168 29.2679 24.3281 29.8429 24.0108 30.3685C24.9146 30.7825 26.6802 31.3806 28.3588 31.5059C27.7393 31.8111 26.8572 32.8682 26.4014 33.5193C27.3462 33.9403 29.3909 34.195 30.6593 34.3245C29.7513 34.8013 28.8012 35.7535 28.2785 36.6158C29.1988 37.0572 30.9289 37.5504 32.3418 37.5027C31.6435 38.1742 31.1849 38.9861 30.922 39.7709C31.9906 39.9915 33.1135 39.9957 34.4191 39.82C33.6282 40.824 33.3109 42.1506 33.2008 43.0947C34.2599 43.0674 35.6661 42.8235 36.6583 42.2296C36.4434 43.04 36.4896 44.1381 36.8406 44.9117C37.2571 44.8163 37.7406 44.6433 38.2672 44.3599C38.1941 42.8503 38.1261 41.3097 38.0798 40.0401V40.0401ZM81.1844 22.214C79.1902 24.0204 76.0034 24.5039 72.6588 25.6101C70.1391 26.4398 68.5751 26.9275 66.3194 28.7269C65.6754 29.2405 65.0615 29.9952 65.1309 31.2919C65.207 32.7318 65.4398 33.3531 65.4808 35.3662C65.5067 36.8033 65.0111 37.9614 64.4066 38.641C63.771 39.3644 62.9447 39.991 62.2014 40.379C62.1593 41.6024 62.1033 42.8352 62.0353 44.2656C62.5594 44.5516 63.229 44.816 63.6469 44.9112C63.9926 44.1375 64.0417 43.0395 63.8254 42.229C64.819 42.823 66.228 43.0668 67.2857 43.0941C67.1728 42.15 66.8569 40.8232 66.066 39.8194C67.3674 39.9952 68.4931 39.991 69.5631 39.7703C69.2963 38.9855 68.8363 38.1737 68.1393 37.5021C69.5564 37.5499 71.2824 37.0566 72.2041 36.6152C71.6813 35.7529 70.734 34.8007 69.826 34.3239C71.0934 34.1945 73.1952 33.9479 74.1386 33.5258C73.6825 32.8774 72.7391 31.8108 72.1266 31.5056C73.8038 31.3804 75.5651 30.7822 76.4759 30.3682C76.1562 29.8423 75.6661 29.2676 75.1079 28.8154C76.6803 28.7133 78.1885 28.4231 79.2803 27.84C79.0433 27.3741 78.3316 26.5444 77.7489 26.155C81.1219 25.2137 81.1777 23.5297 81.1844 22.214" fill="black"/>
<path d="M67.0041 25.777C62.2234 22.456 56.4149 20.5039 50.1489 20.5039C44.4423 20.5039 39.1063 22.129 34.5869 24.9311C35.7589 25.8437 36.4545 26.8096 36.6274 27.8108C36.7729 28.6868 36.8738 29.7453 36.3686 31.2887C35.8323 32.926 35.537 34.6083 36.747 36.3166C37.9477 38.0181 39.5103 38.751 40.8022 38.9987C42.6057 38.6857 44.4226 38.4556 46.2472 38.3094C46.4881 37.5151 47.2082 36.8271 47.9353 36.2661C48.9849 35.4461 48.7546 34.7322 48.5071 34.1765C48.3097 33.7404 47.9353 33.3892 47.3936 33.1085C46.9213 32.8647 45.1884 32.6808 45.2375 33.7923C44.9528 33.3892 44.7242 32.8468 44.8918 32.1535C45.1231 31.1849 46.7036 30.9411 47.097 30.9684C46.792 30.7109 46.9799 30.2969 47.6715 30.1033C48.5129 29.8703 49.3078 29.8349 50.0797 29.8552C51.663 29.8935 51.9105 30.2829 52.7151 30.9955C53.6831 31.8578 54.9666 32.1574 55.4704 31.6371C55.1068 32.4626 53.9565 32.9012 53.2175 32.7746C53.5782 33.9162 53.7076 34.9077 53.8355 36.1079C53.8955 36.6527 54.0098 37.5681 54.1567 38.3161C56.2763 38.4918 58.4107 38.7834 60.2675 39.1402C61.0366 38.9167 61.8356 38.4659 62.5477 37.6376C63.2296 36.8528 63.8546 35.8543 63.5959 33.3465C63.5223 32.6395 63.1713 30.8345 63.2201 29.9872C63.33 28.0589 64.7593 26.8029 67.0041 25.777Z" fill="black"/>
<path d="M47.3625 31.0603C47.6538 31.2824 47.8253 31.3122 47.922 31.2891C47.9315 31.3449 48.0324 31.4116 48.0514 31.4347C48.1141 31.4891 48.1495 31.541 48.1643 31.601C48.2964 31.5452 48.6502 31.4007 48.9742 31.2891C49.2981 31.1666 49.7486 31.0372 49.7486 31.0372C48.3508 30.74 48.1384 31.1666 47.3625 31.0603ZM89.3006 36.8334C91.0444 36.0692 91.8325 34.1197 91.096 32.4388C90.3608 30.7565 88.3979 30.0303 86.6554 30.7958C84.9116 31.5586 84.1084 33.4998 84.845 35.1837C85.5788 36.8632 87.5582 37.5975 89.3006 36.8334V36.8334ZM87.2219 32.0834C88.5994 31.4771 90.1774 31.755 90.576 32.6678C90.9817 33.5916 90.1171 34.9402 88.7355 35.5436C87.351 36.1513 85.7667 35.8773 85.3621 34.9538C84.9663 34.0421 85.8294 32.6921 87.2219 32.0834ZM86.864 41.3806L86.1996 38.7486L86.6039 38.6423L86.7918 39.3794L92.3567 37.9669L92.166 37.2312L92.5744 37.1291L93.5844 41.1136L93.8554 41.0427L93.9859 41.5672L92.4478 41.9567L92.3185 41.4445L93.0154 41.2676L92.505 39.258L90.2248 39.8383L90.6209 41.3845L91.2772 41.2171L91.416 41.736L89.5155 42.2184L89.3739 41.6981L90.0491 41.5276L89.6571 39.9815L87.1076 40.6298L87.2696 41.2743L86.864 41.3806V41.3806ZM9.05504 34.3186L8.81556 35.1224L12.4066 36.1931C13.4889 36.5173 14.0551 37.0948 14.1953 38.0185C14.2606 38.4939 14.2241 38.9966 14.081 39.4924C13.6169 41.0385 12.468 41.7879 11.1487 41.3981L7.29366 40.2457L7.07453 40.9719L6.67168 40.8505L7.47069 38.1778L7.86963 38.2964L7.65859 39.0142L11.2196 40.078C12.1861 40.3639 12.6748 40.3232 13.0805 39.9131C13.2733 39.7004 13.4153 39.4465 13.4956 39.1707C13.8399 38.0252 13.362 37.1559 12.1928 36.8058L8.63993 35.7431L8.40435 36.5388L7.99202 36.4188L8.65498 34.2011L9.05504 34.3186V34.3186ZM15.3713 35.8756C15.3003 36.0379 15.1688 36.166 15.0048 36.2327C14.8408 36.2993 14.6573 36.2992 14.4934 36.2324C14.3305 36.163 14.2016 36.032 14.1348 35.8679C14.068 35.7038 14.0687 35.52 14.1368 35.3564C14.2798 35.0158 14.6746 34.8537 15.0108 34.9954C15.1748 35.0648 15.3047 35.1963 15.3722 35.3612C15.4398 35.5261 15.4394 35.711 15.3713 35.8756V35.8756ZM16.6099 33.0272L16.3445 33.504L14.7805 32.6226L15.0501 32.1472L15.6913 32.5096C16.2221 32.2918 16.5012 32.0627 16.7435 31.6364C17.0443 31.0969 16.9408 30.5249 16.4931 30.2702C16.0983 30.0495 15.6846 30.1478 14.7072 30.6625C13.6877 31.2101 13.5433 31.2659 13.1555 31.3463C12.781 31.4199 12.3712 31.3396 11.9876 31.1242C11.0305 30.5821 10.7911 29.5223 11.3899 28.4638C11.5817 28.1231 11.7847 27.8821 12.1058 27.6316L11.8485 27.4845L12.1111 27.0172L13.5962 27.8509L13.3322 28.321L12.7306 27.9831C12.2948 28.2188 12.0757 28.4027 11.8976 28.7255C11.643 29.1763 11.7668 29.7036 12.1725 29.9338C12.5237 30.1313 12.8491 30.0523 13.8521 29.5156C14.3367 29.2609 14.6336 29.0988 14.7574 29.0444C15.0105 28.9191 15.3005 28.8468 15.6191 28.8304C15.9826 28.8153 16.3105 28.9012 16.6495 29.0879C17.6406 29.645 17.9305 30.7593 17.3601 31.777C17.0755 32.2798 16.7666 32.5889 16.3052 32.8559L16.6099 33.0272V33.0272ZM19.225 28.5087C19.225 28.8739 18.935 29.164 18.5715 29.164C18.2079 29.164 17.9222 28.8739 17.9222 28.5087C17.9222 28.1477 18.2079 27.8576 18.5715 27.8576C18.935 27.8576 19.225 28.1477 19.225 28.5087ZM34.6442 15.6806L30.4242 17.8562L30.2362 17.4801L30.909 17.1356L28.2789 12.0298L27.6064 12.3758L27.4157 12.0025L31.0668 10.1213L30.9388 9.87467L31.4138 9.62804L32.142 11.0352L31.6726 11.2766L31.3444 10.6402L29.5014 11.5885L30.5766 13.6823L31.9965 12.9508L31.682 12.3484L32.1599 12.0937L33.0581 13.843L32.5845 14.0949L32.2661 13.475L30.8462 14.2054L31.9748 16.3957L33.8981 15.4039L33.5619 14.7488L34.0342 14.505L34.6442 15.6806V15.6806ZM38.7047 14.2121L35.9631 15.1246L35.8285 14.7254L36.5486 14.4871L34.7395 9.03408L34.0222 9.27233L33.89 8.8731L36.7582 7.92511C37.9288 7.53286 38.9322 7.99039 39.2916 9.08039C39.6373 10.1115 39.0083 11.2654 37.9004 11.6306C37.7398 11.6864 37.6322 11.711 37.371 11.7478L37.2185 11.2805C37.3492 11.2682 37.3994 11.2506 37.4825 11.2275C38.1265 11.0135 38.3334 10.4265 38.0515 9.58591C37.7602 8.69511 37.2539 8.34498 36.5717 8.57375L36.0041 8.76318L37.7697 14.084L38.5701 13.817L38.7047 14.2121ZM46.8043 11.9983L46.3892 12.0678L42.8648 6.21297L42.2685 6.31787L40.8227 13.0378L40.2116 13.1427L40.2852 13.5542L42.3175 13.2013L42.2453 12.7887L41.46 12.9262L41.8235 11.2247L44.2099 10.8107L45.0962 12.2954L44.4048 12.4126L44.477 12.8266L46.8743 12.4112L46.8043 11.9983V11.9983ZM41.9557 10.583L42.5205 7.95245L43.879 10.2491L41.9557 10.583ZM53.6882 12.0025H53.2745C53.0771 12.0025 52.9572 11.9127 52.7244 11.5625L51.3196 9.38281C52.2561 9.09406 52.7149 8.52186 52.7177 7.62157C52.7177 7.09178 52.5624 6.66381 52.2346 6.33015C51.878 5.97332 51.396 5.84108 50.5426 5.8369L47.6008 5.83411V6.25091L48.3564 6.2551L48.3469 11.9983L47.5847 11.9969L47.5805 12.4123L50.3765 12.419V12.0022H49.6265L49.6332 9.48604L49.9042 9.49273L51.3935 11.8371C51.7325 12.3643 51.8303 12.424 52.4186 12.4254L53.6832 12.4296L53.6882 12.0025V12.0025ZM49.6441 6.39822H50.2661C50.9767 6.39961 51.389 6.85743 51.3865 7.65951C51.3865 8.44291 50.9101 8.99307 50.2226 8.99307L49.636 8.98637L49.6441 6.39822V6.39822ZM58.1967 13.2203L55.0292 12.6849L55.1014 12.2751L56.0515 12.4316L56.9812 6.93638L55.2837 6.65042L55.1435 7.46618L54.6018 7.37355L54.8847 5.70215L55.4281 5.79198L55.3818 6.06874L60.0345 6.85604L60.0864 6.58207L60.6239 6.67079L60.3423 8.34219L59.7978 8.25376L59.9406 7.43912L58.2486 7.15037L57.3202 12.647L58.2637 12.8063L58.1967 13.2203V13.2203ZM67.5108 16.3686L64.746 15.2951L64.8971 14.9053L65.6797 15.2147L67.237 11.1934L63.45 14.9L62.923 9.61465L61.3958 13.55L62.1798 13.8497L62.0276 14.2433L59.8781 13.4111L60.0306 13.0188L60.809 13.3199L62.8879 7.96473L62.1079 7.6623L62.2576 7.26866L63.9019 7.91032L64.4288 13.0869L68.0511 9.51784L69.8833 10.229L69.7349 10.624L68.9535 10.3216L66.8804 15.6765L67.6644 15.9775L67.5108 16.3686V16.3686ZM72.3623 19.5466L68.3642 16.9896L68.5916 16.6367L69.2259 17.0454L72.3188 12.2L71.6817 11.7983L71.9023 11.4412L75.3651 13.6535L75.5123 13.4178L75.967 13.7068L75.1175 15.0471L74.6709 14.7611L75.0576 14.1577L73.311 13.0378L72.045 15.0225L73.3888 15.8835L73.752 15.3113L74.2123 15.5905L73.1532 17.2485L72.6971 16.9665L73.0687 16.3753L71.728 15.52L70.4035 17.5945L72.222 18.7593L72.621 18.1393L73.0782 18.4281L72.3623 19.5466V19.5466ZM26.8727 19.823L26.222 20.297L22.985 15.8877L23.6644 15.3835C24.6064 14.6942 26.15 15.1151 27.0171 16.2975C27.9468 17.5605 27.8855 19.0793 26.8727 19.823V19.823ZM28.1509 15.4639C27.0592 13.9777 25.031 13.689 23.5116 14.806L21.0056 16.6465L21.252 16.9857L21.8631 16.5349L25.2554 21.1569C25.416 21.2208 25.578 21.2782 25.7361 21.3379L27.3954 20.116C28.1821 19.5385 28.5961 18.9021 28.7458 18.0453C28.9036 17.1177 28.6926 16.2037 28.1509 15.4639V15.4639ZM80.8483 18.179L80.5678 18.4909L81.1505 19.0168L78.3339 22.1104L79.0445 16.5349L77.5812 15.1958L77.2979 15.5063L77.8301 15.9898L77.7197 16.5795L74.1942 20.4482L73.5856 19.8897L73.2998 20.1988L74.9647 21.719L75.248 21.4085L74.6681 20.8773L77.6015 17.657L76.9712 22.7736C77.5812 22.6129 78.2344 22.4424 78.9327 22.2463C78.9955 22.2287 79.0456 22.2109 79.1042 22.1986L81.6102 19.4428L82.2336 20.0055L82.5154 19.6989L80.8483 18.179V18.179ZM87.5582 25.4315L87.3376 25.5992L84.4695 21.8434L84.6914 21.6719L84.3593 21.2347L83.0117 22.2672L83.3437 22.7044L84.0025 22.2003L85.0479 23.572L80.6211 26.9601L80.3939 26.6576C80.2645 26.7285 80.1379 26.7924 80.0058 26.8457L81.649 28.9939L81.9838 28.7392L81.4039 27.9817L85.8294 24.5912L86.8707 25.9588L86.2133 26.4615L86.5442 26.8948L87.8905 25.8662L87.5582 25.4315V25.4315ZM58.4201 93.9165L57.8851 94.0336L57.4998 92.2819L58.0362 92.1633L58.1915 92.8839C58.7075 93.1345 59.0654 93.1919 59.5472 93.087C60.1488 92.9548 60.5068 92.5 60.3953 91.9931C60.2999 91.556 59.9487 91.3024 58.9155 90.9143C57.8293 90.5234 57.6902 90.4512 57.3732 90.2126C57.0668 89.9839 56.8547 89.6257 56.7607 89.1952C56.5265 88.123 57.161 87.2375 58.3506 86.9761C58.7278 86.893 59.0448 86.8888 59.4491 86.9597L59.3838 86.6667L59.9093 86.5537L60.2743 88.2212L59.7488 88.337L59.6004 87.6683C59.1321 87.4897 58.8516 87.4504 58.4911 87.528C57.986 87.6409 57.6718 88.0893 57.771 88.5443C57.8594 88.9326 58.136 89.1274 59.2004 89.5224C59.715 89.7105 60.0334 89.8234 60.1575 89.8779C60.4325 89.995 60.6811 90.1665 60.8884 90.382C61.143 90.6462 61.2997 90.9458 61.3839 91.3289C61.6247 92.4389 60.9877 93.3939 59.8455 93.6447C59.2832 93.7661 58.8477 93.7387 58.3453 93.5739L58.4201 93.9165V93.9165ZM68.5521 90.7262L64.136 92.4629L63.9836 92.0721L64.6875 91.7928L62.5896 86.446L61.8832 86.7267L61.7335 86.337L65.5573 84.8318L65.4525 84.5701L65.9535 84.374L66.5333 85.8507L66.0404 86.0443L65.7817 85.3767L63.8433 86.1355L64.7078 88.3272L66.1916 87.7417L65.9465 87.1123L66.4489 86.9053L67.1609 88.7332L66.6652 88.9444L66.4054 88.2918L64.9242 88.8721L65.8241 91.1662L67.8347 90.3747L67.5665 89.6909L68.07 89.4948L68.5521 90.7262V90.7262ZM75.195 86.679C74.6327 87.3832 74.2379 87.7525 73.59 88.1434C71.7946 89.2331 69.7784 88.8012 68.7508 87.1053C67.7313 85.4244 68.254 83.3959 69.9663 82.3539C70.5164 82.0174 70.9438 81.8606 71.5713 81.7722L71.3536 81.4168L71.8234 81.1308L72.7464 82.6594L72.2795 82.9442L71.9474 82.3966C71.2532 82.3544 70.9223 82.4253 70.4746 82.6962C69.2903 83.4168 69.0617 84.9072 69.922 86.3238C70.7592 87.7037 72.3193 88.2282 73.4966 87.5146C73.9212 87.2529 74.1733 86.975 74.4236 86.4834L74.0288 85.8378L74.5067 85.5491L75.195 86.679V86.679ZM78.1953 76.3858L77.5745 76.9496L80.0997 79.7205C80.8605 80.5541 81.0485 81.3375 80.6919 82.2013C80.4966 82.6598 80.204 83.0702 79.8343 83.4043C78.642 84.4982 77.2711 84.5431 76.3428 83.5323L73.6285 80.5544L73.069 81.0624L72.7899 80.7544L74.8482 78.8732L75.1314 79.1824L74.5789 79.6837L77.0863 82.4353C77.7629 83.1777 78.2054 83.3956 78.7607 83.2542C79.0369 83.1733 79.2904 83.0292 79.5012 82.8332C80.3861 82.0294 80.4228 81.0323 79.6004 80.1331L77.1025 77.3938L76.4925 77.9523L76.2053 77.6334L77.9082 76.075L78.1953 76.3858V76.3858ZM89.3876 70.5678L88.0605 73.0226L87.69 72.8223L88.0522 72.1536L83.0033 69.4195L82.6384 70.0868L82.279 69.8854L83.6035 67.4306L83.9713 67.6323L83.6116 68.286L88.6647 71.0229L89.0187 70.3675L89.3876 70.5678V70.5678ZM91.936 64.5972L90.8033 67.6036L90.4141 67.4538L90.7531 66.5493L85.5394 64.585L84.9281 66.1978L85.7067 66.4893L85.5107 67.0054L83.9261 66.4062L84.1154 65.894L84.3822 65.9908L86.0457 61.5688L85.7842 61.4709L85.9777 60.9545L87.5635 61.5538L87.3703 62.0688L86.5958 61.7745L85.9914 63.3792L91.2064 65.3449L91.5426 64.4499L91.936 64.5972ZM93.7001 57.2588L93.1651 59.9995L92.7514 59.9192L92.8969 59.1863L90.2002 58.6565L86.8829 60.0213L86.7631 60.6398L86.3521 60.5539L86.8882 57.8145L87.298 57.8977L87.155 58.6225L89.5674 57.6552L87.6833 55.9291L87.5186 56.7602L87.1101 56.6813L87.5554 54.3981L87.9624 54.4798L87.8277 55.1854L90.1894 57.3419L93.1434 57.9222L93.2889 57.1798L93.7001 57.2588V57.2588ZM80.0805 74.0864L80.4535 73.5809C80.8742 73.0087 81.4895 72.9585 82.1279 73.4338C82.7583 73.9051 82.923 74.6053 82.5104 75.1585L82.1619 75.6297L80.0805 74.0864V74.0864ZM86.9919 74.1601L86.7455 74.4912C86.6256 74.6505 86.4829 74.6968 86.0636 74.6698L83.4745 74.5091C83.804 73.5867 83.6105 72.8703 82.8932 72.3349C82.4672 72.0216 82.0276 71.8922 81.5673 71.9602C81.0635 72.0353 80.6785 72.3416 80.1652 73.0338L78.4147 75.396L78.7468 75.644L79.2029 75.0363L83.8107 78.4598L83.3602 79.0674L83.695 79.3179L85.3599 77.0743L85.0223 76.8263L84.5771 77.4298L82.5623 75.9258L82.7201 75.7118L85.4915 75.9093C86.1163 75.9514 86.2253 75.9051 86.5777 75.4339L87.3304 74.415L86.9919 74.1601V74.1601ZM8.0068 63.4283L7.33966 60.7135L7.74808 60.6153L7.9293 61.3429L10.4721 60.7202L9.70155 57.5735L7.15733 58.1934L7.33576 58.9207L6.93151 59.0175L6.26855 56.308L6.6714 56.2084L6.85512 56.9455L12.4323 55.5818L12.2539 54.8436L12.657 54.7468L13.3172 57.4577L12.9101 57.5556L12.7331 56.8311L10.2761 57.4304L11.0478 60.5798L13.5065 59.9778L13.3238 59.2505L13.7365 59.1537L14.3966 61.8646L13.991 61.9653L13.8101 61.231L8.2329 62.5919L8.41662 63.3315L8.0068 63.4283V63.4283ZM13.9542 69.6661C15.6899 68.8774 16.4493 66.9212 15.6899 65.2498C14.9263 63.5784 12.9539 62.8767 11.2223 63.6682C9.49358 64.4597 8.71353 66.4104 9.47434 68.0818C10.2324 69.7532 12.2226 70.4573 13.9542 69.6661V69.6661ZM11.8061 64.946C13.1769 64.3208 14.7574 64.5741 15.1697 65.4841C15.5876 66.3995 14.7409 67.7618 13.3729 68.3884C11.9912 69.015 10.4066 68.7617 9.99149 67.8463C9.57777 66.9349 10.4244 65.5765 11.8061 64.946ZM16.4861 79.143L14.7493 76.7443L15.0855 76.4991L15.5781 77.1773L19.063 74.6463L13.8725 75.702L16.2915 70.9793L12.8775 73.4545L13.3729 74.1341L13.0325 74.3807L11.6782 72.5171L12.0172 72.2705L12.5112 72.9476L17.1547 69.5693L16.6632 68.8936L17.0036 68.6498L18.0368 70.0746L15.6777 74.7158L20.6518 73.6752L21.8141 75.2743L21.4725 75.5195L20.981 74.8424L16.3336 78.2182L16.8279 78.8964L16.4861 79.143ZM21.6727 84.2446L18.1809 81.027L18.4669 80.7218L19.0251 81.2301L22.9156 77.0085L22.3588 76.4921L22.6404 76.1872L25.6652 78.9714L25.8476 78.7644L26.2507 79.1307L25.1751 80.2955L24.7845 79.9387L25.2691 79.4142L23.7458 78.0042L22.1517 79.7342L23.3237 80.8144L23.7854 80.3159L24.1854 80.6755L22.8542 82.1209L22.4553 81.7641L22.9236 81.2477L21.753 80.1689L20.0828 81.9778L21.6741 83.4464L22.1737 82.9043L22.5685 83.2678L21.6727 84.2446V84.2446ZM27.6064 88.3164L23.7009 85.6872L23.9379 85.3413L24.5665 85.7664L27.7698 80.9958L27.1423 80.5748L27.3764 80.226L29.6918 81.7831L29.4565 82.1332L28.8398 81.715L25.728 86.3425L27.4893 87.5319L27.9003 86.9173L28.3469 87.2197L27.6064 88.3164V88.3164ZM34.7911 91.3718L34.41 91.1988L34.7992 84.374L34.2466 84.1221L29.2672 88.8573L28.7049 88.6012L28.532 88.9812L30.408 89.8366L30.585 89.4566L29.8554 89.1254L31.1172 87.9224L33.3196 88.9251L33.212 90.6537L32.5803 90.3664L32.4033 90.7449L34.6166 91.7529L34.7911 91.3718ZM31.5828 87.4677L33.5335 85.6163L33.362 88.2781L31.5828 87.4677ZM41.6875 93.7287L41.0095 93.5652L38.773 88.0003L37.7602 92.2397L38.5252 92.425L38.4284 92.8309L36.2383 92.3092L36.3347 91.8977L37.1379 92.091L38.359 86.999L38.1644 86.431L37.4661 86.265L37.5628 85.8549L39.4956 86.318L41.5634 91.5423L42.5381 87.4786L41.7717 87.2933L41.8684 86.886L44.0627 87.4105L43.9607 87.8192L43.1439 87.6231L41.6875 93.7287V93.7287ZM47.9111 94.2189C48.8872 94.2543 49.6031 94.0133 50.2524 93.4369C50.9536 92.8008 51.355 91.9602 51.389 91.0421C51.4543 89.1977 50.0414 87.7115 48.1573 87.6432L45.0497 87.5274L45.0374 87.9498L45.7943 87.9743L45.586 93.7147L44.8291 93.6888L44.8155 94.1084L47.9111 94.2189V94.2189ZM47.15 88.3872L47.9925 88.4213C49.1604 88.4648 50.1108 89.7562 50.0617 91.2192C50.0018 92.7843 49.0107 93.9354 47.7611 93.8919L46.9513 93.8621L47.15 88.3872V88.3872Z" fill="black"/>
<path d="M50.1476 64.949H49.8318C49.6726 63.9533 48.9497 63.3389 47.8975 63.0159C47.0971 62.7664 45.9374 62.3893 43.4542 61.629C40.5752 60.7435 39.1062 58.4251 38.9074 55.5153C38.6284 51.4 38.2186 44.1692 38.0649 39.5662C41.3142 38.7695 46.1099 38.1426 50.1476 38.1426C54.1864 38.1426 58.9796 38.7692 62.2303 39.5662C62.0834 44.1692 61.6641 51.4 61.3889 55.5153C61.1887 58.4251 59.7215 60.7435 56.8422 61.629C54.3579 62.3893 53.1995 62.7664 52.3988 63.0159C51.3439 63.3386 50.621 63.953 50.4657 64.949H50.1476" fill="#F2F2F2"/>
<path d="M49.3253 54.4424L48.736 54.1467L48.3563 53.1535L47.4945 52.776L46.5227 51.9084L45.9456 52.5445L45.0838 52.7476L44.625 53.4738L43.9322 54.2109L42.9887 54.7136L42.3367 55.8184L41.9664 56.3075L41.3308 56.8046L40.9781 56.4313L40.6009 56.7909L40.1301 57.6642C39.8822 57.0116 39.7325 56.5064 39.6578 55.4627C39.519 53.5282 39.3787 51.1007 39.2427 48.6147C42.4309 47.9267 46.4887 47.4717 49.7831 47.4404V54.975C49.6317 54.8838 49.4806 54.8115 49.3253 54.4424" fill="black"/>
<path d="M49.7828 58.0723H40.3015C40.4383 58.3612 40.6004 58.6375 40.786 58.8978C41.468 59.8569 42.4401 60.5653 43.6732 60.9439C44.8482 61.3033 46.0212 61.6694 47.192 62.042L48.1204 62.3321C48.8787 62.5665 49.4095 62.9096 49.7825 63.2857V58.0723" fill="black"/>
<path d="M59.795 54.4046C60.0551 54.1976 60.3532 53.9565 60.7465 53.8134C60.8023 52.9265 60.8594 51.9799 60.9194 50.999C60.8146 51.0699 60.7055 51.1597 60.5709 51.266C60.119 51.6323 59.5542 52.0929 58.5589 52.0929C57.6277 52.0929 57.0233 51.7196 56.5388 51.42C56.1454 51.1762 55.8282 50.9854 55.364 50.9854C54.8521 50.9854 54.4125 51.247 53.9441 51.5288C53.439 51.8284 52.8688 52.1705 52.1705 52.1705C51.4545 52.1705 50.9371 51.9498 50.5139 51.7196V54.3828C50.6093 54.4372 50.7032 54.4944 50.7944 54.5505C51.219 54.8122 51.5867 55.0382 52.1707 55.0382C52.5315 55.0382 52.8895 54.8231 53.3115 54.5681C53.8739 54.233 54.5137 53.8516 55.3643 53.8516C56.1727 53.8516 56.7077 54.1772 57.1856 54.4688C57.6077 54.733 57.9765 54.955 58.5592 54.955C59.1156 54.955 59.4192 54.714 59.795 54.4046V54.4046ZM52.1705 60.4762C51.4545 60.4762 50.9371 60.2583 50.5139 60.0225V63.2836C50.8855 62.9089 51.415 62.5658 52.1774 62.3314L53.1016 62.0413C53.8803 61.7933 54.9433 61.4568 56.6219 60.9432C57.1106 60.792 57.5597 60.5917 57.9667 60.3397C57.3568 60.2281 56.9132 59.9556 56.5388 59.7254C56.1454 59.4816 55.8282 59.2894 55.364 59.2894C54.8521 59.2894 54.4125 59.555 53.9441 59.8342C53.4392 60.133 52.8688 60.4762 52.1705 60.4762" fill="black"/>
<path d="M59.795 50.3081C60.1053 50.0587 60.4811 49.7591 60.9972 49.6405C61.0175 49.3013 61.0367 48.9581 61.0557 48.6147C57.8675 47.9267 53.8136 47.4717 50.5139 47.4404V50.2861C50.6093 50.3433 50.7032 50.3966 50.7944 50.4549C51.219 50.7138 51.5867 50.9439 52.1707 50.9439C52.5315 50.9439 52.8895 50.7233 53.3115 50.4727C53.8739 50.1321 54.5137 49.7521 55.3643 49.7521C56.1727 49.7521 56.7077 50.0858 57.1856 50.372C57.6077 50.6348 57.9765 50.8597 58.5592 50.8597C59.1156 50.8597 59.4192 50.6172 59.795 50.3081V50.3081ZM50.5139 55.8156V58.5904C50.6093 58.6434 50.7032 58.7034 50.7944 58.7581C51.219 59.0198 51.5867 59.2471 52.1707 59.2471C52.5315 59.2471 52.8895 59.0292 53.3115 58.7784C53.8739 58.442 54.5137 58.0592 55.3643 58.0592C56.1727 58.0592 56.7077 58.3876 57.1856 58.6763C57.6077 58.9405 57.9765 59.1654 58.5592 59.1654C59.0125 59.1654 59.2957 59.0033 59.591 58.7798C60.1995 57.8781 60.5533 56.7611 60.6392 55.4627C60.6406 55.4055 60.6459 55.3522 60.6501 55.3006C60.6241 55.3182 60.5982 55.3413 60.5712 55.362C60.1193 55.7283 59.5544 56.1833 58.5592 56.1833C57.628 56.1833 57.0236 55.8156 56.5391 55.5185C56.1457 55.2705 55.8284 55.0785 55.3643 55.0785C54.8524 55.0785 54.4128 55.3413 53.9444 55.6262C53.4392 55.9258 52.8691 56.2664 52.1707 56.2664C51.4545 56.2664 50.9371 56.0485 50.5139 55.8156" fill="black"/>
<path d="M39.2003 47.889C39.0492 45.1182 38.917 42.3269 38.8342 40.1271C42.1978 39.3615 46.6492 38.8574 50.1477 38.8574C53.6462 38.8574 58.1043 39.3615 61.4598 40.1271C61.3837 42.3272 61.2488 45.1184 61.0949 47.889C57.9287 47.2203 53.7413 46.7204 50.1474 46.7204C46.5564 46.7201 42.3679 47.22 39.2003 47.889" fill="black"/>
<path d="M41.4085 41.9566L41.5309 41.3602L40.9783 41.108L41.5813 41.0441L41.6424 40.4392L41.8902 40.9964L42.4785 40.8736L42.0318 41.2809L42.3368 41.811L41.8113 41.5016L41.4085 41.9566V41.9566ZM45.0974 41.4676L44.5869 41.1353L44.161 41.5739L44.3135 40.9827L43.7757 40.7076L44.3745 40.668L44.4671 40.0659L44.6862 40.6326L45.2839 40.5358L44.8183 40.9255L45.0974 41.4676V41.4676ZM47.8649 41.2525L47.3734 40.8957L46.9282 41.3097L47.1108 40.728L46.5853 40.4256L47.1869 40.4189L47.311 39.8193L47.5014 40.3996L48.1005 40.3329L47.6132 40.6939L47.8649 41.2525V41.2525ZM50.6311 41.1925L50.1613 40.8097L49.6943 41.1925L49.9082 40.6231L49.3991 40.2866L50.0049 40.3193L50.1613 39.7295L50.3152 40.3193L50.9196 40.2866L50.4172 40.6231L50.6311 41.1925ZM58.5099 41.5086L57.9872 41.8149L58.2883 41.2851L57.8402 40.8778L58.431 41.0031L58.6802 40.4406L58.7388 41.048L59.3432 41.1135L58.7878 41.3669L58.9155 41.9622L58.5099 41.5086V41.5086ZM55.5004 40.9255L55.0306 40.5372L55.6256 40.6368L55.85 40.0659L55.94 40.668L56.5444 40.7048L56.0039 40.9827L56.1592 41.5739L55.729 41.1353L55.2213 41.4704L55.5004 40.9255ZM52.7083 40.6967L52.2249 40.3329L52.8254 40.4024L53.0147 39.8207L53.1385 40.4228L53.7415 40.4256L53.2132 40.7308L53.3972 41.3139L52.952 40.8957L52.4605 41.2525L52.7083 40.6967V40.6967ZM41.8113 46.4399L41.9351 45.8446L41.3878 45.5885L41.987 45.5313L42.0578 44.925L42.3 45.485L42.888 45.3664L42.4403 45.7695L42.7344 46.2996L42.2128 45.9877L41.8113 46.4399ZM45.3996 45.9877L44.8919 45.651L44.4632 46.0828L44.6182 45.4958L44.0832 45.2138L44.6851 45.1812L44.7801 44.5791L44.9995 45.1524L45.5942 45.0573L45.1233 45.4414L45.3996 45.9877V45.9877ZM48.0609 45.7941L47.5666 45.4345L47.1231 45.8485L47.3068 45.2643L46.7841 44.9605L47.3871 44.9591L47.5084 44.3598L47.696 44.9387L48.3004 44.8706L47.8117 45.2356L48.0609 45.7941V45.7941ZM50.7236 45.745L50.2525 45.3597L49.7844 45.745L50.0021 45.1703L49.4944 44.8366L50.0947 44.8692L50.2525 44.2792L50.4078 44.8692L51.0108 44.8366L50.5056 45.1703L50.7236 45.745ZM58.2908 46.0217L57.768 46.3322L58.0702 45.8011L57.6211 45.3937L58.2105 45.512L58.4555 44.9591L58.5183 45.5625L59.1213 45.6239L58.5698 45.8772L58.6978 46.4754L58.2908 46.0217ZM55.3844 45.4632L54.9149 45.0777L55.5124 45.1703L55.729 44.6023L55.8215 45.2071L56.4273 45.2383L55.8868 45.5162L56.0393 46.106L55.6147 45.673L55.1056 46.0081L55.3844 45.4632ZM52.6919 45.245L52.2115 44.8829L52.8117 44.9496L53.001 44.3718L53.1234 44.9672L53.7306 44.9794L53.1998 45.2752L53.3808 45.8583L52.9369 45.4454L52.4468 45.8022L52.6919 45.245V45.245ZM43.1303 43.7943L43.2719 43.2004L42.7288 42.932L43.3332 42.8871L43.4135 42.2808L43.6396 42.8449L44.2318 42.7414L43.7757 43.1351L44.0628 43.6744L43.5482 43.353L43.1303 43.7943V43.7943ZM40.484 44.2153L40.6067 43.6146L40.0499 43.368L40.6488 43.3L40.7087 42.6937L40.9591 43.2467L41.5512 43.1256L41.1035 43.5329L41.4085 44.0641L40.8844 43.7561L40.484 44.2153V44.2153ZM46.7119 43.421L46.2151 43.0709L45.774 43.4975L45.9483 42.9074L45.4133 42.6173L46.0205 42.6025L46.1253 41.999L46.3294 42.5751L46.9282 42.4934L46.4506 42.8681L46.7119 43.421V43.421ZM49.3637 43.293L48.8817 42.9197L48.4259 43.3217L48.6243 42.7453L48.1072 42.4267L48.7074 42.439L48.8477 41.845L49.0219 42.4267L49.6235 42.3818L49.1267 42.7319L49.3637 43.293V43.293ZM52.0166 43.3284L51.558 42.9253L51.0788 43.2944L51.313 42.7319L50.8201 42.3818L51.4206 42.4295L51.5948 41.8464L51.7323 42.4429L52.3367 42.4295L51.8193 42.7481L52.0166 43.3284V43.3284ZM59.5623 43.7753L59.0287 44.0722L59.3432 43.5533L58.9074 43.1337L59.4929 43.2698L59.7488 42.7141L59.7979 43.3217L60.3995 43.4007L59.84 43.6378L59.9543 44.2413L59.5623 43.7753V43.7753ZM56.6682 43.1526L56.204 42.759L56.799 42.8639L57.0332 42.3001L57.1107 42.9074L57.7109 42.9526L57.1706 43.2168L57.3108 43.8108L56.8968 43.368L56.3783 43.6964L56.6682 43.1526V43.1526ZM53.9905 42.8804L53.514 42.5043L54.1145 42.5846L54.3158 42.0113L54.4234 42.6092L55.0292 42.6351L54.4956 42.9197L54.6618 43.5084L54.226 43.086L53.7306 43.4305L53.9905 42.8804V42.8804ZM23.207 56.8841C24.0985 55.6158 25.7757 55.3421 25.0188 51.9365C23.1169 52.7687 22.2309 55.1418 23.207 56.8841ZM23.0829 48.3702C22.4729 48.6222 21.6115 49.4683 21.2234 50.584C21.8632 51.3236 22.1342 52.2322 22.1055 53.0578C23.2694 51.9909 23.6737 50.1505 23.0829 48.3702ZM24.2114 60.1507C24.2889 60.1616 24.27 60.1535 24.1841 60.1262C23.2898 59.6276 22.658 59.4546 21.4303 59.6206C22.5819 59.7052 23.3893 59.8661 24.2114 60.1507ZM27.948 64.2864C27.9372 64.3123 27.9249 64.3394 27.9182 64.3667C27.8856 65.7441 28.7677 67.278 27.19 69.4532C27.1139 69.7135 27.0102 70.2759 27.8217 69.3115C29.4223 67.4102 28.0612 65.8585 27.948 64.2864V64.2864ZM24.7615 66.4416C24.8936 65.5834 25.4626 64.5604 26.2984 63.871C26.8797 63.3886 27.2092 63.2117 26.7219 63.724C25.9826 64.4962 25.1236 65.7508 24.7615 66.4416V66.4416ZM26.5881 68.7806C26.2683 67.974 26.5474 66.6787 26.8931 65.8286C27.1354 65.2455 27.7317 64.3575 27.921 64.2744C27.2594 65.2932 26.553 67.9986 26.5881 68.7806V68.7806ZM23.9078 57.5285C23.8939 57.456 23.8656 57.3869 23.8248 57.3253C23.7839 57.2638 23.7313 57.2109 23.6699 57.1699C23.6085 57.1288 23.5395 57.1004 23.467 57.0862C23.3946 57.072 23.32 57.0723 23.2477 57.0872C23.1751 57.1013 23.106 57.1297 23.0445 57.1707C22.9829 57.2117 22.9301 57.2645 22.8891 57.3261C22.8481 57.3876 22.8197 57.4567 22.8055 57.5294C22.7914 57.602 22.7917 57.6767 22.8066 57.7492C22.8363 57.8955 22.9224 58.0241 23.0462 58.1073C23.1701 58.1904 23.3217 58.2214 23.4682 58.1933C23.5409 58.179 23.6101 58.1504 23.6717 58.1091C23.7333 58.0679 23.786 58.0148 23.8269 57.9529C23.8678 57.8911 23.8961 57.8217 23.9099 57.7488C23.9238 57.676 23.9231 57.6011 23.9078 57.5285V57.5285ZM28.8139 58.2994C28.8343 57.4574 28.7049 56.5883 28.8017 55.6049C27.1259 56.831 26.553 58.9792 27.2486 60.4791C27.1763 60.4682 27.1055 60.464 27.0308 60.4833C26.879 60.5142 26.7457 60.6042 26.6601 60.7334C26.5746 60.8627 26.5439 61.0207 26.5747 61.1726C26.6375 61.4845 26.9463 61.6901 27.265 61.6263C27.34 61.6112 27.4114 61.5815 27.4749 61.5388C27.5384 61.4962 27.5929 61.4414 27.6353 61.3776C27.6777 61.3138 27.707 61.2423 27.7218 61.1672C27.7365 61.092 27.7363 61.0147 27.7211 60.9397C27.6843 60.779 27.5931 60.6453 27.4652 60.565C27.1875 59.2367 27.4161 57.5762 28.1117 56.8774C27.8967 57.7085 27.5006 59.4507 27.7551 61.0566C28.03 60.7433 28.2357 60.4422 28.3882 60.1398C28.4209 60.3959 28.4794 60.6562 28.5856 60.9313C28.6238 59.6522 29.0498 58.3881 30.3771 57.5054C29.4053 58.7382 28.8496 60.178 28.7339 61.2639C29.439 60.3661 31.0426 60.0991 31.1583 56.5847C30.3453 56.8311 29.3721 57.4222 28.8139 58.2994V58.2994ZM29.9219 61.9147C29.8524 61.5797 29.5352 61.3657 29.2045 61.4338C29.1254 61.4495 29.0502 61.4807 28.9833 61.5256C28.9163 61.5706 28.8589 61.6283 28.8143 61.6956C28.7698 61.7628 28.739 61.8382 28.7237 61.9175C28.7084 61.9967 28.709 62.0782 28.7253 62.1572C28.7919 62.4869 29.1173 62.6967 29.4468 62.6298C29.7777 62.5606 29.9902 62.2431 29.9219 61.9147ZM29.7097 63.7647C29.6771 63.6055 29.583 63.4655 29.4479 63.3752C29.3129 63.2849 29.1477 63.2515 28.9882 63.2823C28.8301 63.315 28.6913 63.409 28.6023 63.5438C28.5133 63.6786 28.4812 63.8432 28.5131 64.0015C28.5784 64.3338 28.8998 64.5464 29.2346 64.4825C29.3926 64.4501 29.5313 64.3564 29.6204 64.2218C29.7094 64.0873 29.7415 63.9229 29.7097 63.7647" fill="#F2F2F2"/>
<path d="M26.1756 54.7463C24.9342 55.783 24.5871 57.0839 24.7218 58.228C24.6734 58.2219 24.6244 58.2228 24.5762 58.2308C24.5149 58.2427 24.4566 58.2667 24.4046 58.3013C24.3526 58.3358 24.3079 58.3803 24.2731 58.4322C24.2383 58.4841 24.2141 58.5424 24.2019 58.6037C24.1896 58.6649 24.1896 58.728 24.2018 58.7893C24.2548 59.0454 24.5054 59.2142 24.7586 59.1598C24.8185 59.1489 24.8701 59.1244 24.9164 59.097C25.0274 59.4142 25.1793 59.7156 25.3683 59.9934C25.2546 59.5869 25.1767 59.1712 25.1355 58.7511C25.1383 58.702 25.1422 58.6504 25.1299 58.6041C25.1299 58.5904 25.1232 58.5823 25.1204 58.5714C25.0552 57.6003 25.2077 56.5934 25.7438 55.8675C25.5776 56.9313 25.3273 58.9788 25.5654 60.254C25.9292 58.897 27.8827 58.2989 26.1756 54.7463V54.7463ZM31.1361 62.7398C31.1091 62.6167 31.035 62.5091 30.9297 62.4401C30.8243 62.3711 30.6962 62.3462 30.5727 62.3707C30.45 62.3962 30.3422 62.4688 30.2725 62.573C30.2028 62.6772 30.1766 62.8046 30.1997 62.9278C30.2582 63.1867 30.5047 63.3527 30.762 63.3011C30.8853 63.2751 30.9936 63.2018 31.0635 63.0968C31.1335 62.9919 31.1595 62.8637 31.1361 62.7398ZM28.5102 62.6527C28.4932 62.5679 28.4515 62.49 28.3902 62.429C28.329 62.3679 28.2511 62.3263 28.1663 62.3096C28.0815 62.2928 27.9936 62.3016 27.9138 62.3348C27.8339 62.3681 27.7658 62.4242 27.7178 62.4962C27.6699 62.5682 27.6444 62.6528 27.6445 62.7393C27.6446 62.8258 27.6703 62.9103 27.7184 62.9822C27.7665 63.0541 27.8348 63.1101 27.9147 63.1431C27.9946 63.1761 28.0825 63.1847 28.1673 63.1677C28.4029 63.1214 28.5551 62.8871 28.5102 62.6527ZM22.526 56.6289C22.5096 56.5364 22.4615 56.4527 22.3899 56.392C22.3183 56.3314 22.2278 56.2976 22.1341 56.2966C21.5188 55.463 20.6339 54.5719 19.1597 54.4221C19.9682 54.8007 21.1826 55.5486 22.0237 56.3075C21.926 56.3333 21.8414 56.3947 21.7866 56.4796C21.7317 56.5646 21.7105 56.6669 21.727 56.7667C21.7467 56.8728 21.8072 56.967 21.8955 57.0289C21.9838 57.0908 22.0929 57.1156 22.1993 57.0978C22.3044 57.0783 22.3976 57.0181 22.4587 56.9303C22.5198 56.8426 22.544 56.7343 22.526 56.6289V56.6289ZM22.5453 53.8337C22.5319 53.7678 22.5056 53.7052 22.4679 53.6496C22.4302 53.5939 22.3818 53.5463 22.3256 53.5094C22.2694 53.4726 22.2065 53.4472 22.1405 53.4348C22.0744 53.4224 22.0066 53.4233 21.9409 53.4373C21.9314 53.4387 21.9191 53.44 21.9068 53.4467C21.5706 52.1377 21.2495 51.1214 19.7683 50.1025C20.5073 51.0561 21.3663 52.4416 21.8483 53.4646C21.7386 53.5098 21.648 53.5917 21.5919 53.6963C21.5358 53.8009 21.5176 53.9217 21.5405 54.0382C21.5538 54.1043 21.58 54.1672 21.6175 54.2231C21.6551 54.2791 21.7034 54.3271 21.7595 54.3645C21.8156 54.4018 21.8786 54.4276 21.9447 54.4406C22.0108 54.4535 22.0789 54.4533 22.1449 54.4399C22.2778 54.4117 22.3943 54.3323 22.4692 54.2189C22.5441 54.1055 22.5714 53.9671 22.5453 53.8337V53.8337ZM24.0479 58.9679C24.0295 58.8623 23.9701 58.7682 23.8825 58.7064C23.795 58.6446 23.6866 58.6201 23.581 58.6381C23.5296 58.6465 23.4804 58.665 23.4362 58.6926C23.392 58.7202 23.3538 58.7563 23.3236 58.7988C22.0142 57.6382 21.1115 57.6313 20.4201 57.6C20.8366 57.7484 22.3353 58.1803 23.2896 58.856C23.2489 58.9318 23.2349 59.0192 23.25 59.104C23.2676 59.2105 23.3265 59.3057 23.4141 59.3688C23.5016 59.4319 23.6105 59.4576 23.717 59.4405C23.7698 59.4313 23.8203 59.4119 23.8656 59.3831C23.9108 59.3544 23.95 59.317 23.9807 59.2731C24.0115 59.2291 24.0333 59.1796 24.0448 59.1272C24.0563 59.0748 24.0574 59.0207 24.0479 58.9679V58.9679ZM25.1491 60.6094C25.0878 60.2933 24.7775 60.0891 24.4617 60.1502C24.3102 60.1818 24.1773 60.272 24.0919 60.401C24.0065 60.5301 23.9755 60.6877 24.0056 60.8396C24.0205 60.915 24.0502 60.9866 24.093 61.0504C24.1358 61.1142 24.1909 61.1689 24.255 61.2112C24.319 61.2535 24.3909 61.2827 24.4663 61.297C24.5418 61.3113 24.6193 61.3105 24.6944 61.2946C25.0103 61.2332 25.2119 60.9199 25.1491 60.6094V60.6094ZM25.9986 61.6146C25.99 61.5623 25.9712 61.5122 25.9432 61.4672C25.9152 61.4222 25.8785 61.3831 25.8354 61.3524C25.7922 61.3216 25.7434 61.2997 25.6918 61.2878C25.6401 61.276 25.5867 61.2745 25.5344 61.2835C25.3928 61.3052 25.2813 61.3951 25.2308 61.515C24.0886 61.3652 22.8472 61.5231 21.8017 62.1048C22.9724 61.8336 24.1976 61.5817 25.1996 61.5789H25.2063C25.1912 61.6333 25.1887 61.6905 25.194 61.7491C25.2375 61.967 25.4472 62.121 25.6663 62.0814C25.719 62.0731 25.7695 62.0544 25.8149 62.0263C25.8603 61.9982 25.8996 61.9614 25.9305 61.9179C25.9615 61.8744 25.9835 61.8252 25.9952 61.7731C26.0068 61.7211 26.008 61.6672 25.9986 61.6146V61.6146ZM27.1734 62.2984C27.16 62.2302 27.1331 62.1653 27.0944 62.1076C27.0556 62.0498 27.0058 62.0004 26.9478 61.9621C26.8898 61.9238 26.8248 61.8974 26.7565 61.8845C26.6882 61.8716 26.618 61.8724 26.5501 61.8869C26.2682 61.9388 26.0803 62.2181 26.1363 62.5026C26.1255 62.5026 26.1174 62.4984 26.0995 62.4959C25.2556 62.4672 23.848 62.6893 22.9849 63.7137C23.8698 63.192 25.2788 62.6552 26.1255 62.5395C26.131 62.5422 26.1405 62.5395 26.1486 62.5395C26.1834 62.6685 26.2658 62.7796 26.3792 62.8504C26.4926 62.9212 26.6285 62.9463 26.7597 62.9208C26.8965 62.8922 27.0165 62.8108 27.0939 62.6944C27.1713 62.578 27.1999 62.4357 27.1734 62.2984V62.2984ZM34.5747 64.9549C36.9842 66.7708 38.3523 69.2909 38.7007 71.318C38.3985 71.0959 37.8295 70.8658 37.481 70.9311C37.168 68.791 36.0531 67.0596 34.3026 65.6552C34.3745 65.3307 34.4765 65.1075 34.5747 64.9549ZM32.7341 66.8389C33.3059 67.0663 33.5931 66.982 33.74 66.7775C34.045 66.3471 33.8978 65.7695 33.7046 65.6713C33.7481 65.8471 33.74 66.031 33.699 66.2408C33.6678 66.4095 33.5805 66.6888 33.2647 66.6523C33.096 66.6319 32.784 66.5488 32.6003 66.4249C32.4696 66.3337 32.4696 66.106 32.5445 65.9113C32.58 65.82 32.6221 65.6811 32.7391 65.5843C32.5445 65.6306 32.4275 65.7313 32.2736 65.8513C32.1211 65.9699 31.8953 65.993 31.7645 65.8541C31.6039 65.6741 31.5019 65.538 31.4472 65.4194C31.3151 65.1103 31.714 64.8787 31.9468 64.7574C31.544 64.7616 31.4746 64.9142 31.1545 64.8595C30.825 64.8051 30.7422 64.282 30.7433 64.109C30.7433 63.9824 30.9 63.8596 31.0862 63.8133C31.2671 63.7737 31.4838 63.7901 31.6022 63.801C31.5819 63.708 31.5727 63.6128 31.5749 63.5176C31.2496 63.4425 30.6139 63.5516 30.4941 63.7316C30.343 63.9631 30.3825 64.0817 30.5035 64.4904C30.6234 64.884 30.716 65.0244 30.9705 65.0626C31.0399 65.0721 31.1774 65.0899 31.3299 65.0327C31.2496 65.0832 31.1963 65.1282 31.157 65.2317C31.1121 65.3352 31.0413 65.5109 31.3544 65.8856C31.6226 66.2112 31.888 66.3351 32.1085 66.214C32.2351 66.1431 32.2828 66.0656 32.3413 66.0042C32.3022 66.0927 32.2716 66.1848 32.2501 66.2793C32.191 66.5976 32.4305 66.7231 32.7341 66.8389" fill="#F2F2F2"/>
<path d="M32.3147 64.3335C32.4767 64.1279 32.8742 64.1019 33.0989 64.2451C32.9464 64.5338 32.9314 65.0134 33.0158 65.2491C32.4496 65.1618 32.3476 64.6183 32.3147 64.3335V64.3335ZM33.2038 64.3008C33.5372 64.2763 33.6626 64.1089 33.7209 63.9454C33.7808 63.7875 33.959 63.6879 33.9646 63.9317C33.966 64.177 33.9674 64.2872 33.8299 64.3527C33.6897 64.4233 33.4418 64.4426 33.2038 64.3008V64.3008ZM33.3738 64.8281C33.3429 65.0126 33.2718 65.1879 33.1656 65.3417C33.0797 65.4642 32.9587 65.5365 32.87 65.6168C33.0239 65.7312 33.2417 65.7979 33.424 65.7898C33.6024 65.7789 33.6133 65.7558 33.6024 65.6849C33.5617 65.3797 33.4418 64.9478 33.3738 64.8281ZM66.9416 64.038C67.0969 64.3254 67.1077 64.8106 67.0233 65.0421C67.595 64.9523 67.6929 64.4113 67.7283 64.1282C67.5622 63.9209 67.1674 63.8977 66.9416 64.038V64.038ZM66.8379 64.0952C66.5058 64.0693 66.3804 63.9044 66.3207 63.7451C66.2594 63.583 66.0812 63.4809 66.0798 63.7286C66.077 63.9725 66.0743 64.0802 66.212 64.1455C66.3505 64.2163 66.597 64.2342 66.8379 64.0952ZM66.8733 65.1306C66.7684 64.9777 66.6979 64.8039 66.6664 64.6211C66.597 64.7425 66.4813 65.173 66.4378 65.4779C66.4283 65.5488 66.4322 65.5761 66.6162 65.5828C66.7999 65.5909 67.0177 65.5284 67.1688 65.4126C67.079 65.3348 66.9605 65.26 66.8733 65.1306Z" fill="#F2F2F2"/>
<path d="M76.7754 56.0887L77.35 56.2494L68.6883 63.0946H68.6897L68.4857 63.2595C68.4762 63.2609 68.4611 63.2609 68.4503 63.2662C68.4569 63.363 68.4503 63.4609 68.4338 63.5496C68.5551 63.543 68.7223 63.543 68.8668 63.5809C69.0547 63.6328 69.2058 63.7567 69.2002 63.8819C69.2002 64.0563 69.1035 64.578 68.7742 64.6257C68.4503 64.6692 68.3861 64.5166 67.9833 64.5004C68.208 64.6285 68.6067 64.8667 68.4583 65.1733C68.4026 65.2958 68.3005 65.4267 68.1316 65.601C68.0008 65.7372 67.7736 65.7087 67.6253 65.5835C67.477 65.461 67.3613 65.3561 67.1678 65.3042C67.2849 65.4035 67.3217 65.5424 67.3529 65.6379C67.421 65.8287 67.4168 66.0589 67.2849 66.1459C67.0942 66.2631 66.7825 66.3378 66.6125 66.3543C66.2994 66.3841 66.2163 66.101 66.189 65.9333C66.155 65.7235 66.1536 65.5355 66.2027 65.3625C66.0039 65.4593 65.8405 66.0273 66.1374 66.4687C66.2735 66.6757 66.5567 66.763 67.1352 66.5613C67.443 66.4508 67.6906 66.3339 67.6362 66.0109C67.6211 65.9115 67.5871 65.82 67.5545 65.7316C67.6144 65.7969 67.6526 65.8747 67.7764 65.9495C68.0011 66.0748 68.2651 65.9576 68.5456 65.6404C68.8615 65.2766 68.7987 65.0955 68.7605 64.992C68.7223 64.8885 68.6694 64.8422 68.5919 64.7931C68.7416 64.8559 68.8723 64.8394 68.9459 64.8285C69.206 64.7998 69.3 64.6622 69.4305 64.2742C69.5665 63.8683 69.6061 63.7497 69.4603 63.5153C69.399 63.416 69.1921 63.3354 68.9593 63.2905L77.5543 56.5066L77.5747 57.1048L79.1197 55.0573L76.7754 56.0887V56.0887ZM72.1567 58.1934L78.2594 50.4599L78.4214 51.036L79.4451 48.6875L77.403 50.2364L78.0032 50.2596L72.4737 57.2697C72.0345 57.9402 71.5935 58.6095 71.1506 59.2775L71.1587 59.2856C71.4925 58.9226 71.8252 58.5585 72.1567 58.1934" fill="#F2F2F2"/>
<path d="M71.4297 60.4924C71.9415 60.0851 72.4737 59.6641 72.9979 59.2473L78.0807 54.5408L78.1557 55.1348L79.5251 52.9688L77.275 54.1879L77.8591 54.3009L72.757 59.0292C72.3023 59.5347 71.8532 60.0265 71.4297 60.4924V60.4924ZM77.0777 59.3821L69.9161 62.9701C69.7924 63.0694 69.6901 63.1501 69.6276 63.2003C69.6781 63.2399 69.7174 63.2848 69.7514 63.335C69.7664 63.3568 69.7759 63.3786 69.7868 63.3989L77.2221 59.6772L77.1214 60.2642L79.049 58.5764L76.5429 59.1104L77.0777 59.3821V59.3821ZM66.2596 66.9697C66.1548 66.9368 66.0583 66.882 65.9763 66.809L64.6953 69.4666L64.702 69.4708L64.235 69.6262L62.7173 72.5346L63.4538 72.3125L63.7179 73.0331L65.1539 70.084L64.9852 69.61L66.2596 66.9697" fill="#F2F2F2"/>
<path d="M71.2473 61.9229C71.7402 61.6748 72.3064 61.3889 72.8807 61.0987L77.6424 57.99L77.6112 58.5868L79.3277 56.6863L76.9034 57.5051L77.4601 57.7149L72.2847 61.1029C71.9379 61.3751 71.5921 61.6484 71.2473 61.9229V61.9229ZM65.6757 66.2603C65.6386 66.1181 65.6257 65.9707 65.6375 65.8242L63.9386 67.6809L63.4362 67.7216L63.3927 67.7637V67.7665L61.0283 70.1326L61.1398 70.1259L61.129 70.1326L61.1602 70.1259L61.7415 70.0985L61.8449 70.6774L63.805 68.0988L64.1834 68.017L65.6757 66.2603V66.2603ZM68.8093 62.5604C69.0162 62.3983 69.317 62.1597 69.6763 61.8752L78.0333 52.7373L78.1476 53.3217L79.3441 51.0564L77.1961 52.4485L77.7882 52.5138L69.0421 62.0889C68.9665 62.247 68.8889 62.4042 68.8093 62.5604V62.5604ZM61.3316 68.8116L64.4449 66.6171C64.8 66.2248 65.1937 65.8038 65.3297 65.6526L61.442 68.2218L61.4448 68.2246L60.9575 68.1239L60.6742 68.3024L58.1805 69.8608L58.8802 70.0054L58.9661 70.534L60.9753 68.7946L61.3316 68.8116V68.8116ZM58.7548 69.0975L60.0018 68.3197L61.163 67.5282L61.5605 67.6033C61.5605 67.6033 64.3961 65.8541 65.085 65.4032C65.1218 65.3773 65.1421 65.3636 65.1421 65.3636C65.1502 65.3608 65.1558 65.3555 65.1639 65.3513L61.4448 67.2066L60.9698 67.0596L58.009 68.4681L58.6762 68.7134L58.7548 69.0975V69.0975ZM72.7909 51.8967L73.3764 51.7932L68.0292 62.6365C68.0699 62.6597 68.1109 62.6814 68.1396 62.6965C68.2024 62.7333 68.2553 62.7796 68.2988 62.8301L73.6705 51.9405L73.9468 52.4692L74.4667 49.96L72.7909 51.8967V51.8967ZM73.4294 53.7235L74.0271 53.6922L70.6716 58.7966C70.2768 59.5947 69.8943 60.3714 69.5567 61.0496C69.5743 61.0307 69.5907 61.0128 69.6058 60.9924L74.3048 53.8775L74.5088 54.436L75.3352 52.0072L73.4294 53.7235" fill="#F2F2F2"/>
</svg>
