<svg width="110" height="45" viewBox="0 0 110 45" fill="none" xmlns="http://www.w3.org/2000/svg">
<path d="M33.9042 26.5244H33.216C29.6092 26.5244 27.0951 26.7527 25.678 27.2109C24.258 27.669 23.548 28.4518 23.548 29.5606C23.548 30.352 23.9102 30.9451 24.6348 31.3401C25.3593 31.7351 26.4462 31.9333 27.8953 31.9333C29.8318 31.9333 31.3173 31.5096 32.3518 30.6636C33.3862 29.8177 33.9042 28.5983 33.9042 27.0026V26.5244V26.5244ZM34.1253 32.9271C33.1782 34.1307 31.7974 35.0499 29.9788 35.6833C28.1615 36.3196 26.0039 36.6384 23.5072 36.6384C20.6235 36.6384 18.3946 36.0711 16.8218 34.935C15.2476 33.7975 14.4604 32.1918 14.4604 30.115C14.4604 28.8209 14.7631 27.6576 15.3683 26.6263C15.9736 25.5937 16.8524 24.752 18.0047 24.0942C18.9198 23.5528 20.2016 23.1664 21.8486 22.9366C23.4941 22.7068 26.097 22.5905 29.6572 22.5905H33.9042C33.9042 22.5086 33.9114 22.4009 33.926 22.2716C33.9405 22.1409 33.9478 22.0476 33.9478 21.993C33.9478 20.8382 33.5797 19.9593 32.8479 19.3546C32.1146 18.7485 31.0496 18.4469 29.6572 18.4469C28.0684 18.4469 26.8899 18.6465 26.1203 19.0444C25.3492 19.4408 24.8894 20.0842 24.741 20.9747H15.9503C16.2296 18.6494 17.494 16.9331 19.7433 15.8257C21.9926 14.7155 25.3448 14.1611 29.7998 14.1611C34.0919 14.1611 37.252 14.8261 39.2801 16.1532C41.3069 17.4817 42.3224 19.5428 42.3224 22.3363V33.2862C42.3224 33.8952 42.3559 34.4237 42.4213 34.8761C42.4883 35.3285 42.6018 35.7508 42.7647 36.1458H34.6767C34.4861 35.7508 34.3465 35.3199 34.2577 34.8546C34.1704 34.3892 34.1253 33.8808 34.1253 33.3293V32.9271Z" fill="#F2F2F2"/>
<path d="M12.9635 6.11122C12.9635 9.48496 10.0609 12.221 6.48319 12.221C2.90259 12.221 0 9.48496 0 6.11122C0 2.73605 2.90259 0 6.48319 0C10.0609 0 12.9635 2.73605 12.9635 6.11122Z" fill="#F2F2F2"/>
<path d="M94.8833 32.2994C96.7587 32.2994 98.2559 31.7206 99.3762 30.5644C100.498 29.4068 101.06 27.8614 101.06 25.9225C101.06 23.7337 100.505 22.0375 99.3995 20.8324C98.2922 19.6274 96.7427 19.0242 94.7495 19.0242C92.8013 19.0242 91.2765 19.6016 90.1766 20.7592C89.0781 21.9154 88.5296 23.5326 88.5296 25.6094C88.5296 27.7968 89.0709 29.46 90.1562 30.5946C91.2402 31.7307 92.8159 32.2994 94.8833 32.2994ZM79.9019 44.1685V19.4422C79.9019 18.7068 79.8713 17.9384 79.8117 17.1341C79.752 16.3313 79.6633 15.4853 79.5454 14.5977H88.3507C88.4394 15.1521 88.5064 15.7065 88.5515 16.2609C88.5951 16.8153 88.6169 17.3697 88.6169 17.9226V18.5862C89.8231 17.1054 91.2678 15.9765 92.9526 15.2009C94.6374 14.4254 96.4954 14.0361 98.525 14.0361C102.129 14.0361 104.941 15.0444 106.964 17.058C108.986 19.073 109.999 21.8795 109.999 25.4773C109.999 28.8941 108.954 31.6014 106.865 33.5935C104.777 35.5855 101.938 36.5823 98.3475 36.5823C96.4067 36.5823 94.6273 36.2821 93.0079 35.6832C91.39 35.0829 89.9264 34.1823 88.6169 32.9816V44.1685H79.9019V44.1685Z" fill="#F2F2F2"/>
<path d="M61.5188 32.36C63.3942 32.36 64.8928 31.7797 66.0131 30.6235C67.1334 29.4659 67.695 27.9205 67.695 25.983C67.695 23.7928 67.1421 22.0966 66.0349 20.8916C64.9292 19.6865 63.3797 19.0833 61.3864 19.0833C59.4383 19.0833 57.9135 19.6621 56.8136 20.8183C55.7151 21.9759 55.1651 23.5917 55.1651 25.6685C55.1651 27.8573 55.7064 29.5191 56.7917 30.6551C57.8757 31.7912 59.4513 32.36 61.5188 32.36ZM46.5374 44.2291V19.5013C46.5374 18.7673 46.5068 17.999 46.4486 17.1947C46.389 16.3918 46.3002 15.5459 46.1809 14.6583H54.9876C55.0749 15.2126 55.1433 15.767 55.1884 16.3214C55.232 16.8758 55.2539 17.4302 55.2539 17.9832V18.6467C56.46 17.1659 57.9048 16.037 59.5896 15.26C61.2744 14.4859 63.1323 14.0967 65.1605 14.0967C68.7644 14.0967 71.5768 15.1049 73.6006 17.1171C75.6244 19.1336 76.6356 21.9386 76.6356 25.5364C76.6356 28.9546 75.5895 31.6605 73.5016 33.654C71.4138 35.6461 68.5752 36.6428 64.9845 36.6428C63.0436 36.6428 61.2627 36.3427 59.6449 35.7438C58.027 35.1434 56.5619 34.2429 55.2539 33.0422V44.2291H46.5374Z" fill="#F2F2F2"/>
<path d="M10.2063 14.7432H1.48975V36.1662H10.2063V14.7432Z" fill="#F2F2F2"/>
</svg>
