<svg width="67" height="67" viewBox="0 0 67 67" fill="none" xmlns="http://www.w3.org/2000/svg">
<path d="M31.2189 29.9212C30.3587 30.2846 29.6691 30.8259 29.1574 31.5526C28.6458 32.2793 28.3862 33.1544 28.3862 34.1851C28.3862 35.505 28.9424 36.521 30.0473 37.2403C31.0929 37.9151 32.1904 38.0856 33.3397 37.7445C34.6671 37.3589 35.5644 36.4171 36.039 34.9192C36.2614 34.2296 36.3727 33.4584 36.3727 32.5982V28.8757C35.4383 28.9053 34.5633 28.9943 33.7402 29.15C32.9171 29.3058 32.0791 29.5653 31.2189 29.9212V29.9212ZM33.2211 0C14.8753 0 0 14.8753 0 33.2211C0 51.5669 14.8753 66.4422 33.2211 66.4422C51.5669 66.4422 66.4422 51.5669 66.4422 33.2211C66.4422 14.8753 51.5669 0 33.2211 0ZM35.8758 19.4803C35.3419 18.672 34.3853 18.2642 33.0061 18.2642C32.9097 18.2642 32.7836 18.2716 32.613 18.2864C32.4499 18.3013 32.1236 18.3977 31.6564 18.5608C31.1872 18.7287 30.7412 18.9554 30.3291 19.2356C29.9212 19.5174 29.4763 19.9772 28.9943 20.6C28.5197 21.2304 28.1415 21.9645 27.8597 22.8098L20.8892 22.1869C20.8892 21.2674 21.0672 20.3553 21.4083 19.4507C21.7569 18.546 22.2833 17.6784 22.9952 16.8553C23.7071 16.0247 24.5599 15.298 25.5535 14.6751C26.5472 14.0448 27.7485 13.548 29.1426 13.1698C30.5441 12.7916 32.042 12.6062 33.6586 12.6062C35.2381 12.6062 36.6693 12.799 37.9447 13.1772C39.2202 13.5628 40.2509 14.03 41.0147 14.5936C41.7506 15.1245 42.3987 15.7675 42.9353 16.4993C43.447 17.2112 43.8029 17.8712 44.0031 18.4792C44.2033 19.0873 44.2997 19.6435 44.2997 20.17V33.7031C44.2997 34.1777 44.4036 34.6671 44.6186 35.1714C44.8337 35.6756 45.0858 36.1205 45.375 36.5061C45.6642 36.8917 45.9608 37.2403 46.2648 37.5665C46.5689 37.8854 46.8284 38.1375 47.0509 38.3007L47.3549 38.5528L41.9787 43.6991C41.3484 43.1281 40.7255 42.5571 40.11 41.9639C39.4945 41.3706 39.0348 40.9257 38.7382 40.6217L38.2858 40.1619C38.1079 39.9914 37.9151 39.7393 37.6926 39.4056C37.0919 40.3102 36.3207 41.0963 35.3864 41.7637C34.4446 42.4311 33.4361 42.9205 32.3683 43.2245C31.2931 43.5285 30.1882 43.7065 29.0536 43.751C27.9191 43.7955 26.829 43.6398 25.7983 43.269C24.7675 42.8982 23.8332 42.4014 23.0101 41.7637C22.1869 41.1259 21.5344 40.2658 21.045 39.1683C20.5556 38.0708 20.3108 36.8324 20.3108 35.4309C20.3108 34.1406 20.5333 32.9616 20.9708 31.8937C21.4157 30.8185 21.9793 29.9286 22.6764 29.2168C23.3734 28.5049 24.2114 27.8672 25.1976 27.311C26.1839 26.7548 27.1553 26.3173 28.1045 25.9985C29.0536 25.687 30.077 25.4201 31.1819 25.205C32.2868 24.99 33.2285 24.8491 34.0145 24.7823C34.8006 24.7156 35.5866 24.6637 36.3727 24.634V21.7124C36.3727 20.7113 36.2021 19.9697 35.8758 19.4803V19.4803ZM49.2607 47.6293C49.053 47.874 48.7045 48.2077 48.2151 48.6303C47.7257 49.053 46.9693 49.5721 45.9534 50.195C44.9375 50.8179 43.8177 51.3815 42.6164 51.8931C41.4077 52.4048 39.9246 52.8497 38.1598 53.2279C36.4023 53.6061 34.5855 53.7915 32.7243 53.7915C30.8407 53.7915 28.9646 53.5542 27.0811 53.0796C25.1976 52.605 23.5514 52.0192 22.1276 51.3221C20.7113 50.6251 19.3394 49.8242 18.0417 48.9344C16.7366 48.0371 15.691 47.2362 14.8976 46.5244C14.1116 45.8125 13.4442 45.1377 12.9103 44.5148C12.7842 44.3739 12.7026 44.2478 12.673 44.1366C12.6433 44.0254 12.6507 43.929 12.6952 43.8622C12.7397 43.7955 12.8064 43.7436 12.888 43.6991C12.9766 43.6598 13.074 43.6446 13.1704 43.655C13.2667 43.6654 13.3586 43.7011 13.4367 43.7584C16.4697 45.5529 18.8426 46.821 20.5481 47.5699C26.6955 50.2692 33.0061 50.9588 39.4797 49.6388C42.483 49.0234 45.5678 47.9926 48.7416 46.5392C48.9789 46.4502 49.1865 46.428 49.3571 46.4725C49.5276 46.517 49.6166 46.6504 49.6166 46.8729C49.6166 47.0805 49.498 47.3401 49.2607 47.6293V47.6293ZM53.7025 45.4788C53.569 46.3019 53.3391 47.0805 53.0277 47.8369C52.4938 49.1049 51.819 50.0615 51.0181 50.6844C50.7512 50.8995 50.5435 50.9662 50.4026 50.8921C50.2617 50.8179 50.2617 50.6325 50.4026 50.3433C50.7363 49.6537 51.0849 48.7267 51.4556 47.5477C51.8264 46.3761 51.8783 45.6197 51.6113 45.286C51.5298 45.1748 51.4111 45.0932 51.2406 45.019C51.0774 44.9523 50.8624 44.9078 50.6029 44.8781C50.3433 44.8485 50.106 44.8337 49.9058 44.8188C49.6982 44.804 49.4238 44.804 49.0753 44.8188C48.7267 44.8337 48.482 44.8485 48.3263 44.8633C47.904 44.9045 47.4813 44.9416 47.0583 44.9745C46.9619 44.9894 46.8581 45.0042 46.7542 45.0116C46.643 45.019 46.554 45.0265 46.4947 45.0339L46.2945 45.0561C46.2203 45.0635 46.1684 45.0709 46.1313 45.0709H45.8941L45.8199 45.0561L45.7754 45.019L45.7383 44.9523C45.6419 44.7076 46.0127 44.4036 46.8506 44.0328C47.6886 43.662 48.5043 43.4321 49.2903 43.3432C50.017 43.2319 50.8698 43.2319 51.8486 43.3209C52.8275 43.4099 53.4281 43.5953 53.6506 43.8696C53.8211 44.1292 53.836 44.6631 53.7025 45.4788V45.4788Z" fill="#F2F2F2"/>
</svg>
