<svg width="171" height="35" viewBox="0 0 171 35" fill="none" xmlns="http://www.w3.org/2000/svg">
<path d="M9.04532 0.0748201C6.13169 0.660788 3.76895 2.20252 2.19571 4.56915C1.21882 6.02553 0.582728 7.74361 0.190837 9.89405C-0.127219 11.7145 -0.0477148 14.2575 0.42937 16.7038C1.17907 20.5666 3.28621 24.6912 6.26231 28.133C8.36943 30.5622 12.0043 32.9743 15.0486 33.9585C18.1099 34.9541 21.546 34.8915 24.596 33.8049C26.4646 33.1393 29.0204 31.6431 30.7129 30.2436C31.6273 29.487 33.5356 27.5413 33.6208 27.274C33.6435 27.2 33.8139 26.9667 33.99 26.7392C36.1369 24.0767 37.8635 20.5154 38.5905 17.267C39.1243 14.889 39.3799 12.4029 39.1982 11.4813C39.1357 11.2025 39.0108 10.4857 38.9199 9.89405C38.1475 4.87635 35.3247 1.47432 30.8776 0.239806C30.1904 0.0577579 29.8099 0.0236211 28.0321 0.0236211C26.1352 0.0122431 25.8966 0.0349998 24.8799 0.291005C23.2158 0.711991 21.4381 1.44588 19.9614 2.32768L19.6036 2.54385L18.4223 1.92944C16.9229 1.13298 15.8949 0.729056 14.4295 0.342204C13.3731 0.0748208 13.0664 0.0349998 11.4023 0.00655476C10.3914 -0.0162013 9.33497 0.023619 9.04532 0.0748201V0.0748201ZM13.1971 3.60771C13.9979 3.77269 14.9521 4.09695 15.929 4.51793L16.5139 4.78532L15.4178 5.92312C14.8101 6.54891 14.2478 7.18039 14.1569 7.3283C14.0661 7.47622 13.6855 8.00529 13.305 8.5173C11.9476 10.3605 10.7889 12.4882 10.0279 14.559C9.84045 15.0597 9.64733 15.5318 9.59622 15.5944C9.46559 15.7765 9.23841 16.6071 8.92603 18.0407C8.67045 19.2809 8.64774 19.5483 8.64774 21.932C8.63638 23.9516 8.67611 24.6229 8.80106 25.1292C8.89194 25.4876 8.94308 25.7721 8.90333 25.7721C8.81245 25.7607 7.61973 24.2872 7.04609 23.4566C4.42781 19.6962 3.07037 14.7809 3.58721 10.8896C3.77464 9.5072 4.35965 7.66397 4.91057 6.75372C5.63755 5.51352 7.14831 4.2733 8.48301 3.80681C9.74388 3.35169 11.5614 3.28343 13.1971 3.60771V3.60771ZM30.1449 3.6589C34.1263 4.72275 36.2618 9.08622 35.5348 14.6273C35.1316 17.688 34.0752 20.4642 32.3032 23.1494C31.6557 24.1222 30.3437 25.7891 30.2812 25.7322C30.2585 25.7095 30.3096 25.2942 30.3948 24.7879C30.7413 22.6488 30.6845 20.3561 30.2017 17.9383C29.9575 16.7209 29.4747 15.0198 29.3384 14.9174C29.31 14.889 29.1226 14.4794 28.9295 13.9958C28.7364 13.5123 28.407 12.767 28.1798 12.3289C27.7709 11.4983 27.5096 11.2936 27.1121 11.4472C26.9871 11.487 25.3059 12.511 23.3635 13.7228C21.4211 14.9288 19.6491 16.0154 19.4105 16.1292C19.1834 16.243 18.9391 16.4136 18.8653 16.499C18.6495 16.755 18.7915 17.4092 19.155 17.9099C19.331 18.1545 19.6264 18.5868 19.8251 18.8713C20.1659 19.3719 20.359 19.5255 20.6373 19.5255C20.7509 19.5255 23.1023 18.0692 24.9311 16.8517C25.4025 16.5445 25.8455 16.2487 25.9193 16.2145C26.0727 16.1235 26.3794 17.0736 26.7315 18.7518C27.5039 22.4781 26.8962 26.2158 25.1412 28.5312C24.5165 29.3618 23.6418 30.0559 22.6479 30.5281C21.5517 31.0515 20.5919 31.2221 19.2288 31.1653C17.258 31.0628 16.0369 30.5281 14.6511 29.1456C13.9241 28.4174 13.6855 28.0932 13.3447 27.3934C11.9362 24.4636 11.7544 21.5793 12.7086 17.7051C14.1967 11.6235 19.0641 5.95725 24.4654 4.02299C25.1412 3.78974 26.3737 3.4996 27.1859 3.3972C27.8447 3.32324 29.3782 3.4541 30.1449 3.6589V3.6589ZM56.6345 7.08937C55.5383 7.20315 54.5898 7.36812 54.3229 7.48759C54.1582 7.56155 53.6016 7.78342 53.1131 7.98823C51.6876 8.55144 50.7618 9.18861 49.5009 10.4459C48.5581 11.3959 48.2912 11.7373 47.8879 12.5053C46.9508 14.3201 46.6044 15.9983 46.7066 18.1886C46.7975 20.0603 47.2518 21.6305 48.1549 23.1324C48.6149 23.9004 49.9212 25.2544 50.7959 25.8574C51.8523 26.597 53.488 27.3536 54.5217 27.5869C55.527 27.8144 57.7534 27.803 58.8325 27.5641C60.2921 27.2455 62.2118 26.2101 63.2398 25.1975L63.7226 24.7139V25.7265C63.7226 26.5458 63.7623 26.7904 63.9271 27.0578L64.1315 27.3934H65.5401C66.3182 27.3934 67.0111 27.3536 67.0679 27.3138C67.3973 27.0976 67.4143 26.7733 67.4143 22.6943C67.4143 19.1102 67.3916 18.5755 67.2496 18.4446C67.119 18.3024 66.5908 18.2796 63.1035 18.2796H59.1108L58.9063 18.547C58.7189 18.7803 58.6905 18.968 58.6905 19.9807C58.6905 21.1185 58.7019 21.1469 58.9688 21.4029C59.2471 21.6475 59.3096 21.6589 60.5591 21.6589C61.2861 21.6589 61.871 21.6987 61.871 21.7499C61.871 21.9434 60.8828 22.7 60.1899 23.0527C59.213 23.5249 57.9919 23.7468 56.8106 23.6671C54.09 23.4851 52.1362 21.8978 51.432 19.2923C51.307 18.8315 51.2559 18.2569 51.2559 17.358C51.2559 16.2316 51.2957 15.9756 51.5456 15.2588C52.2044 13.353 53.4767 12.0445 55.26 11.4073C56.1006 11.1115 57.7647 11.0375 58.7927 11.2537C60.3944 11.5894 61.8313 12.5963 62.581 13.9048C63.0354 14.6956 63.1546 14.7468 63.9384 14.4794C65.3356 13.9958 66.7442 13.3928 66.835 13.2392C66.9713 13.0344 66.6419 12.2436 66.0228 11.2822C64.9948 9.70631 63.6829 8.64815 61.8256 7.93134C61.3713 7.75498 60.9339 7.57293 60.8317 7.52173C60.3717 7.28279 57.6114 6.99835 56.6345 7.08937V7.08937ZM85.0381 7.55018L84.7711 7.75498V17.3296C84.7711 25.9712 84.7939 26.9269 84.9358 27.1488L85.1005 27.4048L89.6385 27.3934C94.3185 27.3934 94.4719 27.3821 96.0167 26.9611C99.2427 26.102 101.304 24.475 102.537 21.841C103.247 20.3277 103.4 19.5255 103.412 17.3637C103.412 15.1222 103.258 14.3713 102.446 12.7044C101.174 10.1159 99.0042 8.51732 95.6589 7.71517C94.1992 7.37952 93.6029 7.334 89.3829 7.334C85.4186 7.33969 85.305 7.34538 85.0381 7.55018V7.55018ZM94.7615 11.578C96.17 11.9648 97.1867 12.7158 98.0557 13.9844C98.3226 14.3827 98.6406 14.9857 98.7429 15.3384C99.0098 16.1804 99.0893 17.4604 98.9473 18.3821C98.8337 19.1387 98.493 20.2367 98.351 20.3391C98.2999 20.3675 98.0841 20.669 97.8683 20.9933C97.0902 22.1482 96.0621 22.865 94.665 23.2177C93.9891 23.3941 93.5234 23.4225 91.473 23.4225H89.0819V17.4547C89.0819 14.1665 89.1103 11.4415 89.1614 11.4016C89.2012 11.3504 90.3428 11.3391 91.7002 11.3732C93.5291 11.3903 94.3185 11.4528 94.7615 11.578V11.578ZM131.9 7.40796C131.508 7.56156 131.503 7.70379 131.491 11.322V14.8435L130.98 14.3599C129.299 12.7841 126.175 12.6589 123.847 14.0755C123.506 14.2803 122.955 14.7297 122.603 15.0767C120.445 17.2158 119.905 20.9535 121.331 23.8719C122.535 26.3523 125.232 27.968 127.862 27.786C129.225 27.695 130.009 27.3365 131.065 26.341L131.497 25.9314V26.4149C131.497 26.6937 131.571 27.0066 131.662 27.1545C131.826 27.4105 131.838 27.4105 133.502 27.4105C134.888 27.4105 135.206 27.3821 135.342 27.2455C135.484 27.1033 135.507 26.0793 135.507 17.4377C135.507 7.87446 135.507 7.78912 135.302 7.56725C135.098 7.35107 135.007 7.33969 133.576 7.35106C132.73 7.34537 131.98 7.37951 131.9 7.40796V7.40796ZM129.538 17.1362C130.162 17.4206 130.952 18.2228 131.276 18.9054C131.503 19.389 131.542 19.6109 131.542 20.4415C131.542 21.3403 131.514 21.4769 131.202 22.1027C130.617 23.2917 129.589 23.9231 128.254 23.9231C126.221 23.9231 124.806 22.3245 124.937 20.1855C125 19.2126 125.357 18.4446 126.067 17.7676C126.828 17.0281 127.34 16.846 128.407 16.8972C128.799 16.92 129.271 17.011 129.538 17.1362V17.1362ZM147.968 7.59001L147.712 7.83463V11.3277C147.712 13.2449 147.689 14.8094 147.661 14.8094C147.638 14.8094 147.417 14.6046 147.156 14.3599C146.684 13.8991 145.912 13.4895 145.134 13.2619C144.458 13.0685 142.652 13.0856 141.868 13.3018C140.482 13.6829 139.074 14.6045 138.295 15.6684C138.04 16.004 137.801 16.3112 137.75 16.3454C137.62 16.4364 137.33 17.0622 137.08 17.8302C136.711 18.9453 136.575 20.2139 136.7 21.2834C136.824 22.2051 137.233 23.6159 137.523 24.0597C138.375 25.3283 139.329 26.2613 140.488 26.9269C141.476 27.4901 142.163 27.7063 143.248 27.786C144.81 27.8998 145.997 27.4674 147.139 26.3751C147.377 26.1475 147.593 25.9769 147.633 25.9769C147.672 25.9769 147.707 26.1589 147.707 26.3979C147.707 26.8188 147.849 27.1943 148.053 27.3308C148.206 27.4333 151.319 27.4333 151.472 27.3308C151.79 27.126 151.813 26.6254 151.813 17.3694C151.813 7.47623 151.824 7.59 151.353 7.40796C151.262 7.37951 150.512 7.34537 149.7 7.34537C148.257 7.33968 148.201 7.34538 147.968 7.59001V7.59001ZM145.679 17.1248C146.326 17.4547 146.963 18.0748 147.258 18.6722C147.423 19.0021 147.604 19.298 147.661 19.3378C147.724 19.3776 147.763 19.8384 147.763 20.3618C147.763 21.2095 147.735 21.3745 147.468 21.9092C146.798 23.2177 145.94 23.8321 144.634 23.9061C143.22 23.98 142.152 23.3656 141.533 22.1027C141.226 21.4769 141.192 21.346 141.192 20.4415C141.203 19.5938 141.232 19.3947 141.482 18.9054C141.777 18.3138 141.913 18.1374 142.498 17.5856C143.254 16.8915 144.776 16.664 145.679 17.1248V17.1248ZM168.829 10.3776C168.789 10.4061 168.755 10.7588 168.755 11.1456C168.755 11.6975 168.783 11.8397 168.908 11.8397C169.022 11.8397 169.062 11.7259 169.062 11.4016V10.9693L169.266 11.2992C169.38 11.4813 169.505 11.6349 169.556 11.6349C169.607 11.6349 169.721 11.4813 169.811 11.2992L169.976 10.9693V11.4016C169.988 11.7714 170.016 11.8397 170.192 11.8397C170.385 11.8397 170.408 11.7885 170.379 11.0944C170.351 10.4402 170.328 10.3549 170.141 10.3549C170.016 10.3549 169.863 10.4971 169.721 10.7531L169.493 11.1399L169.38 10.7815C169.306 10.5881 169.187 10.3947 169.101 10.3606C168.914 10.298 168.914 10.298 168.829 10.3776V10.3776ZM74.6558 13.2164C72.0091 13.7398 69.902 15.492 69.1012 17.8359C68.9478 18.2853 68.7831 18.7063 68.732 18.7803C68.4764 19.1102 68.465 21.8922 68.732 22.2221C68.7831 22.2961 68.8854 22.5293 68.9592 22.7569C69.2034 23.5533 69.8225 24.5717 70.487 25.2885C71.1231 25.9769 72.5203 27.0066 72.8099 27.0066C72.8838 27.0066 72.9973 27.0691 73.0541 27.1488C73.1166 27.2228 73.5256 27.3934 73.9686 27.53C75.0136 27.8486 76.8424 27.8656 77.9954 27.5812C78.8984 27.3536 80.3751 26.5685 81.1703 25.9029C83.5614 23.8776 84.294 20.5666 83.0388 17.4832C82.4027 15.9244 81.068 14.5533 79.4664 13.8252C78.109 13.1937 76.053 12.9377 74.6558 13.2164V13.2164ZM77.1946 17.1248C77.399 17.1987 77.7 17.358 77.8534 17.4946C79.2165 18.6324 79.4777 19.1046 79.4834 20.4415C79.4834 21.2209 79.4437 21.3915 79.154 21.9775C78.694 22.9219 77.7909 23.5761 76.6607 23.8094C75.2522 24.0938 73.7641 23.3372 73.0541 21.9547C72.7077 21.2778 72.6623 19.9807 72.9746 19.1614C73.2189 18.5072 74.0821 17.5344 74.7182 17.2158C75.3941 16.8574 76.3426 16.8289 77.1946 17.1248V17.1248ZM110.488 13.1311C109.432 13.3473 109.091 13.4383 108.483 13.6829C106.689 14.4225 105.405 15.7936 104.775 17.6539C104.377 18.8087 104.229 19.7929 104.303 20.9023C104.377 22.0799 104.581 22.8479 105.093 23.8719C105.769 25.2544 107.035 26.5344 108.154 26.9554C108.393 27.0464 108.586 27.1602 108.586 27.2114C108.586 27.4788 110.71 27.8656 111.709 27.786C113.044 27.6722 113.805 27.3252 114.833 26.341L115.265 25.9314V26.4149C115.265 26.6937 115.339 27.0066 115.429 27.1545C115.594 27.4105 115.606 27.4105 117.321 27.4105C118.849 27.4105 119.059 27.3877 119.201 27.2285C119.354 27.0521 119.377 26.4377 119.377 20.4301C119.377 14.1608 119.365 13.8138 119.189 13.6602C119.025 13.5179 118.735 13.4838 117.361 13.4838C115.378 13.4838 115.265 13.5236 115.265 14.3258V14.8492L114.759 14.377C114.135 13.791 113.385 13.4155 112.499 13.2221C111.868 13.0799 110.954 13.0401 110.488 13.1311V13.1311ZM113.152 17.0963C113.408 17.1703 113.788 17.4434 114.242 17.8871C114.867 18.4901 114.964 18.6324 115.168 19.3093C115.725 21.1128 115.015 22.8707 113.43 23.6102C112.607 23.9914 111.459 23.98 110.625 23.5875C109.939 23.2456 109.389 22.6824 109.063 21.9889C108.887 21.602 108.847 21.3233 108.847 20.4415C108.847 19.4971 108.875 19.3037 109.102 18.8656C109.5 18.0691 110.409 17.2386 111.051 17.0622C111.885 16.8574 112.34 16.8574 113.152 17.0963V17.0963ZM152.937 13.5805C152.597 13.774 152.631 14.1437 153.142 15.8049C155.936 24.8163 156.601 26.8871 156.765 27.1204C156.959 27.4048 156.981 27.4048 158.049 27.4048C158.873 27.4048 159.117 27.4333 159.077 27.53C159.054 27.6039 158.952 27.9168 158.873 28.2354C158.526 29.4358 157.97 29.8966 156.851 29.9023C156.226 29.9023 156.05 29.8625 155.414 29.5211C154.573 29.0831 154.204 29.0489 153.903 29.3675C153.449 29.8568 152.642 31.2221 152.642 31.4952C152.642 31.8764 153.045 32.2405 153.914 32.6728C155.709 33.5546 158.401 33.5432 160.054 32.6501C160.781 32.2518 161.695 31.2961 162.116 30.4883C162.519 29.7202 162.638 29.3391 163.155 27.4958C163.348 26.7904 163.944 24.7196 164.478 22.8877C166.006 17.6766 167.017 14.1324 167.017 13.9503C167.017 13.8707 166.943 13.7171 166.852 13.6317C166.722 13.5009 166.398 13.4667 164.955 13.4667C163.405 13.4667 163.2 13.4895 163.036 13.6488C162.831 13.8536 162.718 14.2234 161.78 17.8188C160.787 21.6475 160.19 23.8094 160.139 23.8094C160.099 23.8094 159.31 21.0957 157.913 16.1292C157.72 15.4238 157.515 14.798 157.47 14.7468C157.43 14.6842 157.328 14.4509 157.254 14.2063C157.049 13.5009 156.959 13.4667 154.903 13.4667C153.914 13.4781 153.028 13.5293 152.937 13.5805V13.5805Z" fill="#F2F2F2"/>
</svg>
